<ttFont>
    <TTGlyph name=".notdef" xMin="228" yMin="0" xMax="1644" yMax="1416">
      <contour>
        <pt x="228" y="1416" on="1"/>
        <pt x="1644" y="1416" on="1"/>
        <pt x="1644" y="0" on="1"/>
        <pt x="228" y="0" on="1"/>
      </contour>
      <contour>
        <pt x="586" y="219" on="1"/>
        <pt x="933" y="587" on="1"/>
        <pt x="1295" y="219" on="1"/>
        <pt x="1417" y="341" on="1"/>
        <pt x="1054" y="709" on="1"/>
        <pt x="1417" y="1067" on="1"/>
        <pt x="1289" y="1191" on="1"/>
        <pt x="937" y="825" on="1"/>
        <pt x="580" y="1193" on="1"/>
        <pt x="457" y="1068" on="1"/>
        <pt x="816" y="705" on="1"/>
        <pt x="458" y="363" on="1"/>
      </contour>
    </TTGlyph>
    <TTGlyph name="A" xMin="-130" yMin="0" xMax="1314" yMax="1530">
      <contour>
        <pt x="706" y="1530" on="1"/>
        <pt x="905" y="1530" on="1"/>
        <pt x="1158" y="118" on="1"/>
        <pt x="1314" y="86" on="1"/>
        <pt x="1307" y="0" on="1"/>
        <pt x="799" y="0" on="1"/>
        <pt x="804" y="86" on="1"/>
        <pt x="960" y="115" on="1"/>
        <pt x="910" y="436" on="1"/>
        <pt x="338" y="436" on="1"/>
        <pt x="188" y="116" on="1"/>
        <pt x="347" y="86" on="1"/>
        <pt x="341" y="0" on="1"/>
        <pt x="-130" y="0" on="1"/>
        <pt x="-121" y="86" on="1"/>
        <pt x="-3" y="115" on="1"/>
      </contour>
      <contour>
        <pt x="892" y="557" on="1"/>
        <pt x="786" y="1246" on="1"/>
        <pt x="775" y="1364" on="1"/>
        <pt x="395" y="557" on="1"/>
      </contour>
    </TTGlyph>
    <TTGlyph name="AE" xMin="-162" yMin="0" xMax="1745" yMax="1530">
      <contour>
        <pt x="706" y="1408" on="1"/>
        <pt x="415" y="1430" on="1"/>
        <pt x="429" y="1530" on="1"/>
        <pt x="1745" y="1530" on="1"/>
        <pt x="1738" y="1241" on="1"/>
        <pt x="1632" y="1241" on="1"/>
        <pt x="1584" y="1408" on="1"/>
        <pt x="1185" y="1422" on="1"/>
        <pt x="1113" y="854" on="1"/>
        <pt x="1508" y="861" on="1"/>
        <pt x="1496" y="705" on="1"/>
        <pt x="1101" y="721" on="1"/>
        <pt x="1028" y="116" on="1"/>
        <pt x="1541" y="140" on="1"/>
        <pt x="1637" y="325" on="1"/>
        <pt x="1740" y="294" on="1"/>
        <pt x="1675" y="0" on="1"/>
        <pt x="697" y="0" on="1"/>
        <pt x="707" y="86" on="1"/>
        <pt x="826" y="115" on="1"/>
        <pt x="868" y="476" on="1"/>
        <pt x="395" y="476" on="1"/>
        <pt x="211" y="116" on="1"/>
        <pt x="400" y="86" on="1"/>
        <pt x="394" y="0" on="1"/>
        <pt x="-162" y="0" on="1"/>
        <pt x="-148" y="86" on="1"/>
        <pt x="6" y="115" on="1"/>
      </contour>
      <contour>
        <pt x="882" y="597" on="1"/>
        <pt x="976" y="1399" on="1"/>
        <pt x="870" y="1404" on="1"/>
        <pt x="457" y="597" on="1"/>
      </contour>
    </TTGlyph>
    <TTGlyph name="AEacute" xMin="-162" yMin="0" xMax="1745" yMax="2000">
      <component glyphName="AE" x="0" y="0" flags="0x1204"/>
      <component glyphName="acute.cap" x="1081" y="0" flags="0x1004"/>
    </TTGlyph>
    <TTGlyph name="Aacute" xMin="-130" yMin="0" xMax="1314" yMax="2000">
      <component glyphName="A" x="0" y="0" flags="0x1204"/>
      <component glyphName="acute.cap" x="696" y="0" flags="0x1004"/>
    </TTGlyph>
    <TTGlyph name="Abreve" xMin="-130" yMin="0" xMax="1314" yMax="1979">
      <component glyphName="A" x="0" y="0" flags="0x1204"/>
      <component glyphName="breve.cap" x="480" y="0" flags="0x1004"/>
    </TTGlyph>
    <TTGlyph name="Acircumflex" xMin="-130" yMin="0" xMax="1314" yMax="2000">
      <component glyphName="A" x="0" y="0" flags="0x1204"/>
      <component glyphName="circumflex.cap" x="435" y="0" flags="0x1004"/>
    </TTGlyph>
    <TTGlyph name="Adieresis" xMin="-130" yMin="0" xMax="1314" yMax="1959">
      <component glyphName="A" x="0" y="0" flags="0x1204"/>
      <component glyphName="dieresis.cap" x="444" y="0" flags="0x1004"/>
    </TTGlyph>
    <TTGlyph name="Agrave" xMin="-130" yMin="0" xMax="1314" yMax="2000">
      <component glyphName="A" x="0" y="0" flags="0x1204"/>
      <component glyphName="grave.cap" x="456" y="0" flags="0x1004"/>
    </TTGlyph>
    <TTGlyph name="Amacron" xMin="-130" yMin="0" xMax="1314" yMax="1878">
      <component glyphName="A" x="0" y="0" flags="0x1204"/>
      <component glyphName="macron.cap" x="509" y="0" flags="0x1004"/>
    </TTGlyph>
    <TTGlyph name="Aogonek" xMin="-130" yMin="-416" xMax="1314" yMax="1530">
      <contour>
        <pt x="1172" y="-322" on="1"/>
        <pt x="1061" y="-416" on="0"/>
        <pt x="922" y="-416" on="1"/>
        <pt x="847" y="-416" on="0"/>
        <pt x="804" y="-372" on="1"/>
        <pt x="767" y="-333" on="0"/>
        <pt x="769" y="-291" on="1"/>
        <pt x="773" y="-202" on="0"/>
        <pt x="834" y="-125" on="0"/>
        <pt x="883" y="-79" on="0"/>
        <pt x="933" y="-43" on="0"/>
        <pt x="958" y="-28" on="1"/>
        <pt x="1007" y="0" on="1"/>
        <pt x="799" y="0" on="1"/>
        <pt x="804" y="86" on="1"/>
        <pt x="960" y="115" on="1"/>
        <pt x="910" y="436" on="1"/>
        <pt x="338" y="436" on="1"/>
        <pt x="188" y="116" on="1"/>
        <pt x="347" y="86" on="1"/>
        <pt x="341" y="0" on="1"/>
        <pt x="-130" y="0" on="1"/>
        <pt x="-121" y="86" on="1"/>
        <pt x="-3" y="115" on="1"/>
        <pt x="706" y="1530" on="1"/>
        <pt x="905" y="1530" on="1"/>
        <pt x="1158" y="118" on="1"/>
        <pt x="1314" y="86" on="1"/>
        <pt x="1307" y="0" on="1"/>
        <pt x="1123" y="0" on="1"/>
        <pt x="1055" y="-55" on="0"/>
        <pt x="964" y="-154" on="0"/>
        <pt x="963" y="-201" on="1"/>
        <pt x="958" y="-264" on="0"/>
        <pt x="998" y="-282" on="1"/>
        <pt x="1007" y="-287" on="0"/>
        <pt x="1016" y="-287" on="1"/>
        <pt x="1071" y="-287" on="0"/>
        <pt x="1146" y="-228" on="1"/>
      </contour>
      <contour>
        <pt x="892" y="557" on="1"/>
        <pt x="786" y="1246" on="1"/>
        <pt x="775" y="1364" on="1"/>
        <pt x="395" y="557" on="1"/>
      </contour>
    </TTGlyph>
    <TTGlyph name="Aring" xMin="-130" yMin="0" xMax="1314" yMax="2000">
      <contour>
        <pt x="683" y="1484" on="1"/>
        <pt x="527" y="1534" on="0"/>
        <pt x="527" y="1696" on="1"/>
        <pt x="527" y="1855" on="0"/>
        <pt x="656" y="1938" on="1"/>
        <pt x="750" y="2000" on="0"/>
        <pt x="877" y="2000" on="1"/>
        <pt x="1018" y="2000" on="0"/>
        <pt x="1090" y="1930" on="1"/>
        <pt x="1152" y="1870" on="0"/>
        <pt x="1152" y="1772" on="1"/>
        <pt x="1152" y="1648" on="0"/>
        <pt x="1070" y="1566" on="1"/>
        <pt x="1007" y="1503" on="0"/>
        <pt x="914" y="1480" on="1"/>
        <pt x="1158" y="118" on="1"/>
        <pt x="1314" y="86" on="1"/>
        <pt x="1307" y="0" on="1"/>
        <pt x="799" y="0" on="1"/>
        <pt x="804" y="86" on="1"/>
        <pt x="960" y="115" on="1"/>
        <pt x="910" y="436" on="1"/>
        <pt x="338" y="436" on="1"/>
        <pt x="188" y="116" on="1"/>
        <pt x="347" y="86" on="1"/>
        <pt x="341" y="0" on="1"/>
        <pt x="-130" y="0" on="1"/>
        <pt x="-121" y="86" on="1"/>
        <pt x="-3" y="115" on="1"/>
      </contour>
      <contour>
        <pt x="939" y="1581" on="1"/>
        <pt x="1011" y="1641" on="0"/>
        <pt x="1011" y="1752" on="1"/>
        <pt x="1011" y="1858" on="0"/>
        <pt x="926" y="1898" on="1"/>
        <pt x="897" y="1912" on="0"/>
        <pt x="823" y="1912" on="0"/>
        <pt x="758" y="1894" on="0"/>
        <pt x="733" y="1874" on="1"/>
        <pt x="669" y="1821" on="0"/>
        <pt x="669" y="1719" on="1"/>
        <pt x="669" y="1656" on="0"/>
        <pt x="754" y="1553" on="0"/>
        <pt x="906" y="1553" on="0"/>
      </contour>
      <contour>
        <pt x="892" y="557" on="1"/>
        <pt x="786" y="1246" on="1"/>
        <pt x="775" y="1364" on="1"/>
        <pt x="395" y="557" on="1"/>
      </contour>
    </TTGlyph>
    <TTGlyph name="Atilde" xMin="-130" yMin="0" xMax="1314" yMax="1970">
      <component glyphName="A" x="0" y="0" flags="0x1204"/>
      <component glyphName="tilde.cap" x="444" y="0" flags="0x1004"/>
    </TTGlyph>
    <TTGlyph name="B" xMin="30" yMin="-14" xMax="1199" yMax="1545">
      <contour>
        <pt x="520" y="-14" on="1"/>
        <pt x="265" y="0" on="1"/>
        <pt x="30" y="0" on="1"/>
        <pt x="39" y="86" on="1"/>
        <pt x="187" y="116" on="1"/>
        <pt x="348" y="1406" on="1"/>
        <pt x="215" y="1429" on="1"/>
        <pt x="227" y="1530" on="1"/>
        <pt x="475" y="1530" on="1"/>
        <pt x="543" y="1532" on="0"/>
        <pt x="680" y="1545" on="0"/>
        <pt x="871" y="1545" on="0"/>
        <pt x="1037" y="1489" on="0"/>
        <pt x="1091" y="1444" on="1"/>
        <pt x="1198" y="1353" on="0"/>
        <pt x="1198" y="1210" on="1"/>
        <pt x="1198" y="909" on="0"/>
        <pt x="901" y="810" on="1"/>
        <pt x="1026" y="792" on="0"/>
        <pt x="1106" y="706" on="1"/>
        <pt x="1190" y="614" on="0"/>
        <pt x="1190" y="351" on="0"/>
        <pt x="1084" y="162" on="0"/>
        <pt x="991" y="102" on="1"/>
        <pt x="813" y="-14" on="0"/>
      </contour>
      <contour>
        <pt x="543" y="850" on="1"/>
        <pt x="650" y="851" on="1"/>
        <pt x="808" y="851" on="0"/>
        <pt x="902" y="932" on="1"/>
        <pt x="1002" y="1019" on="0"/>
        <pt x="1002" y="1186" on="1"/>
        <pt x="1002" y="1370" on="0"/>
        <pt x="844" y="1413" on="1"/>
        <pt x="789" y="1428" on="0"/>
        <pt x="698" y="1428" on="0"/>
        <pt x="657" y="1427" on="0"/>
        <pt x="634" y="1426" on="1"/>
        <pt x="587" y="1424" on="0"/>
        <pt x="545" y="1417" on="1"/>
        <pt x="475" y="852" on="1"/>
        <pt x="506" y="850" on="0"/>
      </contour>
      <contour>
        <pt x="563" y="107" on="1"/>
        <pt x="979" y="107" on="0"/>
        <pt x="979" y="456" on="1"/>
        <pt x="979" y="596" on="0"/>
        <pt x="837" y="725" on="0"/>
        <pt x="686" y="725" on="1"/>
        <pt x="566" y="725" on="0"/>
        <pt x="458" y="718" on="1"/>
        <pt x="385" y="128" on="1"/>
        <pt x="430" y="107" on="0"/>
      </contour>
    </TTGlyph>
    <TTGlyph name="C" xMin="92" yMin="-16" xMax="1222" yMax="1546">
      <contour>
        <pt x="829" y="5" on="0"/>
        <pt x="685" y="-16" on="0"/>
        <pt x="511" y="-16" on="0"/>
        <pt x="366" y="36" on="0"/>
        <pt x="253" y="127" on="0"/>
        <pt x="173" y="251" on="0"/>
        <pt x="146" y="322" on="1"/>
        <pt x="93" y="468" on="0"/>
        <pt x="93" y="777" on="0"/>
        <pt x="142" y="1007" on="0"/>
        <pt x="240" y="1211" on="0"/>
        <pt x="376" y="1373" on="0"/>
        <pt x="459" y="1430" on="1"/>
        <pt x="630" y="1546" on="0"/>
        <pt x="829" y="1546" on="1"/>
        <pt x="1018" y="1546" on="0"/>
        <pt x="1184" y="1500" on="1"/>
        <pt x="1222" y="1489" on="1"/>
        <pt x="1156" y="1122" on="1"/>
        <pt x="1039" y="1122" on="1"/>
        <pt x="1016" y="1382" on="1"/>
        <pt x="973" y="1415" on="0"/>
        <pt x="851" y="1428" on="0"/>
        <pt x="709" y="1428" on="0"/>
        <pt x="559" y="1354" on="0"/>
        <pt x="447" y="1230" on="0"/>
        <pt x="408" y="1150" on="1"/>
        <pt x="302" y="931" on="0"/>
        <pt x="302" y="662" on="1"/>
        <pt x="302" y="431" on="0"/>
        <pt x="382" y="276" on="1"/>
        <pt x="473" y="101" on="0"/>
        <pt x="641" y="101" on="1"/>
        <pt x="774" y="101" on="0"/>
        <pt x="862" y="158" on="1"/>
        <pt x="893" y="177" on="0"/>
        <pt x="908" y="205" on="1"/>
        <pt x="976" y="402" on="1"/>
        <pt x="1097" y="401" on="1"/>
        <pt x="1057" y="70" on="1"/>
        <pt x="1031" y="62" on="0"/>
        <pt x="945" y="33" on="0"/>
      </contour>
    </TTGlyph>
    <TTGlyph name="Cacute" xMin="92" yMin="-16" xMax="1222" yMax="2000">
      <component glyphName="C" x="0" y="0" flags="0x1004"/>
      <component glyphName="acute.cap" x="676" y="0" flags="0x1004"/>
    </TTGlyph>
    <TTGlyph name="Ccaron" xMin="92" yMin="-16" xMax="1222" yMax="2000">
      <component glyphName="C" x="0" y="0" flags="0x1004"/>
      <component glyphName="caron.cap" x="415" y="0" flags="0x1004"/>
    </TTGlyph>
    <TTGlyph name="Ccedilla" xMin="92" yMin="-462" xMax="1222" yMax="1546">
      <contour>
        <pt x="698" y="-12" on="1"/>
        <pt x="708" y="-53" on="0"/>
        <pt x="708" y="-145" on="0"/>
        <pt x="695" y="-267" on="0"/>
        <pt x="651" y="-376" on="0"/>
        <pt x="616" y="-407" on="1"/>
        <pt x="555" y="-462" on="0"/>
        <pt x="436" y="-462" on="1"/>
        <pt x="335" y="-462" on="0"/>
        <pt x="298" y="-434" on="1"/>
        <pt x="333" y="-303" on="1"/>
        <pt x="359" y="-317" on="0"/>
        <pt x="435" y="-317" on="0"/>
        <pt x="491" y="-296" on="0"/>
        <pt x="514" y="-272" on="1"/>
        <pt x="577" y="-206" on="0"/>
        <pt x="577" y="-42" on="1"/>
        <pt x="577" y="-27" on="0"/>
        <pt x="576" y="-15" on="1"/>
        <pt x="336" y="-4" on="0"/>
        <pt x="207" y="198" on="1"/>
        <pt x="93" y="377" on="0"/>
        <pt x="93" y="655" on="1"/>
        <pt x="93" y="1036" on="0"/>
        <pt x="308" y="1292" on="1"/>
        <pt x="445" y="1455" on="0"/>
        <pt x="636" y="1516" on="1"/>
        <pt x="729" y="1546" on="0"/>
        <pt x="846" y="1546" on="1"/>
        <pt x="1018" y="1546" on="0"/>
        <pt x="1184" y="1500" on="1"/>
        <pt x="1222" y="1489" on="1"/>
        <pt x="1156" y="1122" on="1"/>
        <pt x="1039" y="1122" on="1"/>
        <pt x="1016" y="1382" on="1"/>
        <pt x="973" y="1415" on="0"/>
        <pt x="851" y="1428" on="0"/>
        <pt x="709" y="1428" on="0"/>
        <pt x="559" y="1354" on="0"/>
        <pt x="447" y="1230" on="0"/>
        <pt x="408" y="1150" on="1"/>
        <pt x="302" y="931" on="0"/>
        <pt x="302" y="662" on="1"/>
        <pt x="302" y="431" on="0"/>
        <pt x="382" y="276" on="1"/>
        <pt x="473" y="101" on="0"/>
        <pt x="641" y="101" on="1"/>
        <pt x="774" y="101" on="0"/>
        <pt x="862" y="158" on="1"/>
        <pt x="893" y="177" on="0"/>
        <pt x="908" y="205" on="1"/>
        <pt x="976" y="402" on="1"/>
        <pt x="1097" y="401" on="1"/>
        <pt x="1057" y="70" on="1"/>
        <pt x="1000" y="52" on="1"/>
        <pt x="844" y="-1" on="0"/>
      </contour>
    </TTGlyph>
    <TTGlyph name="Ccircumflex" xMin="92" yMin="-16" xMax="1222" yMax="2000">
      <component glyphName="C" x="0" y="0" flags="0x1004"/>
      <component glyphName="circumflex.cap" x="415" y="0" flags="0x1004"/>
    </TTGlyph>
    <TTGlyph name="Cdotaccent" xMin="92" yMin="-16" xMax="1222" yMax="1954">
      <component glyphName="C" x="0" y="0" flags="0x1004"/>
      <component glyphName="dotaccent.cap" x="630" y="0" flags="0x1004"/>
    </TTGlyph>
    <TTGlyph name="D" xMin="29" yMin="-17" xMax="1367" yMax="1546">
      <contour>
        <pt x="38" y="86" on="1"/>
        <pt x="186" y="116" on="1"/>
        <pt x="348" y="1406" on="1"/>
        <pt x="215" y="1429" on="1"/>
        <pt x="227" y="1530" on="1"/>
        <pt x="523" y="1530" on="1"/>
        <pt x="589" y="1531" on="0"/>
        <pt x="719" y="1546" on="0"/>
        <pt x="789" y="1546" on="1"/>
        <pt x="1081" y="1546" on="0"/>
        <pt x="1228" y="1373" on="1"/>
        <pt x="1366" y="1209" on="0"/>
        <pt x="1366" y="902" on="1"/>
        <pt x="1366" y="511" on="0"/>
        <pt x="1156" y="250" on="1"/>
        <pt x="1014" y="75" on="0"/>
        <pt x="806" y="12" on="1"/>
        <pt x="711" y="-16" on="0"/>
        <pt x="605" y="-16" on="1"/>
        <pt x="578" y="-16" on="0"/>
        <pt x="561" y="-15" on="1"/>
        <pt x="499" y="-11" on="1"/>
        <pt x="484" y="-10" on="0"/>
        <pt x="455" y="-8" on="0"/>
        <pt x="405" y="-4" on="0"/>
        <pt x="377" y="-3" on="1"/>
        <pt x="322" y="-1" on="1"/>
        <pt x="295" y="0" on="0"/>
        <pt x="274" y="0" on="1"/>
        <pt x="29" y="0" on="1"/>
      </contour>
      <contour>
        <pt x="386" y="132" on="1"/>
        <pt x="435" y="114" on="0"/>
        <pt x="613" y="101" on="0"/>
        <pt x="637" y="101" on="1"/>
        <pt x="818" y="114" on="0"/>
        <pt x="945" y="239" on="1"/>
        <pt x="1163" y="453" on="0"/>
        <pt x="1163" y="891" on="1"/>
        <pt x="1163" y="1185" on="0"/>
        <pt x="1058" y="1312" on="1"/>
        <pt x="959" y="1430" on="0"/>
        <pt x="730" y="1430" on="1"/>
        <pt x="616" y="1430" on="0"/>
        <pt x="545" y="1411" on="1"/>
      </contour>
    </TTGlyph>
    <TTGlyph name="Dcaron" xMin="20" yMin="-17" xMax="1358" yMax="2000">
      <component glyphName="D" x="-9" y="0" flags="0x1004"/>
      <component glyphName="caron.cap" x="411" y="0" flags="0x1004"/>
    </TTGlyph>
    <TTGlyph name="Dcroat" xMin="19" yMin="-15" xMax="1357" yMax="1548">
      <component glyphName="Eth" x="0" y="0" flags="0x1204"/>
    </TTGlyph>
    <TTGlyph name="Delta" xMin="-33" yMin="0" xMax="1332" yMax="1508">
      <contour>
        <pt x="-33" y="22" on="1"/>
        <pt x="731" y="1508" on="1"/>
        <pt x="763" y="1508" on="1"/>
        <pt x="1332" y="27" on="1"/>
        <pt x="1315" y="0" on="1"/>
        <pt x="-21" y="0" on="1"/>
      </contour>
      <contour>
        <pt x="1075" y="119" on="1"/>
        <pt x="683" y="1187" on="1"/>
        <pt x="153" y="119" on="1"/>
      </contour>
    </TTGlyph>
    <TTGlyph name="E" xMin="28" yMin="0" xMax="1158" yMax="1530">
      <contour>
        <pt x="38" y="86" on="1"/>
        <pt x="187" y="115" on="1"/>
        <pt x="347" y="1406" on="1"/>
        <pt x="214" y="1429" on="1"/>
        <pt x="226" y="1530" on="1"/>
        <pt x="1153" y="1530" on="1"/>
        <pt x="1146" y="1220" on="1"/>
        <pt x="1040" y="1220" on="1"/>
        <pt x="992" y="1408" on="1"/>
        <pt x="551" y="1422" on="1"/>
        <pt x="479" y="854" on="1"/>
        <pt x="926" y="861" on="1"/>
        <pt x="914" y="705" on="1"/>
        <pt x="467" y="721" on="1"/>
        <pt x="384" y="116" on="1"/>
        <pt x="935" y="140" on="1"/>
        <pt x="1054" y="347" on="1"/>
        <pt x="1158" y="316" on="1"/>
        <pt x="1069" y="0" on="1"/>
        <pt x="28" y="0" on="1"/>
      </contour>
    </TTGlyph>
    <TTGlyph name="Eacute" xMin="19" yMin="0" xMax="1149" yMax="2000">
      <component glyphName="E" x="-9" y="0" flags="0x1004"/>
      <component glyphName="acute.cap" x="633" y="0" flags="0x1004"/>
    </TTGlyph>
    <TTGlyph name="Ebreve" xMin="19" yMin="0" xMax="1149" yMax="1979">
      <component glyphName="E" x="-9" y="0" flags="0x1004"/>
      <component glyphName="breve.cap" x="417" y="0" flags="0x1004"/>
    </TTGlyph>
    <TTGlyph name="Ecaron" xMin="19" yMin="0" xMax="1149" yMax="2000">
      <component glyphName="E" x="-9" y="0" flags="0x1004"/>
      <component glyphName="caron.cap" x="372" y="0" flags="0x1004"/>
    </TTGlyph>
    <TTGlyph name="Ecircumflex" xMin="19" yMin="0" xMax="1149" yMax="2000">
      <component glyphName="E" x="-9" y="0" flags="0x1004"/>
      <component glyphName="circumflex.cap" x="372" y="0" flags="0x1004"/>
    </TTGlyph>
    <TTGlyph name="Edieresis" xMin="19" yMin="0" xMax="1149" yMax="1959">
      <component glyphName="E" x="-9" y="0" flags="0x1004"/>
      <component glyphName="dieresis.cap" x="381" y="0" flags="0x1004"/>
    </TTGlyph>
    <TTGlyph name="Edotaccent" xMin="19" yMin="0" xMax="1149" yMax="1954">
      <component glyphName="E" x="-9" y="0" flags="0x1004"/>
      <component glyphName="dotaccent.cap" x="587" y="0" flags="0x1004"/>
    </TTGlyph>
    <TTGlyph name="Egrave" xMin="19" yMin="0" xMax="1149" yMax="2000">
      <component glyphName="E" x="-9" y="0" flags="0x1004"/>
      <component glyphName="grave.cap" x="393" y="0" flags="0x1004"/>
    </TTGlyph>
    <TTGlyph name="Emacron" xMin="19" yMin="0" xMax="1149" yMax="1878">
      <component glyphName="E" x="-9" y="0" flags="0x1004"/>
      <component glyphName="macron.cap" x="446" y="0" flags="0x1004"/>
    </TTGlyph>
    <TTGlyph name="Eng" xMin="33" yMin="-365" xMax="1548" yMax="1530">
      <contour>
        <pt x="41" y="86" on="1"/>
        <pt x="177" y="114" on="1"/>
        <pt x="351" y="1406" on="1"/>
        <pt x="199" y="1429" on="1"/>
        <pt x="216" y="1530" on="1"/>
        <pt x="557" y="1530" on="1"/>
        <pt x="1033" y="418" on="1"/>
        <pt x="1094" y="225" on="1"/>
        <pt x="1229" y="1407" on="1"/>
        <pt x="1089" y="1429" on="1"/>
        <pt x="1101" y="1530" on="1"/>
        <pt x="1548" y="1530" on="1"/>
        <pt x="1538" y="1429" on="1"/>
        <pt x="1392" y="1406" on="1"/>
        <pt x="1194" y="0" on="1"/>
        <pt x="1171" y="-162" on="0"/>
        <pt x="1020" y="-258" on="1"/>
        <pt x="903" y="-333" on="0"/>
        <pt x="731" y="-365" on="1"/>
        <pt x="696" y="-277" on="1"/>
        <pt x="884" y="-212" on="0"/>
        <pt x="966" y="-94" on="1"/>
        <pt x="996" y="-51" on="0"/>
        <pt x="1006" y="0" on="1"/>
        <pt x="528" y="1095" on="1"/>
        <pt x="471" y="1278" on="1"/>
        <pt x="350" y="116" on="1"/>
        <pt x="504" y="87" on="1"/>
        <pt x="496" y="0" on="1"/>
        <pt x="33" y="0" on="1"/>
      </contour>
    </TTGlyph>
    <TTGlyph name="Eogonek" xMin="18" yMin="-416" xMax="1148" yMax="1530">
      <contour>
        <pt x="1005" y="-322" on="1"/>
        <pt x="894" y="-416" on="0"/>
        <pt x="755" y="-416" on="1"/>
        <pt x="680" y="-416" on="0"/>
        <pt x="637" y="-372" on="1"/>
        <pt x="600" y="-333" on="0"/>
        <pt x="602" y="-291" on="1"/>
        <pt x="606" y="-202" on="0"/>
        <pt x="667" y="-125" on="0"/>
        <pt x="716" y="-79" on="0"/>
        <pt x="766" y="-43" on="0"/>
        <pt x="791" y="-28" on="1"/>
        <pt x="840" y="0" on="1"/>
        <pt x="18" y="0" on="1"/>
        <pt x="28" y="86" on="1"/>
        <pt x="177" y="115" on="1"/>
        <pt x="337" y="1406" on="1"/>
        <pt x="204" y="1429" on="1"/>
        <pt x="216" y="1530" on="1"/>
        <pt x="1143" y="1530" on="1"/>
        <pt x="1136" y="1220" on="1"/>
        <pt x="1030" y="1220" on="1"/>
        <pt x="982" y="1408" on="1"/>
        <pt x="541" y="1422" on="1"/>
        <pt x="469" y="854" on="1"/>
        <pt x="916" y="861" on="1"/>
        <pt x="904" y="705" on="1"/>
        <pt x="457" y="721" on="1"/>
        <pt x="374" y="116" on="1"/>
        <pt x="925" y="140" on="1"/>
        <pt x="1044" y="347" on="1"/>
        <pt x="1148" y="316" on="1"/>
        <pt x="1059" y="0" on="1"/>
        <pt x="956" y="0" on="1"/>
        <pt x="888" y="-55" on="0"/>
        <pt x="797" y="-154" on="0"/>
        <pt x="796" y="-201" on="1"/>
        <pt x="791" y="-264" on="0"/>
        <pt x="830" y="-282" on="1"/>
        <pt x="840" y="-287" on="0"/>
        <pt x="849" y="-287" on="1"/>
        <pt x="904" y="-287" on="0"/>
        <pt x="979" y="-228" on="1"/>
      </contour>
    </TTGlyph>
    <TTGlyph name="Eth" xMin="19" yMin="-15" xMax="1357" yMax="1548">
      <contour>
        <pt x="28" y="88" on="1"/>
        <pt x="176" y="118" on="1"/>
        <pt x="252" y="722" on="1"/>
        <pt x="102" y="722" on="1"/>
        <pt x="118" y="852" on="1"/>
        <pt x="268" y="852" on="1"/>
        <pt x="338" y="1408" on="1"/>
        <pt x="205" y="1431" on="1"/>
        <pt x="217" y="1532" on="1"/>
        <pt x="513" y="1532" on="1"/>
        <pt x="579" y="1533" on="0"/>
        <pt x="709" y="1548" on="0"/>
        <pt x="779" y="1548" on="1"/>
        <pt x="1071" y="1548" on="0"/>
        <pt x="1218" y="1375" on="1"/>
        <pt x="1356" y="1211" on="0"/>
        <pt x="1356" y="904" on="1"/>
        <pt x="1356" y="513" on="0"/>
        <pt x="1146" y="252" on="1"/>
        <pt x="1004" y="77" on="0"/>
        <pt x="796" y="14" on="1"/>
        <pt x="701" y="-14" on="0"/>
        <pt x="595" y="-14" on="1"/>
        <pt x="568" y="-14" on="0"/>
        <pt x="551" y="-13" on="1"/>
        <pt x="489" y="-9" on="1"/>
        <pt x="474" y="-8" on="0"/>
        <pt x="445" y="-6" on="0"/>
        <pt x="395" y="-2" on="0"/>
        <pt x="367" y="-1" on="1"/>
        <pt x="312" y="1" on="1"/>
        <pt x="285" y="2" on="0"/>
        <pt x="264" y="2" on="1"/>
        <pt x="19" y="2" on="1"/>
      </contour>
      <contour>
        <pt x="376" y="134" on="1"/>
        <pt x="425" y="116" on="0"/>
        <pt x="603" y="103" on="0"/>
        <pt x="627" y="103" on="1"/>
        <pt x="808" y="116" on="0"/>
        <pt x="935" y="241" on="1"/>
        <pt x="1153" y="455" on="0"/>
        <pt x="1153" y="893" on="1"/>
        <pt x="1153" y="1187" on="0"/>
        <pt x="1048" y="1314" on="1"/>
        <pt x="949" y="1432" on="0"/>
        <pt x="720" y="1432" on="1"/>
        <pt x="606" y="1432" on="0"/>
        <pt x="535" y="1413" on="1"/>
        <pt x="465" y="852" on="1"/>
        <pt x="857" y="852" on="1"/>
        <pt x="841" y="722" on="1"/>
        <pt x="449" y="722" on="1"/>
      </contour>
    </TTGlyph>
    <TTGlyph name="Euro" xMin="26" yMin="24" xMax="1315" yMax="1546">
      <contour>
        <pt x="40" y="695" on="1"/>
        <pt x="224" y="695" on="1"/>
        <pt x="227" y="797" on="0"/>
        <pt x="247" y="894" on="1"/>
        <pt x="88" y="894" on="1"/>
        <pt x="107" y="1024" on="1"/>
        <pt x="283" y="1024" on="1"/>
        <pt x="367" y="1265" on="0"/>
        <pt x="543" y="1406" on="1"/>
        <pt x="717" y="1546" on="0"/>
        <pt x="929" y="1546" on="1"/>
        <pt x="1072" y="1546" on="0"/>
        <pt x="1186" y="1510" on="1"/>
        <pt x="1243" y="1492" on="1"/>
        <pt x="1282" y="1481" on="1"/>
        <pt x="1302" y="1475" on="0"/>
        <pt x="1315" y="1472" on="1"/>
        <pt x="1262" y="1254" on="1"/>
        <pt x="1154" y="1254" on="1"/>
        <pt x="1125" y="1358" on="1"/>
        <pt x="1060" y="1428" on="0"/>
        <pt x="875" y="1428" on="1"/>
        <pt x="654" y="1428" on="0"/>
        <pt x="535" y="1193" on="1"/>
        <pt x="497" y="1118" on="0"/>
        <pt x="472" y="1024" on="1"/>
        <pt x="1045" y="1024" on="1"/>
        <pt x="1025" y="894" on="1"/>
        <pt x="444" y="894" on="1"/>
        <pt x="429" y="791" on="0"/>
        <pt x="425" y="695" on="1"/>
        <pt x="978" y="695" on="1"/>
        <pt x="965" y="564" on="1"/>
        <pt x="424" y="564" on="1"/>
        <pt x="434" y="228" on="0"/>
        <pt x="592" y="134" on="1"/>
        <pt x="646" y="101" on="0"/>
        <pt x="761" y="101" on="0"/>
        <pt x="846" y="113" on="0"/>
        <pt x="885" y="126" on="1"/>
        <pt x="971" y="153" on="0"/>
        <pt x="1006" y="205" on="1"/>
        <pt x="1074" y="340" on="1"/>
        <pt x="1194" y="339" on="1"/>
        <pt x="1148" y="70" on="1"/>
        <pt x="1105" y="67" on="0"/>
        <pt x="1048" y="51" on="1"/>
        <pt x="956" y="24" on="1"/>
        <pt x="657" y="-64" on="0"/>
        <pt x="490" y="34" on="1"/>
        <pt x="255" y="172" on="0"/>
        <pt x="226" y="564" on="1"/>
        <pt x="26" y="564" on="1"/>
      </contour>
    </TTGlyph>
    <TTGlyph name="F" xMin="30" yMin="0" xMax="1196" yMax="1530">
      <contour>
        <pt x="38" y="87" on="1"/>
        <pt x="187" y="116" on="1"/>
        <pt x="347" y="1406" on="1"/>
        <pt x="214" y="1429" on="1"/>
        <pt x="226" y="1530" on="1"/>
        <pt x="1196" y="1530" on="1"/>
        <pt x="1173" y="1220" on="1"/>
        <pt x="1052" y="1220" on="1"/>
        <pt x="1023" y="1402" on="1"/>
        <pt x="547" y="1421" on="1"/>
        <pt x="479" y="854" on="1"/>
        <pt x="949" y="862" on="1"/>
        <pt x="937" y="704" on="1"/>
        <pt x="467" y="721" on="1"/>
        <pt x="385" y="118" on="1"/>
        <pt x="654" y="87" on="1"/>
        <pt x="646" y="0" on="1"/>
        <pt x="30" y="0" on="1"/>
      </contour>
    </TTGlyph>
    <TTGlyph name="G" xMin="101" yMin="-16" xMax="1277" yMax="1546">
      <contour>
        <pt x="586" y="-16" on="1"/>
        <pt x="512" y="-16" on="0"/>
        <pt x="370" y="36" on="0"/>
        <pt x="260" y="127" on="0"/>
        <pt x="181" y="251" on="0"/>
        <pt x="155" y="322" on="1"/>
        <pt x="102" y="469" on="0"/>
        <pt x="102" y="777" on="0"/>
        <pt x="151" y="1007" on="0"/>
        <pt x="249" y="1211" on="0"/>
        <pt x="385" y="1373" on="0"/>
        <pt x="468" y="1430" on="1"/>
        <pt x="639" y="1546" on="0"/>
        <pt x="838" y="1546" on="1"/>
        <pt x="1050" y="1546" on="0"/>
        <pt x="1239" y="1490" on="1"/>
        <pt x="1277" y="1479" on="1"/>
        <pt x="1220" y="1183" on="1"/>
        <pt x="1093" y="1183" on="1"/>
        <pt x="1071" y="1364" on="1"/>
        <pt x="997" y="1428" on="0"/>
        <pt x="814" y="1428" on="1"/>
        <pt x="635" y="1428" on="0"/>
        <pt x="512" y="1292" on="1"/>
        <pt x="407" y="1177" on="0"/>
        <pt x="353" y="982" on="1"/>
        <pt x="310" y="827" on="0"/>
        <pt x="310" y="662" on="1"/>
        <pt x="310" y="432" on="0"/>
        <pt x="393" y="276" on="1"/>
        <pt x="487" y="101" on="0"/>
        <pt x="660" y="101" on="1"/>
        <pt x="861" y="101" on="0"/>
        <pt x="952" y="195" on="1"/>
        <pt x="1009" y="590" on="1"/>
        <pt x="775" y="607" on="1"/>
        <pt x="788" y="723" on="1"/>
        <pt x="1230" y="723" on="1"/>
        <pt x="1140" y="94" on="1"/>
        <pt x="1111" y="91" on="0"/>
        <pt x="1082" y="82" on="1"/>
        <pt x="928" y="36" on="1"/>
        <pt x="748" y="-16" on="0"/>
      </contour>
    </TTGlyph>
    <TTGlyph name="Gbreve" xMin="101" yMin="-16" xMax="1277" yMax="1979">
      <component glyphName="G" x="0" y="0" flags="0x1204"/>
      <component glyphName="breve.cap" x="493" y="0" flags="0x1004"/>
    </TTGlyph>
    <TTGlyph name="Gcircumflex" xMin="101" yMin="-16" xMax="1277" yMax="2000">
      <component glyphName="G" x="0" y="0" flags="0x1204"/>
      <component glyphName="circumflex.cap" x="448" y="0" flags="0x1004"/>
    </TTGlyph>
    <TTGlyph name="Gcommaaccent" xMin="101" yMin="-560" xMax="1277" yMax="1546">
      <component glyphName="G" x="0" y="0" flags="0x1204"/>
      <component glyphName="commaaccent" x="483" y="0" flags="0x1004"/>
    </TTGlyph>
    <TTGlyph name="Gdotaccent" xMin="101" yMin="-16" xMax="1277" yMax="1954">
      <component glyphName="G" x="0" y="0" flags="0x1204"/>
      <component glyphName="dotaccent.cap" x="663" y="0" flags="0x1004"/>
    </TTGlyph>
    <TTGlyph name="H" xMin="30" yMin="0" xMax="1547" yMax="1530">
      <contour>
        <pt x="39" y="86" on="1"/>
        <pt x="187" y="116" on="1"/>
        <pt x="348" y="1406" on="1"/>
        <pt x="215" y="1429" on="1"/>
        <pt x="227" y="1530" on="1"/>
        <pt x="710" y="1530" on="1"/>
        <pt x="699" y="1429" on="1"/>
        <pt x="546" y="1406" on="1"/>
        <pt x="475" y="844" on="1"/>
        <pt x="1130" y="844" on="1"/>
        <pt x="1200" y="1406" on="1"/>
        <pt x="1050" y="1429" on="1"/>
        <pt x="1060" y="1530" on="1"/>
        <pt x="1547" y="1530" on="1"/>
        <pt x="1535" y="1429" on="1"/>
        <pt x="1397" y="1406" on="1"/>
        <pt x="1237" y="117" on="1"/>
        <pt x="1388" y="86" on="1"/>
        <pt x="1379" y="0" on="1"/>
        <pt x="869" y="0" on="1"/>
        <pt x="877" y="87" on="1"/>
        <pt x="1040" y="117" on="1"/>
        <pt x="1114" y="714" on="1"/>
        <pt x="459" y="714" on="1"/>
        <pt x="385" y="116" on="1"/>
        <pt x="542" y="87" on="1"/>
        <pt x="534" y="0" on="1"/>
        <pt x="30" y="0" on="1"/>
      </contour>
    </TTGlyph>
    <TTGlyph name="Hbar" xMin="20" yMin="0" xMax="1555" yMax="1530">
      <contour>
        <pt x="29" y="86" on="1"/>
        <pt x="177" y="116" on="1"/>
        <pt x="286" y="992" on="1"/>
        <pt x="92" y="992" on="1"/>
        <pt x="106" y="1122" on="1"/>
        <pt x="302" y="1122" on="1"/>
        <pt x="338" y="1406" on="1"/>
        <pt x="205" y="1429" on="1"/>
        <pt x="217" y="1530" on="1"/>
        <pt x="700" y="1530" on="1"/>
        <pt x="689" y="1429" on="1"/>
        <pt x="536" y="1406" on="1"/>
        <pt x="500" y="1122" on="1"/>
        <pt x="1154" y="1122" on="1"/>
        <pt x="1190" y="1406" on="1"/>
        <pt x="1040" y="1429" on="1"/>
        <pt x="1050" y="1530" on="1"/>
        <pt x="1537" y="1530" on="1"/>
        <pt x="1525" y="1429" on="1"/>
        <pt x="1387" y="1406" on="1"/>
        <pt x="1351" y="1122" on="1"/>
        <pt x="1555" y="1122" on="1"/>
        <pt x="1541" y="992" on="1"/>
        <pt x="1335" y="992" on="1"/>
        <pt x="1227" y="117" on="1"/>
        <pt x="1378" y="86" on="1"/>
        <pt x="1369" y="0" on="1"/>
        <pt x="859" y="0" on="1"/>
        <pt x="867" y="87" on="1"/>
        <pt x="1030" y="117" on="1"/>
        <pt x="1092" y="622" on="1"/>
        <pt x="438" y="622" on="1"/>
        <pt x="375" y="116" on="1"/>
        <pt x="532" y="87" on="1"/>
        <pt x="524" y="0" on="1"/>
        <pt x="20" y="0" on="1"/>
      </contour>
      <contour>
        <pt x="1108" y="752" on="1"/>
        <pt x="1138" y="992" on="1"/>
        <pt x="484" y="992" on="1"/>
        <pt x="454" y="752" on="1"/>
      </contour>
    </TTGlyph>
    <TTGlyph name="Hcircumflex" xMin="30" yMin="0" xMax="1547" yMax="2000">
      <component glyphName="H" x="0" y="0" flags="0x1204"/>
      <component glyphName="circumflex.cap" x="501" y="0" flags="0x1004"/>
    </TTGlyph>
    <TTGlyph name="I" xMin="30" yMin="0" xMax="710" yMax="1530">
      <contour>
        <pt x="39" y="86" on="1"/>
        <pt x="187" y="116" on="1"/>
        <pt x="348" y="1406" on="1"/>
        <pt x="215" y="1429" on="1"/>
        <pt x="227" y="1530" on="1"/>
        <pt x="710" y="1530" on="1"/>
        <pt x="699" y="1429" on="1"/>
        <pt x="546" y="1406" on="1"/>
        <pt x="385" y="116" on="1"/>
        <pt x="542" y="87" on="1"/>
        <pt x="534" y="0" on="1"/>
        <pt x="30" y="0" on="1"/>
      </contour>
    </TTGlyph>
    <TTGlyph name="IJ" xMin="30" yMin="-345" xMax="1431" yMax="1530">
      <component glyphName="I" x="0" y="0" flags="0x1004"/>
      <component glyphName="J" x="706" y="0" flags="0x1004"/>
    </TTGlyph>
    <TTGlyph name="Iacute" xMin="30" yMin="0" xMax="856" yMax="2000">
      <component glyphName="I" x="0" y="0" flags="0x1204"/>
      <component glyphName="acute.cap" x="379" y="0" flags="0x1004"/>
    </TTGlyph>
    <TTGlyph name="Ibreve" xMin="30" yMin="0" xMax="840" yMax="1979">
      <component glyphName="I" x="0" y="0" flags="0x1204"/>
      <component glyphName="breve.cap" x="163" y="0" flags="0x1004"/>
    </TTGlyph>
    <TTGlyph name="Icircumflex" xMin="30" yMin="0" xMax="862" yMax="2000">
      <component glyphName="I" x="0" y="0" flags="0x1204"/>
      <component glyphName="circumflex.cap" x="118" y="0" flags="0x1004"/>
    </TTGlyph>
    <TTGlyph name="Idieresis" xMin="30" yMin="0" xMax="870" yMax="1959">
      <component glyphName="I" x="0" y="0" flags="0x1204"/>
      <component glyphName="dieresis.cap" x="127" y="0" flags="0x1004"/>
    </TTGlyph>
    <TTGlyph name="Idotaccent" xMin="30" yMin="0" xMax="710" yMax="1954">
      <component glyphName="I" x="0" y="0" flags="0x1204"/>
      <component glyphName="dotaccent.cap" x="333" y="0" flags="0x1004"/>
    </TTGlyph>
    <TTGlyph name="Igrave" xMin="30" yMin="0" xMax="710" yMax="2000">
      <component glyphName="I" x="0" y="0" flags="0x1204"/>
      <component glyphName="grave.cap" x="139" y="0" flags="0x1004"/>
    </TTGlyph>
    <TTGlyph name="Imacron" xMin="30" yMin="0" xMax="756" yMax="1878">
      <component glyphName="I" x="0" y="0" flags="0x1204"/>
      <component glyphName="macron.cap" x="192" y="0" flags="0x1004"/>
    </TTGlyph>
    <TTGlyph name="Iogonek" xMin="-11" yMin="-416" xMax="710" yMax="1530">
      <contour>
        <pt x="393" y="-322" on="1"/>
        <pt x="282" y="-416" on="0"/>
        <pt x="143" y="-416" on="1"/>
        <pt x="68" y="-416" on="0"/>
        <pt x="25" y="-372" on="1"/>
        <pt x="-10" y="-335" on="0"/>
        <pt x="-10" y="-285" on="1"/>
        <pt x="-10" y="-208" on="0"/>
        <pt x="55" y="-125" on="0"/>
        <pt x="104" y="-79" on="0"/>
        <pt x="154" y="-43" on="0"/>
        <pt x="179" y="-28" on="1"/>
        <pt x="228" y="0" on="1"/>
        <pt x="30" y="0" on="1"/>
        <pt x="39" y="86" on="1"/>
        <pt x="187" y="116" on="1"/>
        <pt x="348" y="1406" on="1"/>
        <pt x="215" y="1429" on="1"/>
        <pt x="227" y="1530" on="1"/>
        <pt x="710" y="1530" on="1"/>
        <pt x="699" y="1429" on="1"/>
        <pt x="546" y="1406" on="1"/>
        <pt x="385" y="116" on="1"/>
        <pt x="542" y="87" on="1"/>
        <pt x="534" y="0" on="1"/>
        <pt x="344" y="0" on="1"/>
        <pt x="276" y="-55" on="0"/>
        <pt x="185" y="-154" on="0"/>
        <pt x="184" y="-201" on="1"/>
        <pt x="179" y="-264" on="0"/>
        <pt x="218" y="-282" on="1"/>
        <pt x="228" y="-287" on="0"/>
        <pt x="237" y="-287" on="1"/>
        <pt x="292" y="-287" on="0"/>
        <pt x="367" y="-228" on="1"/>
      </contour>
    </TTGlyph>
    <TTGlyph name="Itilde" xMin="30" yMin="0" xMax="893" yMax="1970">
      <component glyphName="I" x="0" y="0" flags="0x1204"/>
      <component glyphName="tilde.cap" x="127" y="0" flags="0x1004"/>
    </TTGlyph>
    <TTGlyph name="J" xMin="-150" yMin="-345" xMax="725" yMax="1530">
      <contour>
        <pt x="207" y="86" on="1"/>
        <pt x="259" y="322" on="0"/>
        <pt x="318" y="900" on="0"/>
        <pt x="349" y="1244" on="0"/>
        <pt x="368" y="1407" on="1"/>
        <pt x="227" y="1429" on="1"/>
        <pt x="241" y="1530" on="1"/>
        <pt x="725" y="1530" on="1"/>
        <pt x="714" y="1429" on="1"/>
        <pt x="559" y="1408" on="1"/>
        <pt x="456" y="444" on="0"/>
        <pt x="411" y="111" on="0"/>
        <pt x="399" y="75" on="1"/>
        <pt x="340" y="-113" on="0"/>
        <pt x="186" y="-224" on="1"/>
        <pt x="59" y="-315" on="0"/>
        <pt x="-115" y="-345" on="1"/>
        <pt x="-150" y="-257" on="1"/>
        <pt x="-22" y="-221" on="0"/>
        <pt x="84" y="-115" on="1"/>
        <pt x="184" y="-17" on="0"/>
      </contour>
    </TTGlyph>
    <TTGlyph name="Jcircumflex" xMin="-150" yMin="-345" xMax="864" yMax="2000">
      <component glyphName="J" x="0" y="0" flags="0x1204"/>
      <component glyphName="circumflex.cap" x="120" y="0" flags="0x1004"/>
    </TTGlyph>
    <TTGlyph name="K" xMin="30" yMin="0" xMax="1395" yMax="1530">
      <contour>
        <pt x="39" y="86" on="1"/>
        <pt x="187" y="116" on="1"/>
        <pt x="348" y="1406" on="1"/>
        <pt x="215" y="1429" on="1"/>
        <pt x="227" y="1530" on="1"/>
        <pt x="710" y="1530" on="1"/>
        <pt x="699" y="1429" on="1"/>
        <pt x="546" y="1406" on="1"/>
        <pt x="456" y="688" on="1"/>
        <pt x="1067" y="1406" on="1"/>
        <pt x="950" y="1429" on="1"/>
        <pt x="962" y="1530" on="1"/>
        <pt x="1395" y="1530" on="1"/>
        <pt x="1384" y="1429" on="1"/>
        <pt x="1261" y="1407" on="1"/>
        <pt x="734" y="828" on="1"/>
        <pt x="734" y="828" on="0"/>
        <pt x="976" y="423" on="1"/>
        <pt x="1114" y="174" on="0"/>
        <pt x="1177" y="138" on="1"/>
        <pt x="1307" y="93" on="1"/>
        <pt x="1293" y="0" on="1"/>
        <pt x="1022" y="0" on="1"/>
        <pt x="988" y="5" on="0"/>
        <pt x="915" y="136" on="1"/>
        <pt x="658" y="618" on="1"/>
        <pt x="614" y="697" on="1"/>
        <pt x="432" y="498" on="1"/>
        <pt x="385" y="116" on="1"/>
        <pt x="542" y="87" on="1"/>
        <pt x="534" y="0" on="1"/>
        <pt x="30" y="0" on="1"/>
      </contour>
    </TTGlyph>
    <TTGlyph name="Kcommaaccent" xMin="21" yMin="-558" xMax="1386" yMax="1530">
      <component glyphName="K" x="-9" y="0" flags="0x1004"/>
      <component glyphName="commaaccent" x="501" y="2" flags="0x1004"/>
    </TTGlyph>
    <TTGlyph name="L" xMin="31" yMin="0" xMax="1106" yMax="1530">
      <contour>
        <pt x="39" y="87" on="1"/>
        <pt x="187" y="116" on="1"/>
        <pt x="348" y="1406" on="1"/>
        <pt x="215" y="1429" on="1"/>
        <pt x="227" y="1530" on="1"/>
        <pt x="745" y="1530" on="1"/>
        <pt x="734" y="1429" on="1"/>
        <pt x="546" y="1406" on="1"/>
        <pt x="385" y="116" on="1"/>
        <pt x="853" y="127" on="1"/>
        <pt x="989" y="454" on="1"/>
        <pt x="1106" y="431" on="1"/>
        <pt x="1010" y="0" on="1"/>
        <pt x="31" y="0" on="1"/>
      </contour>
    </TTGlyph>
    <TTGlyph name="Lacute" xMin="22" yMin="0" xMax="1097" yMax="2002">
      <component glyphName="L" x="-9" y="0" flags="0x1004"/>
      <component glyphName="acute.cap" x="361" y="2" flags="0x1004"/>
    </TTGlyph>
    <TTGlyph name="Lcaron" xMin="22" yMin="0" xMax="1127" yMax="1651">
      <component glyphName="L" x="-9" y="0" flags="0x1004"/>
      <component glyphName="caronvertical" x="701" y="-29" flags="0x1004"/>
    </TTGlyph>
    <TTGlyph name="Lcommaaccent" xMin="22" yMin="-558" xMax="1097" yMax="1530">
      <component glyphName="L" x="-9" y="0" flags="0x1004"/>
      <component glyphName="commaaccent" x="400" y="2" flags="0x1004"/>
    </TTGlyph>
    <TTGlyph name="Ldot" xMin="22" yMin="0" xMax="1141" yMax="1530">
      <component glyphName="L" x="-9" y="0" flags="0x1004"/>
      <component glyphName="period" x="774" y="773" flags="0x1004"/>
    </TTGlyph>
    <TTGlyph name="Lslash" xMin="21" yMin="2" xMax="1096" yMax="1532">
      <contour>
        <pt x="29" y="89" on="1"/>
        <pt x="177" y="118" on="1"/>
        <pt x="231" y="550" on="1"/>
        <pt x="71" y="483" on="1"/>
        <pt x="35" y="601" on="1"/>
        <pt x="249" y="693" on="1"/>
        <pt x="338" y="1408" on="1"/>
        <pt x="205" y="1431" on="1"/>
        <pt x="217" y="1532" on="1"/>
        <pt x="735" y="1532" on="1"/>
        <pt x="724" y="1431" on="1"/>
        <pt x="536" y="1408" on="1"/>
        <pt x="458" y="783" on="1"/>
        <pt x="860" y="957" on="1"/>
        <pt x="895" y="830" on="1"/>
        <pt x="440" y="638" on="1"/>
        <pt x="375" y="118" on="1"/>
        <pt x="843" y="129" on="1"/>
        <pt x="979" y="456" on="1"/>
        <pt x="1096" y="433" on="1"/>
        <pt x="1000" y="2" on="1"/>
        <pt x="21" y="2" on="1"/>
      </contour>
    </TTGlyph>
    <TTGlyph name="M" xMin="-53" yMin="-18" xMax="1846" yMax="1530">
      <contour>
        <pt x="-43" y="87" on="1"/>
        <pt x="117" y="116" on="1"/>
        <pt x="434" y="1406" on="1"/>
        <pt x="274" y="1429" on="1"/>
        <pt x="286" y="1530" on="1"/>
        <pt x="723" y="1530" on="1"/>
        <pt x="890" y="470" on="1"/>
        <pt x="904" y="303" on="1"/>
        <pt x="1002" y="551" on="0"/>
        <pt x="1072" y="709" on="1"/>
        <pt x="1072" y="709" on="0"/>
        <pt x="1317" y="1266" on="1"/>
        <pt x="1317" y="1266" on="0"/>
        <pt x="1430" y="1530" on="1"/>
        <pt x="1846" y="1530" on="1"/>
        <pt x="1835" y="1429" on="1"/>
        <pt x="1671" y="1406" on="1"/>
        <pt x="1646" y="117" on="1"/>
        <pt x="1799" y="87" on="1"/>
        <pt x="1790" y="0" on="1"/>
        <pt x="1265" y="0" on="1"/>
        <pt x="1274" y="87" on="1"/>
        <pt x="1449" y="115" on="1"/>
        <pt x="1485" y="1026" on="1"/>
        <pt x="1516" y="1429" on="1"/>
        <pt x="1379" y="1074" on="1"/>
        <pt x="907" y="-3" on="1"/>
        <pt x="797" y="-18" on="1"/>
        <pt x="562" y="1427" on="1"/>
        <pt x="491" y="1040" on="1"/>
        <pt x="279" y="116" on="1"/>
        <pt x="464" y="87" on="1"/>
        <pt x="455" y="0" on="1"/>
        <pt x="-53" y="0" on="1"/>
      </contour>
    </TTGlyph>
    <TTGlyph name="N" xMin="34" yMin="0" xMax="1553" yMax="1530">
      <contour>
        <pt x="42" y="86" on="1"/>
        <pt x="178" y="114" on="1"/>
        <pt x="347" y="1406" on="1"/>
        <pt x="201" y="1429" on="1"/>
        <pt x="218" y="1530" on="1"/>
        <pt x="557" y="1530" on="1"/>
        <pt x="1025" y="418" on="1"/>
        <pt x="1096" y="185" on="1"/>
        <pt x="1240" y="1407" on="1"/>
        <pt x="1090" y="1429" on="1"/>
        <pt x="1102" y="1530" on="1"/>
        <pt x="1553" y="1530" on="1"/>
        <pt x="1543" y="1429" on="1"/>
        <pt x="1397" y="1406" on="1"/>
        <pt x="1194" y="0" on="1"/>
        <pt x="1006" y="0" on="1"/>
        <pt x="533" y="1115" on="1"/>
        <pt x="472" y="1336" on="1"/>
        <pt x="345" y="116" on="1"/>
        <pt x="505" y="87" on="1"/>
        <pt x="497" y="0" on="1"/>
        <pt x="34" y="0" on="1"/>
      </contour>
    </TTGlyph>
    <TTGlyph name="Nacute" xMin="34" yMin="0" xMax="1553" yMax="2000">
      <component glyphName="N" x="0" y="0" flags="0x1204"/>
      <component glyphName="acute.cap" x="788" y="0" flags="0x1004"/>
    </TTGlyph>
    <TTGlyph name="Ncaron" xMin="34" yMin="0" xMax="1553" yMax="2000">
      <component glyphName="N" x="0" y="0" flags="0x1204"/>
      <component glyphName="caron.cap" x="527" y="0" flags="0x1004"/>
    </TTGlyph>
    <TTGlyph name="Ncommaaccent" xMin="34" yMin="-560" xMax="1553" yMax="1530">
      <component glyphName="N" x="0" y="0" flags="0x1204"/>
      <component glyphName="commaaccent" x="526" y="0" flags="0x1004"/>
    </TTGlyph>
    <TTGlyph name="Ntilde" xMin="34" yMin="0" xMax="1553" yMax="1970">
      <component glyphName="N" x="0" y="0" flags="0x1204"/>
      <component glyphName="tilde.cap" x="536" y="0" flags="0x1004"/>
    </TTGlyph>
    <TTGlyph name="O" xMin="106" yMin="-20" xMax="1307" yMax="1550">
      <contour>
        <pt x="612" y="-20" on="1"/>
        <pt x="505" y="-20" on="0"/>
        <pt x="318" y="74" on="0"/>
        <pt x="251" y="160" on="1"/>
        <pt x="107" y="345" on="0"/>
        <pt x="107" y="670" on="1"/>
        <pt x="107" y="1045" on="0"/>
        <pt x="308" y="1296" on="1"/>
        <pt x="511" y="1550" on="0"/>
        <pt x="810" y="1550" on="1"/>
        <pt x="1043" y="1550" on="0"/>
        <pt x="1178" y="1354" on="1"/>
        <pt x="1306" y="1166" on="0"/>
        <pt x="1306" y="870" on="1"/>
        <pt x="1306" y="494" on="0"/>
        <pt x="1115" y="241" on="1"/>
        <pt x="918" y="-20" on="0"/>
      </contour>
      <contour>
        <pt x="650" y="100" on="1"/>
        <pt x="746" y="100" on="0"/>
        <pt x="831" y="155" on="1"/>
        <pt x="1003" y="269" on="0"/>
        <pt x="1074" y="550" on="1"/>
        <pt x="1105" y="678" on="0"/>
        <pt x="1105" y="828" on="1"/>
        <pt x="1105" y="1268" on="0"/>
        <pt x="916" y="1387" on="1"/>
        <pt x="855" y="1425" on="0"/>
        <pt x="678" y="1425" on="0"/>
        <pt x="592" y="1372" on="1"/>
        <pt x="417" y="1266" on="0"/>
        <pt x="344" y="1006" on="1"/>
        <pt x="311" y="889" on="0"/>
        <pt x="311" y="753" on="1"/>
        <pt x="311" y="100" on="0"/>
      </contour>
    </TTGlyph>
    <TTGlyph name="OE" xMin="101" yMin="-20" xMax="2067" yMax="1547">
      <contour>
        <pt x="598" y="-20" on="1"/>
        <pt x="504" y="-20" on="0"/>
        <pt x="316" y="68" on="0"/>
        <pt x="248" y="150" on="1"/>
        <pt x="102" y="330" on="0"/>
        <pt x="102" y="650" on="1"/>
        <pt x="102" y="1026" on="0"/>
        <pt x="302" y="1284" on="1"/>
        <pt x="433" y="1452" on="0"/>
        <pt x="616" y="1516" on="1"/>
        <pt x="707" y="1547" on="0"/>
        <pt x="884" y="1547" on="0"/>
        <pt x="1016" y="1499" on="0"/>
        <pt x="1069" y="1456" on="1"/>
        <pt x="1171" y="1372" on="0"/>
        <pt x="1228" y="1216" on="1"/>
        <pt x="1267" y="1530" on="1"/>
        <pt x="2056" y="1530" on="1"/>
        <pt x="2049" y="1220" on="1"/>
        <pt x="1943" y="1220" on="1"/>
        <pt x="1895" y="1408" on="1"/>
        <pt x="1454" y="1422" on="1"/>
        <pt x="1382" y="854" on="1"/>
        <pt x="1819" y="861" on="1"/>
        <pt x="1807" y="705" on="1"/>
        <pt x="1370" y="721" on="1"/>
        <pt x="1287" y="116" on="1"/>
        <pt x="1844" y="140" on="1"/>
        <pt x="1963" y="347" on="1"/>
        <pt x="2067" y="316" on="1"/>
        <pt x="1978" y="0" on="1"/>
        <pt x="1076" y="0" on="1"/>
        <pt x="1108" y="262" on="1"/>
        <pt x="916" y="-20" on="0"/>
      </contour>
      <contour>
        <pt x="328" y="456" on="1"/>
        <pt x="386" y="100" on="0"/>
        <pt x="649" y="100" on="1"/>
        <pt x="745" y="100" on="0"/>
        <pt x="829" y="157" on="1"/>
        <pt x="999" y="274" on="0"/>
        <pt x="1068" y="558" on="1"/>
        <pt x="1099" y="688" on="0"/>
        <pt x="1099" y="837" on="1"/>
        <pt x="1099" y="1288" on="0"/>
        <pt x="910" y="1390" on="1"/>
        <pt x="850" y="1422" on="0"/>
        <pt x="706" y="1422" on="0"/>
        <pt x="585" y="1372" on="0"/>
        <pt x="481" y="1280" on="0"/>
        <pt x="438" y="1216" on="1"/>
        <pt x="353" y="1088" on="0"/>
        <pt x="320" y="900" on="1"/>
        <pt x="306" y="819" on="0"/>
        <pt x="306" y="770" on="1"/>
        <pt x="306" y="589" on="0"/>
      </contour>
    </TTGlyph>
    <TTGlyph name="Oacute" xMin="106" yMin="-20" xMax="1307" yMax="2000">
      <component glyphName="O" x="0" y="0" flags="0x1204"/>
      <component glyphName="acute.cap" x="710" y="0" flags="0x1004"/>
    </TTGlyph>
    <TTGlyph name="Obreve" xMin="106" yMin="-20" xMax="1307" yMax="1979">
      <component glyphName="O" x="0" y="0" flags="0x1204"/>
      <component glyphName="breve.cap" x="494" y="0" flags="0x1004"/>
    </TTGlyph>
    <TTGlyph name="Ocircumflex" xMin="106" yMin="-20" xMax="1307" yMax="2000">
      <component glyphName="O" x="0" y="0" flags="0x1204"/>
      <component glyphName="circumflex.cap" x="449" y="0" flags="0x1004"/>
    </TTGlyph>
    <TTGlyph name="Odieresis" xMin="106" yMin="-20" xMax="1307" yMax="1959">
      <component glyphName="O" x="0" y="0" flags="0x1204"/>
      <component glyphName="dieresis.cap" x="458" y="0" flags="0x1004"/>
    </TTGlyph>
    <TTGlyph name="Ograve" xMin="106" yMin="-20" xMax="1307" yMax="2000">
      <component glyphName="O" x="0" y="0" flags="0x1204"/>
      <component glyphName="grave.cap" x="470" y="0" flags="0x1004"/>
    </TTGlyph>
    <TTGlyph name="Ohungarumlaut" xMin="106" yMin="-20" xMax="1416" yMax="2000">
      <component glyphName="O" x="0" y="0" flags="0x1204"/>
      <component glyphName="hungarumlaut.cap" x="494" y="0" flags="0x1004"/>
    </TTGlyph>
    <TTGlyph name="Omacron" xMin="106" yMin="-20" xMax="1307" yMax="1878">
      <component glyphName="O" x="0" y="0" flags="0x1204"/>
      <component glyphName="macron.cap" x="523" y="0" flags="0x1004"/>
    </TTGlyph>
    <TTGlyph name="Omega" xMin="-16" yMin="0" xMax="1622" yMax="1545">
      <contour>
        <pt x="4" y="359" on="1"/>
        <pt x="104" y="366" on="1"/>
        <pt x="130" y="151" on="1"/>
        <pt x="464" y="151" on="1"/>
        <pt x="339" y="244" on="0"/>
        <pt x="243" y="440" on="1"/>
        <pt x="156" y="619" on="0"/>
        <pt x="156" y="795" on="1"/>
        <pt x="156" y="935" on="0"/>
        <pt x="243" y="1162" on="0"/>
        <pt x="353" y="1315" on="0"/>
        <pt x="495" y="1430" on="0"/>
        <pt x="576" y="1468" on="1"/>
        <pt x="738" y="1545" on="0"/>
        <pt x="1069" y="1545" on="0"/>
        <pt x="1188" y="1502" on="1"/>
        <pt x="1433" y="1415" on="0"/>
        <pt x="1510" y="1172" on="1"/>
        <pt x="1536" y="1090" on="0"/>
        <pt x="1536" y="944" on="0"/>
        <pt x="1524" y="833" on="0"/>
        <pt x="1484" y="700" on="0"/>
        <pt x="1423" y="564" on="0"/>
        <pt x="1344" y="430" on="0"/>
        <pt x="1298" y="369" on="1"/>
        <pt x="1202" y="239" on="0"/>
        <pt x="1104" y="161" on="1"/>
        <pt x="1434" y="161" on="1"/>
        <pt x="1524" y="397" on="1"/>
        <pt x="1622" y="390" on="1"/>
        <pt x="1553" y="0" on="1"/>
        <pt x="927" y="0" on="1"/>
        <pt x="907" y="129" on="1"/>
        <pt x="1067" y="230" on="0"/>
        <pt x="1182" y="430" on="1"/>
        <pt x="1328" y="684" on="0"/>
        <pt x="1328" y="975" on="1"/>
        <pt x="1328" y="1187" on="0"/>
        <pt x="1214" y="1309" on="1"/>
        <pt x="1099" y="1433" on="0"/>
        <pt x="899" y="1433" on="1"/>
        <pt x="552" y="1433" on="0"/>
        <pt x="422" y="1121" on="1"/>
        <pt x="360" y="973" on="0"/>
        <pt x="360" y="779" on="1"/>
        <pt x="360" y="583" on="0"/>
        <pt x="444" y="400" on="1"/>
        <pt x="532" y="209" on="0"/>
        <pt x="653" y="129" on="1"/>
        <pt x="613" y="0" on="1"/>
        <pt x="-16" y="0" on="1"/>
      </contour>
    </TTGlyph>
    <TTGlyph name="Oslash" xMin="57" yMin="-132" xMax="1313" yMax="1670">
      <contour>
        <pt x="619" y="-18" on="1"/>
        <pt x="432" y="-18" on="0"/>
        <pt x="303" y="105" on="1"/>
        <pt x="146" y="-132" on="1"/>
        <pt x="57" y="-83" on="1"/>
        <pt x="235" y="184" on="1"/>
        <pt x="107" y="368" on="0"/>
        <pt x="107" y="672" on="1"/>
        <pt x="107" y="1047" on="0"/>
        <pt x="308" y="1298" on="1"/>
        <pt x="511" y="1552" on="0"/>
        <pt x="810" y="1552" on="1"/>
        <pt x="968" y="1552" on="0"/>
        <pt x="1083" y="1458" on="1"/>
        <pt x="1224" y="1670" on="1"/>
        <pt x="1313" y="1621" on="1"/>
        <pt x="1156" y="1384" on="1"/>
        <pt x="1306" y="1195" on="0"/>
        <pt x="1306" y="872" on="1"/>
        <pt x="1306" y="496" on="0"/>
        <pt x="1115" y="243" on="1"/>
        <pt x="989" y="76" on="0"/>
        <pt x="808" y="14" on="1"/>
        <pt x="718" y="-18" on="0"/>
      </contour>
      <contour>
        <pt x="985" y="1327" on="1"/>
        <pt x="905" y="1427" on="0"/>
        <pt x="776" y="1427" on="1"/>
        <pt x="678" y="1427" on="0"/>
        <pt x="592" y="1374" on="1"/>
        <pt x="417" y="1268" on="0"/>
        <pt x="344" y="1008" on="1"/>
        <pt x="311" y="891" on="0"/>
        <pt x="311" y="755" on="1"/>
        <pt x="311" y="509" on="0"/>
        <pt x="360" y="351" on="1"/>
      </contour>
      <contour>
        <pt x="408" y="240" on="1"/>
        <pt x="492" y="102" on="0"/>
        <pt x="650" y="102" on="1"/>
        <pt x="746" y="102" on="0"/>
        <pt x="831" y="157" on="1"/>
        <pt x="1003" y="271" on="0"/>
        <pt x="1074" y="552" on="1"/>
        <pt x="1105" y="680" on="0"/>
        <pt x="1105" y="830" on="1"/>
        <pt x="1105" y="1074" on="0"/>
        <pt x="1042" y="1228" on="1"/>
      </contour>
    </TTGlyph>
    <TTGlyph name="Otilde" xMin="106" yMin="-20" xMax="1307" yMax="1970">
      <component glyphName="O" x="0" y="0" flags="0x1204"/>
      <component glyphName="tilde.cap" x="458" y="0" flags="0x1004"/>
    </TTGlyph>
    <TTGlyph name="P" xMin="30" yMin="0" xMax="1223" yMax="1547">
      <contour>
        <pt x="608" y="544" on="1"/>
        <pt x="531" y="544" on="1"/>
        <pt x="488" y="544" on="0"/>
        <pt x="436" y="548" on="1"/>
        <pt x="385" y="116" on="1"/>
        <pt x="581" y="87" on="1"/>
        <pt x="573" y="0" on="1"/>
        <pt x="30" y="0" on="1"/>
        <pt x="39" y="86" on="1"/>
        <pt x="187" y="116" on="1"/>
        <pt x="348" y="1406" on="1"/>
        <pt x="215" y="1429" on="1"/>
        <pt x="227" y="1530" on="1"/>
        <pt x="480" y="1530" on="1"/>
        <pt x="765" y="1547" on="1"/>
        <pt x="1216" y="1547" on="0"/>
        <pt x="1222" y="1157" on="1"/>
        <pt x="1222" y="1149" on="0"/>
        <pt x="1222" y="1140" on="1"/>
        <pt x="1222" y="869" on="0"/>
        <pt x="1042" y="703" on="1"/>
        <pt x="870" y="544" on="0"/>
      </contour>
      <contour>
        <pt x="451" y="678" on="1"/>
        <pt x="911" y="600" on="0"/>
        <pt x="991" y="937" on="1"/>
        <pt x="1014" y="1034" on="0"/>
        <pt x="1014" y="1213" on="0"/>
        <pt x="1003" y="1266" on="1"/>
        <pt x="967" y="1428" on="0"/>
        <pt x="756" y="1428" on="1"/>
        <pt x="658" y="1428" on="0"/>
        <pt x="546" y="1407" on="1"/>
      </contour>
    </TTGlyph>
    <TTGlyph name="Q" xMin="101" yMin="-358" xMax="1302" yMax="1552">
      <contour>
        <pt x="995" y="-181" on="1"/>
        <pt x="1107" y="-181" on="0"/>
        <pt x="1202" y="-138" on="1"/>
        <pt x="1204" y="-274" on="1"/>
        <pt x="1140" y="-327" on="0"/>
        <pt x="1010" y="-350" on="1"/>
        <pt x="968" y="-358" on="0"/>
        <pt x="858" y="-358" on="0"/>
        <pt x="792" y="-337" on="1"/>
        <pt x="651" y="-293" on="0"/>
        <pt x="598" y="-168" on="1"/>
        <pt x="577" y="-121" on="0"/>
        <pt x="577" y="-40" on="0"/>
        <pt x="580" y="-17" on="1"/>
        <pt x="364" y="-3" on="0"/>
        <pt x="236" y="175" on="1"/>
        <pt x="102" y="361" on="0"/>
        <pt x="102" y="672" on="1"/>
        <pt x="102" y="1047" on="0"/>
        <pt x="302" y="1298" on="1"/>
        <pt x="506" y="1552" on="0"/>
        <pt x="805" y="1552" on="1"/>
        <pt x="1038" y="1552" on="0"/>
        <pt x="1173" y="1356" on="1"/>
        <pt x="1301" y="1168" on="0"/>
        <pt x="1301" y="871" on="1"/>
        <pt x="1301" y="529" on="0"/>
        <pt x="1140" y="284" on="1"/>
        <pt x="1061" y="165" on="0"/>
        <pt x="841" y="11" on="0"/>
        <pt x="710" y="-10" on="1"/>
        <pt x="720" y="-159" on="0"/>
        <pt x="905" y="-176" on="1"/>
        <pt x="953" y="-181" on="0"/>
      </contour>
      <contour>
        <pt x="645" y="102" on="1"/>
        <pt x="741" y="102" on="0"/>
        <pt x="826" y="157" on="1"/>
        <pt x="998" y="271" on="0"/>
        <pt x="1068" y="552" on="1"/>
        <pt x="1100" y="680" on="0"/>
        <pt x="1100" y="830" on="1"/>
        <pt x="1100" y="1270" on="0"/>
        <pt x="910" y="1389" on="1"/>
        <pt x="850" y="1427" on="0"/>
        <pt x="673" y="1427" on="0"/>
        <pt x="587" y="1374" on="1"/>
        <pt x="412" y="1268" on="0"/>
        <pt x="339" y="1008" on="1"/>
        <pt x="306" y="891" on="0"/>
        <pt x="306" y="755" on="1"/>
        <pt x="306" y="102" on="0"/>
      </contour>
    </TTGlyph>
    <TTGlyph name="R" xMin="50" yMin="-1" xMax="1288" yMax="1546">
      <contour>
        <pt x="630" y="672" on="1"/>
        <pt x="549" y="670" on="1"/>
        <pt x="440" y="670" on="1"/>
        <pt x="377" y="116" on="1"/>
        <pt x="562" y="87" on="1"/>
        <pt x="554" y="0" on="1"/>
        <pt x="50" y="0" on="1"/>
        <pt x="59" y="86" on="1"/>
        <pt x="187" y="116" on="1"/>
        <pt x="348" y="1406" on="1"/>
        <pt x="215" y="1429" on="1"/>
        <pt x="227" y="1530" on="1"/>
        <pt x="413" y="1530" on="1"/>
        <pt x="712" y="1546" on="1"/>
        <pt x="964" y="1546" on="0"/>
        <pt x="1086" y="1460" on="1"/>
        <pt x="1212" y="1371" on="0"/>
        <pt x="1212" y="1184" on="1"/>
        <pt x="1212" y="1010" on="0"/>
        <pt x="1117" y="881" on="1"/>
        <pt x="1016" y="745" on="0"/>
        <pt x="835" y="695" on="1"/>
        <pt x="930" y="634" on="0"/>
        <pt x="998" y="448" on="1"/>
        <pt x="1075" y="236" on="0"/>
        <pt x="1161" y="126" on="0"/>
        <pt x="1232" y="98" on="0"/>
        <pt x="1282" y="98" on="0"/>
        <pt x="1288" y="98" on="1"/>
        <pt x="1284" y="-1" on="1"/>
        <pt x="1058" y="1" on="1"/>
        <pt x="1003" y="1" on="0"/>
        <pt x="928" y="160" on="1"/>
        <pt x="901" y="219" on="0"/>
        <pt x="871" y="296" on="1"/>
        <pt x="815" y="440" on="1"/>
        <pt x="726" y="672" on="0"/>
      </contour>
      <contour>
        <pt x="455" y="789" on="1"/>
        <pt x="527" y="785" on="0"/>
        <pt x="592" y="785" on="1"/>
        <pt x="749" y="785" on="0"/>
        <pt x="821" y="818" on="1"/>
        <pt x="1013" y="907" on="0"/>
        <pt x="1013" y="1163" on="1"/>
        <pt x="1013" y="1305" on="0"/>
        <pt x="949" y="1362" on="1"/>
        <pt x="877" y="1427" on="0"/>
        <pt x="696" y="1427" on="1"/>
        <pt x="639" y="1427" on="0"/>
        <pt x="538" y="1408" on="1"/>
      </contour>
    </TTGlyph>
    <TTGlyph name="Racute" xMin="41" yMin="-1" xMax="1279" yMax="2000">
      <component glyphName="R" x="-9" y="0" flags="0x1004"/>
      <component glyphName="acute.cap" x="686" y="0" flags="0x1004"/>
    </TTGlyph>
    <TTGlyph name="Rcaron" xMin="41" yMin="-1" xMax="1279" yMax="2000">
      <component glyphName="R" x="-9" y="0" flags="0x1004"/>
      <component glyphName="caron.cap" x="425" y="0" flags="0x1004"/>
    </TTGlyph>
    <TTGlyph name="Rcommaaccent" xMin="41" yMin="-560" xMax="1279" yMax="1546">
      <component glyphName="R" x="-9" y="0" flags="0x1004"/>
      <component glyphName="commaaccent" x="513" y="0" flags="0x1004"/>
    </TTGlyph>
    <TTGlyph name="S" xMin="56" yMin="-23" xMax="1038" yMax="1550">
      <contour>
        <pt x="97" y="343" on="1"/>
        <pt x="213" y="343" on="1"/>
        <pt x="239" y="150" on="1"/>
        <pt x="322" y="92" on="0"/>
        <pt x="467" y="92" on="1"/>
        <pt x="580" y="92" on="0"/>
        <pt x="668" y="149" on="1"/>
        <pt x="783" y="223" on="0"/>
        <pt x="783" y="359" on="1"/>
        <pt x="783" y="504" on="0"/>
        <pt x="634" y="616" on="1"/>
        <pt x="588" y="651" on="0"/>
        <pt x="476" y="721" on="0"/>
        <pt x="355" y="807" on="0"/>
        <pt x="307" y="860" on="1"/>
        <pt x="196" y="981" on="0"/>
        <pt x="196" y="1133" on="1"/>
        <pt x="196" y="1319" on="0"/>
        <pt x="336" y="1436" on="1"/>
        <pt x="473" y="1550" on="0"/>
        <pt x="675" y="1550" on="1"/>
        <pt x="910" y="1550" on="0"/>
        <pt x="1038" y="1465" on="1"/>
        <pt x="992" y="1203" on="1"/>
        <pt x="886" y="1203" on="1"/>
        <pt x="858" y="1382" on="1"/>
        <pt x="788" y="1433" on="0"/>
        <pt x="658" y="1433" on="1"/>
        <pt x="487" y="1433" on="0"/>
        <pt x="421" y="1314" on="1"/>
        <pt x="393" y="1262" on="0"/>
        <pt x="393" y="1130" on="0"/>
        <pt x="430" y="1037" on="0"/>
        <pt x="466" y="996" on="1"/>
        <pt x="524" y="928" on="0"/>
        <pt x="617" y="870" on="1"/>
        <pt x="768" y="772" on="1"/>
        <pt x="981" y="629" on="0"/>
        <pt x="981" y="426" on="1"/>
        <pt x="981" y="223" on="0"/>
        <pt x="834" y="99" on="1"/>
        <pt x="689" y="-23" on="0"/>
        <pt x="461" y="-23" on="1"/>
        <pt x="263" y="-23" on="0"/>
        <pt x="114" y="36" on="1"/>
        <pt x="74" y="51" on="0"/>
        <pt x="56" y="65" on="1"/>
      </contour>
    </TTGlyph>
    <TTGlyph name="Sacute" xMin="56" yMin="-23" xMax="1058" yMax="2000">
      <component glyphName="S" x="0" y="0" flags="0x1004"/>
      <component glyphName="acute.cap" x="581" y="0" flags="0x1004"/>
    </TTGlyph>
    <TTGlyph name="Scaron" xMin="56" yMin="-23" xMax="1082" yMax="2000">
      <component glyphName="S" x="0" y="0" flags="0x1004"/>
      <component glyphName="caron.cap" x="320" y="0" flags="0x1004"/>
    </TTGlyph>
    <TTGlyph name="Scedilla" xMin="56" yMin="-464" xMax="1038" yMax="1550">
      <contour>
        <pt x="523" y="-20" on="1"/>
        <pt x="532" y="-58" on="0"/>
        <pt x="532" y="-146" on="0"/>
        <pt x="519" y="-269" on="0"/>
        <pt x="475" y="-378" on="0"/>
        <pt x="440" y="-409" on="1"/>
        <pt x="379" y="-464" on="0"/>
        <pt x="260" y="-464" on="1"/>
        <pt x="159" y="-464" on="0"/>
        <pt x="122" y="-436" on="1"/>
        <pt x="157" y="-305" on="1"/>
        <pt x="183" y="-319" on="0"/>
        <pt x="259" y="-319" on="0"/>
        <pt x="315" y="-298" on="0"/>
        <pt x="338" y="-274" on="1"/>
        <pt x="401" y="-208" on="0"/>
        <pt x="401" y="-47" on="1"/>
        <pt x="401" y="-33" on="0"/>
        <pt x="400" y="-21" on="1"/>
        <pt x="218" y="-9" on="0"/>
        <pt x="105" y="39" on="1"/>
        <pt x="72" y="53" on="0"/>
        <pt x="56" y="65" on="1"/>
        <pt x="97" y="343" on="1"/>
        <pt x="213" y="343" on="1"/>
        <pt x="239" y="150" on="1"/>
        <pt x="322" y="92" on="0"/>
        <pt x="467" y="92" on="1"/>
        <pt x="580" y="92" on="0"/>
        <pt x="668" y="149" on="1"/>
        <pt x="783" y="223" on="0"/>
        <pt x="783" y="359" on="1"/>
        <pt x="783" y="504" on="0"/>
        <pt x="634" y="616" on="1"/>
        <pt x="588" y="651" on="0"/>
        <pt x="476" y="721" on="0"/>
        <pt x="355" y="807" on="0"/>
        <pt x="307" y="860" on="1"/>
        <pt x="196" y="981" on="0"/>
        <pt x="196" y="1133" on="1"/>
        <pt x="196" y="1319" on="0"/>
        <pt x="336" y="1436" on="1"/>
        <pt x="473" y="1550" on="0"/>
        <pt x="675" y="1550" on="1"/>
        <pt x="910" y="1550" on="0"/>
        <pt x="1038" y="1465" on="1"/>
        <pt x="992" y="1203" on="1"/>
        <pt x="886" y="1203" on="1"/>
        <pt x="858" y="1382" on="1"/>
        <pt x="788" y="1433" on="0"/>
        <pt x="658" y="1433" on="1"/>
        <pt x="487" y="1433" on="0"/>
        <pt x="421" y="1314" on="1"/>
        <pt x="393" y="1262" on="0"/>
        <pt x="393" y="1130" on="0"/>
        <pt x="430" y="1037" on="0"/>
        <pt x="466" y="996" on="1"/>
        <pt x="524" y="928" on="0"/>
        <pt x="617" y="870" on="1"/>
        <pt x="768" y="772" on="1"/>
        <pt x="981" y="629" on="0"/>
        <pt x="981" y="430" on="1"/>
        <pt x="981" y="238" on="0"/>
        <pt x="854" y="116" on="1"/>
        <pt x="727" y="-4" on="0"/>
      </contour>
    </TTGlyph>
    <TTGlyph name="Scircumflex" xMin="56" yMin="-23" xMax="1064" yMax="2000">
      <component glyphName="S" x="0" y="0" flags="0x1004"/>
      <component glyphName="circumflex.cap" x="320" y="0" flags="0x1004"/>
    </TTGlyph>
    <TTGlyph name="T" xMin="83" yMin="0" xMax="1298" yMax="1530">
      <contour>
        <pt x="200" y="93" on="1"/>
        <pt x="444" y="116" on="1"/>
        <pt x="609" y="1423" on="1"/>
        <pt x="290" y="1396" on="1"/>
        <pt x="197" y="1066" on="1"/>
        <pt x="83" y="1064" on="1"/>
        <pt x="160" y="1530" on="1"/>
        <pt x="1298" y="1530" on="1"/>
        <pt x="1232" y="1064" on="1"/>
        <pt x="1124" y="1064" on="1"/>
        <pt x="1132" y="1397" on="1"/>
        <pt x="808" y="1423" on="1"/>
        <pt x="642" y="116" on="1"/>
        <pt x="890" y="93" on="1"/>
        <pt x="883" y="0" on="1"/>
        <pt x="191" y="0" on="1"/>
      </contour>
    </TTGlyph>
    <TTGlyph name="Tbar" xMin="83" yMin="0" xMax="1298" yMax="1530">
      <contour>
        <pt x="200" y="93" on="1"/>
        <pt x="444" y="116" on="1"/>
        <pt x="520" y="722" on="1"/>
        <pt x="279" y="722" on="1"/>
        <pt x="295" y="852" on="1"/>
        <pt x="537" y="852" on="1"/>
        <pt x="609" y="1423" on="1"/>
        <pt x="290" y="1396" on="1"/>
        <pt x="197" y="1066" on="1"/>
        <pt x="83" y="1064" on="1"/>
        <pt x="160" y="1530" on="1"/>
        <pt x="1298" y="1530" on="1"/>
        <pt x="1232" y="1064" on="1"/>
        <pt x="1124" y="1064" on="1"/>
        <pt x="1132" y="1397" on="1"/>
        <pt x="808" y="1423" on="1"/>
        <pt x="735" y="852" on="1"/>
        <pt x="1034" y="852" on="1"/>
        <pt x="1018" y="722" on="1"/>
        <pt x="719" y="722" on="1"/>
        <pt x="642" y="116" on="1"/>
        <pt x="890" y="93" on="1"/>
        <pt x="883" y="0" on="1"/>
        <pt x="191" y="0" on="1"/>
      </contour>
    </TTGlyph>
    <TTGlyph name="Tcaron" xMin="83" yMin="0" xMax="1298" yMax="2000">
      <component glyphName="T" x="0" y="0" flags="0x1204"/>
      <component glyphName="caron.cap" x="368" y="0" flags="0x1004"/>
    </TTGlyph>
    <TTGlyph name="Thorn" xMin="30" yMin="0" xMax="1192" yMax="1530">
      <contour>
        <pt x="587" y="310" on="1"/>
        <pt x="463" y="310" on="0"/>
        <pt x="409" y="314" on="1"/>
        <pt x="385" y="116" on="1"/>
        <pt x="559" y="87" on="1"/>
        <pt x="551" y="0" on="1"/>
        <pt x="30" y="0" on="1"/>
        <pt x="39" y="86" on="1"/>
        <pt x="187" y="116" on="1"/>
        <pt x="348" y="1406" on="1"/>
        <pt x="215" y="1429" on="1"/>
        <pt x="227" y="1530" on="1"/>
        <pt x="710" y="1530" on="1"/>
        <pt x="699" y="1429" on="1"/>
        <pt x="546" y="1406" on="1"/>
        <pt x="519" y="1195" on="1"/>
        <pt x="614" y="1213" on="0"/>
        <pt x="737" y="1213" on="1"/>
        <pt x="963" y="1213" on="0"/>
        <pt x="1192" y="1014" on="0"/>
        <pt x="1192" y="829" on="1"/>
        <pt x="1192" y="596" on="0"/>
        <pt x="1014" y="450" on="1"/>
        <pt x="843" y="310" on="0"/>
      </contour>
      <contour>
        <pt x="424" y="433" on="1"/>
        <pt x="493" y="422" on="0"/>
        <pt x="689" y="422" on="0"/>
        <pt x="767" y="450" on="1"/>
        <pt x="995" y="532" on="0"/>
        <pt x="995" y="779" on="1"/>
        <pt x="995" y="948" on="0"/>
        <pt x="931" y="1018" on="1"/>
        <pt x="861" y="1094" on="0"/>
        <pt x="684" y="1094" on="1"/>
        <pt x="594" y="1094" on="0"/>
        <pt x="504" y="1075" on="1"/>
      </contour>
    </TTGlyph>
    <TTGlyph name="U" xMin="127" yMin="-20" xMax="1440" yMax="1530">
      <contour>
        <pt x="406" y="11" on="1"/>
        <pt x="145" y="108" on="0"/>
        <pt x="145" y="454" on="1"/>
        <pt x="145" y="518" on="0"/>
        <pt x="153" y="593" on="1"/>
        <pt x="260" y="1407" on="1"/>
        <pt x="127" y="1430" on="1"/>
        <pt x="139" y="1530" on="1"/>
        <pt x="622" y="1530" on="1"/>
        <pt x="611" y="1430" on="1"/>
        <pt x="460" y="1405" on="1"/>
        <pt x="356" y="610" on="1"/>
        <pt x="345" y="507" on="0"/>
        <pt x="345" y="429" on="0"/>
        <pt x="345" y="418" on="1"/>
        <pt x="348" y="255" on="0"/>
        <pt x="495" y="90" on="0"/>
        <pt x="627" y="90" on="1"/>
        <pt x="966" y="90" on="0"/>
        <pt x="1027" y="626" on="1"/>
        <pt x="1130" y="1405" on="1"/>
        <pt x="997" y="1429" on="1"/>
        <pt x="1008" y="1530" on="1"/>
        <pt x="1440" y="1530" on="1"/>
        <pt x="1429" y="1429" on="1"/>
        <pt x="1305" y="1407" on="1"/>
        <pt x="1201" y="627" on="1"/>
        <pt x="1135" y="119" on="0"/>
        <pt x="826" y="14" on="1"/>
        <pt x="725" y="-20" on="0"/>
        <pt x="489" y="-20" on="0"/>
      </contour>
    </TTGlyph>
    <TTGlyph name="Uacute" xMin="127" yMin="-20" xMax="1440" yMax="2000">
      <component glyphName="U" x="0" y="0" flags="0x1204"/>
      <component glyphName="acute.cap" x="691" y="0" flags="0x1004"/>
    </TTGlyph>
    <TTGlyph name="Ubreve" xMin="127" yMin="-20" xMax="1440" yMax="1979">
      <component glyphName="U" x="0" y="0" flags="0x1204"/>
      <component glyphName="breve.cap" x="475" y="0" flags="0x1004"/>
    </TTGlyph>
    <TTGlyph name="Ucircumflex" xMin="127" yMin="-20" xMax="1440" yMax="2000">
      <component glyphName="U" x="0" y="0" flags="0x1204"/>
      <component glyphName="circumflex.cap" x="430" y="0" flags="0x1004"/>
    </TTGlyph>
    <TTGlyph name="Udieresis" xMin="127" yMin="-20" xMax="1440" yMax="1959">
      <component glyphName="U" x="0" y="0" flags="0x1204"/>
      <component glyphName="dieresis.cap" x="439" y="0" flags="0x1004"/>
    </TTGlyph>
    <TTGlyph name="Ugrave" xMin="127" yMin="-20" xMax="1440" yMax="2000">
      <component glyphName="U" x="0" y="0" flags="0x1204"/>
      <component glyphName="grave.cap" x="451" y="0" flags="0x1004"/>
    </TTGlyph>
    <TTGlyph name="Uhungarumlaut" xMin="127" yMin="-20" xMax="1440" yMax="2000">
      <component glyphName="U" x="0" y="0" flags="0x1204"/>
      <component glyphName="hungarumlaut.cap" x="475" y="0" flags="0x1004"/>
    </TTGlyph>
    <TTGlyph name="Umacron" xMin="127" yMin="-20" xMax="1440" yMax="1878">
      <component glyphName="U" x="0" y="0" flags="0x1204"/>
      <component glyphName="macron.cap" x="504" y="0" flags="0x1004"/>
    </TTGlyph>
    <TTGlyph name="Uogonek" xMin="127" yMin="-416" xMax="1440" yMax="1530">
      <contour>
        <pt x="622" y="-19" on="1"/>
        <pt x="597" y="-20" on="1"/>
        <pt x="382" y="-20" on="0"/>
        <pt x="265" y="100" on="1"/>
        <pt x="145" y="224" on="0"/>
        <pt x="145" y="454" on="1"/>
        <pt x="145" y="518" on="0"/>
        <pt x="153" y="593" on="1"/>
        <pt x="260" y="1407" on="1"/>
        <pt x="127" y="1430" on="1"/>
        <pt x="139" y="1530" on="1"/>
        <pt x="622" y="1530" on="1"/>
        <pt x="611" y="1430" on="1"/>
        <pt x="460" y="1405" on="1"/>
        <pt x="356" y="610" on="1"/>
        <pt x="345" y="507" on="0"/>
        <pt x="345" y="429" on="0"/>
        <pt x="345" y="418" on="1"/>
        <pt x="348" y="255" on="0"/>
        <pt x="495" y="90" on="0"/>
        <pt x="627" y="90" on="1"/>
        <pt x="966" y="90" on="0"/>
        <pt x="1027" y="626" on="1"/>
        <pt x="1130" y="1405" on="1"/>
        <pt x="997" y="1429" on="1"/>
        <pt x="1008" y="1530" on="1"/>
        <pt x="1440" y="1530" on="1"/>
        <pt x="1429" y="1429" on="1"/>
        <pt x="1305" y="1407" on="1"/>
        <pt x="1201" y="627" on="1"/>
        <pt x="1143" y="190" on="0"/>
        <pt x="912" y="54" on="1"/>
        <pt x="836" y="9" on="0"/>
        <pt x="740" y="-8" on="1"/>
        <pt x="617" y="-136" on="0"/>
        <pt x="613" y="-201" on="1"/>
        <pt x="610" y="-265" on="0"/>
        <pt x="648" y="-282" on="1"/>
        <pt x="657" y="-287" on="0"/>
        <pt x="666" y="-287" on="1"/>
        <pt x="721" y="-287" on="0"/>
        <pt x="796" y="-228" on="1"/>
        <pt x="822" y="-322" on="1"/>
        <pt x="711" y="-416" on="0"/>
        <pt x="572" y="-416" on="1"/>
        <pt x="497" y="-416" on="0"/>
        <pt x="454" y="-372" on="1"/>
        <pt x="417" y="-333" on="0"/>
        <pt x="419" y="-291" on="1"/>
        <pt x="423" y="-202" on="0"/>
        <pt x="461" y="-153" on="1"/>
        <pt x="517" y="-80" on="0"/>
      </contour>
    </TTGlyph>
    <TTGlyph name="Uring" xMin="127" yMin="-20" xMax="1440" yMax="2000">
      <component glyphName="U" x="0" y="0" flags="0x1204"/>
      <component glyphName="ring.cap" x="462" y="0" flags="0x1004"/>
    </TTGlyph>
    <TTGlyph name="Utilde" xMin="127" yMin="-20" xMax="1440" yMax="1970">
      <component glyphName="U" x="0" y="0" flags="0x1204"/>
      <component glyphName="tilde.cap" x="439" y="0" flags="0x1004"/>
    </TTGlyph>
    <TTGlyph name="V" xMin="75" yMin="-21" xMax="1361" yMax="1530">
      <contour>
        <pt x="197" y="1406" on="1"/>
        <pt x="75" y="1429" on="1"/>
        <pt x="85" y="1530" on="1"/>
        <pt x="566" y="1530" on="1"/>
        <pt x="555" y="1429" on="1"/>
        <pt x="404" y="1406" on="1"/>
        <pt x="540" y="449" on="1"/>
        <pt x="567" y="170" on="1"/>
        <pt x="662" y="449" on="1"/>
        <pt x="1075" y="1406" on="1"/>
        <pt x="941" y="1430" on="1"/>
        <pt x="951" y="1530" on="1"/>
        <pt x="1361" y="1530" on="1"/>
        <pt x="1351" y="1430" on="1"/>
        <pt x="1247" y="1408" on="1"/>
        <pt x="607" y="-9" on="1"/>
        <pt x="434" y="-21" on="1"/>
      </contour>
    </TTGlyph>
    <TTGlyph name="W" xMin="30" yMin="-10" xMax="1987" yMax="1530">
      <contour>
        <pt x="153" y="1407" on="1"/>
        <pt x="30" y="1429" on="1"/>
        <pt x="42" y="1530" on="1"/>
        <pt x="508" y="1530" on="1"/>
        <pt x="497" y="1429" on="1"/>
        <pt x="341" y="1411" on="1"/>
        <pt x="459" y="436" on="1"/>
        <pt x="495" y="170" on="1"/>
        <pt x="551" y="368" on="1"/>
        <pt x="896" y="1289" on="1"/>
        <pt x="882" y="1410" on="1"/>
        <pt x="764" y="1429" on="1"/>
        <pt x="775" y="1530" on="1"/>
        <pt x="1251" y="1530" on="1"/>
        <pt x="1231" y="1429" on="1"/>
        <pt x="1081" y="1409" on="1"/>
        <pt x="1186" y="436" on="1"/>
        <pt x="1204" y="170" on="1"/>
        <pt x="1278" y="398" on="1"/>
        <pt x="1685" y="1406" on="1"/>
        <pt x="1554" y="1429" on="1"/>
        <pt x="1565" y="1530" on="1"/>
        <pt x="1987" y="1530" on="1"/>
        <pt x="1972" y="1429" on="1"/>
        <pt x="1852" y="1407" on="1"/>
        <pt x="1255" y="-10" on="1"/>
        <pt x="1053" y="-10" on="1"/>
        <pt x="937" y="1020" on="1"/>
        <pt x="550" y="-10" on="1"/>
        <pt x="349" y="-10" on="1"/>
      </contour>
    </TTGlyph>
    <TTGlyph name="Wacute" xMin="68" yMin="-10" xMax="2025" yMax="2000">
      <component glyphName="W" x="38" y="0" flags="0x1004"/>
      <component glyphName="acute.cap" x="946" y="0" flags="0x1004"/>
    </TTGlyph>
    <TTGlyph name="Wcircumflex" xMin="68" yMin="-10" xMax="2025" yMax="2000">
      <component glyphName="W" x="38" y="0" flags="0x1004"/>
      <component glyphName="circumflex.cap" x="685" y="0" flags="0x1004"/>
    </TTGlyph>
    <TTGlyph name="Wdieresis" xMin="68" yMin="-10" xMax="2025" yMax="1959">
      <component glyphName="W" x="38" y="0" flags="0x1004"/>
      <component glyphName="dieresis.cap" x="694" y="0" flags="0x1004"/>
    </TTGlyph>
    <TTGlyph name="Wgrave" xMin="68" yMin="-10" xMax="2025" yMax="2000">
      <component glyphName="W" x="38" y="0" flags="0x1004"/>
      <component glyphName="grave.cap" x="706" y="0" flags="0x1004"/>
    </TTGlyph>
    <TTGlyph name="X" xMin="-62" yMin="0" xMax="1381" yMax="1530">
      <contour>
        <pt x="-52" y="87" on="1"/>
        <pt x="70" y="115" on="1"/>
        <pt x="569" y="768" on="1"/>
        <pt x="268" y="1403" on="1"/>
        <pt x="129" y="1429" on="1"/>
        <pt x="139" y="1530" on="1"/>
        <pt x="655" y="1530" on="1"/>
        <pt x="644" y="1429" on="1"/>
        <pt x="499" y="1407" on="1"/>
        <pt x="701" y="893" on="1"/>
        <pt x="1040" y="1406" on="1"/>
        <pt x="900" y="1429" on="1"/>
        <pt x="912" y="1530" on="1"/>
        <pt x="1381" y="1530" on="1"/>
        <pt x="1371" y="1429" on="1"/>
        <pt x="1234" y="1407" on="1"/>
        <pt x="764" y="776" on="1"/>
        <pt x="1086" y="116" on="1"/>
        <pt x="1240" y="87" on="1"/>
        <pt x="1232" y="0" on="1"/>
        <pt x="696" y="0" on="1"/>
        <pt x="704" y="87" on="1"/>
        <pt x="855" y="115" on="1"/>
        <pt x="629" y="644" on="1"/>
        <pt x="266" y="116" on="1"/>
        <pt x="415" y="86" on="1"/>
        <pt x="407" y="0" on="1"/>
        <pt x="-62" y="0" on="1"/>
      </contour>
    </TTGlyph>
    <TTGlyph name="Y" xMin="40" yMin="0" xMax="1330" yMax="1530">
      <contour>
        <pt x="251" y="87" on="1"/>
        <pt x="447" y="116" on="1"/>
        <pt x="508" y="590" on="1"/>
        <pt x="144" y="1406" on="1"/>
        <pt x="40" y="1429" on="1"/>
        <pt x="50" y="1530" on="1"/>
        <pt x="539" y="1530" on="1"/>
        <pt x="527" y="1429" on="1"/>
        <pt x="367" y="1406" on="1"/>
        <pt x="595" y="838" on="1"/>
        <pt x="631" y="712" on="1"/>
        <pt x="703" y="838" on="1"/>
        <pt x="1046" y="1406" on="1"/>
        <pt x="907" y="1429" on="1"/>
        <pt x="918" y="1530" on="1"/>
        <pt x="1330" y="1530" on="1"/>
        <pt x="1319" y="1429" on="1"/>
        <pt x="1220" y="1407" on="1"/>
        <pt x="696" y="590" on="1"/>
        <pt x="635" y="116" on="1"/>
        <pt x="848" y="87" on="1"/>
        <pt x="840" y="0" on="1"/>
        <pt x="243" y="0" on="1"/>
      </contour>
    </TTGlyph>
    <TTGlyph name="Yacute" xMin="40" yMin="0" xMax="1330" yMax="2000">
      <component glyphName="Y" x="0" y="0" flags="0x1204"/>
      <component glyphName="acute.cap" x="609" y="0" flags="0x1004"/>
    </TTGlyph>
    <TTGlyph name="Ycircumflex" xMin="40" yMin="0" xMax="1330" yMax="2000">
      <component glyphName="Y" x="0" y="0" flags="0x1204"/>
      <component glyphName="circumflex.cap" x="348" y="0" flags="0x1004"/>
    </TTGlyph>
    <TTGlyph name="Ydieresis" xMin="40" yMin="0" xMax="1330" yMax="1959">
      <component glyphName="Y" x="0" y="0" flags="0x1204"/>
      <component glyphName="dieresis.cap" x="357" y="0" flags="0x1004"/>
    </TTGlyph>
    <TTGlyph name="Ygrave" xMin="40" yMin="0" xMax="1330" yMax="2000">
      <component glyphName="Y" x="0" y="0" flags="0x1204"/>
      <component glyphName="grave.cap" x="369" y="0" flags="0x1004"/>
    </TTGlyph>
    <TTGlyph name="Z" xMin="-3" yMin="0" xMax="1205" yMax="1530">
      <contour>
        <pt x="-3" y="89" on="1"/>
        <pt x="806" y="1217" on="1"/>
        <pt x="975" y="1416" on="1"/>
        <pt x="399" y="1409" on="1"/>
        <pt x="304" y="1162" on="1"/>
        <pt x="186" y="1186" on="1"/>
        <pt x="242" y="1530" on="1"/>
        <pt x="1180" y="1530" on="1"/>
        <pt x="1205" y="1444" on="1"/>
        <pt x="394" y="303" on="1"/>
        <pt x="241" y="107" on="1"/>
        <pt x="882" y="132" on="1"/>
        <pt x="1007" y="384" on="1"/>
        <pt x="1128" y="353" on="1"/>
        <pt x="1035" y="0" on="1"/>
        <pt x="24" y="0" on="1"/>
      </contour>
    </TTGlyph>
    <TTGlyph name="Zacute" xMin="19" yMin="0" xMax="1227" yMax="2000">
      <component glyphName="Z" x="22" y="0" flags="0x1004"/>
      <component glyphName="acute.cap" x="621" y="0" flags="0x1004"/>
    </TTGlyph>
    <TTGlyph name="Zcaron" xMin="19" yMin="0" xMax="1227" yMax="2000">
      <component glyphName="Z" x="22" y="0" flags="0x1004"/>
      <component glyphName="caron.cap" x="360" y="0" flags="0x1004"/>
    </TTGlyph>
    <TTGlyph name="Zdotaccent" xMin="19" yMin="0" xMax="1227" yMax="1954">
      <component glyphName="Z" x="22" y="0" flags="0x1004"/>
      <component glyphName="dotaccent.cap" x="575" y="0" flags="0x1004"/>
    </TTGlyph>
    <TTGlyph name="a" xMin="83" yMin="-20" xMax="1066" yMax="1163">
      <contour>
        <pt x="718" y="136" on="1"/>
        <pt x="588" y="-20" on="0"/>
        <pt x="413" y="-20" on="1"/>
        <pt x="251" y="-20" on="0"/>
        <pt x="164" y="102" on="1"/>
        <pt x="83" y="216" on="0"/>
        <pt x="83" y="412" on="1"/>
        <pt x="83" y="573" on="0"/>
        <pt x="160" y="744" on="1"/>
        <pt x="288" y="1030" on="0"/>
        <pt x="540" y="1128" on="1"/>
        <pt x="628" y="1163" on="0"/>
        <pt x="824" y="1163" on="0"/>
        <pt x="929" y="1128" on="1"/>
        <pt x="1048" y="1162" on="1"/>
        <pt x="917" y="187" on="1"/>
        <pt x="912" y="146" on="0"/>
        <pt x="935" y="111" on="0"/>
        <pt x="978" y="111" on="0"/>
        <pt x="1035" y="157" on="1"/>
        <pt x="1066" y="104" on="1"/>
        <pt x="1049" y="73" on="0"/>
        <pt x="1005" y="42" on="1"/>
        <pt x="916" y="-20" on="0"/>
        <pt x="843" y="-20" on="1"/>
        <pt x="716" y="-20" on="0"/>
        <pt x="716" y="101" on="1"/>
        <pt x="716" y="108" on="0"/>
        <pt x="716" y="115" on="1"/>
      </contour>
      <contour>
        <pt x="832" y="1008" on="1"/>
        <pt x="785" y="1041" on="0"/>
        <pt x="629" y="1041" on="0"/>
        <pt x="512" y="985" on="0"/>
        <pt x="420" y="891" on="0"/>
        <pt x="353" y="768" on="0"/>
        <pt x="331" y="701" on="1"/>
        <pt x="288" y="570" on="0"/>
        <pt x="288" y="363" on="0"/>
        <pt x="310" y="246" on="0"/>
        <pt x="331" y="206" on="1"/>
        <pt x="374" y="122" on="0"/>
        <pt x="450" y="122" on="1"/>
        <pt x="578" y="122" on="0"/>
        <pt x="688" y="236" on="1"/>
        <pt x="719" y="268" on="0"/>
        <pt x="740" y="298" on="1"/>
      </contour>
    </TTGlyph>
    <TTGlyph name="aacute" xMin="83" yMin="-20" xMax="1073" yMax="1743">
      <component glyphName="a" x="0" y="0" flags="0x1204"/>
      <component glyphName="acute" x="564" y="0" flags="0x1004"/>
    </TTGlyph>
    <TTGlyph name="abreve" xMin="83" yMin="-20" xMax="1066" yMax="1651">
      <component glyphName="a" x="0" y="0" flags="0x1204"/>
      <component glyphName="breve" x="378" y="0" flags="0x1004"/>
    </TTGlyph>
    <TTGlyph name="acircumflex" xMin="83" yMin="-20" xMax="1066" yMax="1650">
      <component glyphName="a" x="0" y="0" flags="0x1204"/>
      <component glyphName="circumflex" x="309" y="0" flags="0x1004"/>
    </TTGlyph>
    <TTGlyph name="acute" xMin="50" yMin="1251" xMax="509" yMax="1743">
      <contour>
        <pt x="50" y="1312" on="1"/>
        <pt x="367" y="1743" on="1"/>
        <pt x="509" y="1576" on="1"/>
        <pt x="480" y="1520" on="0"/>
        <pt x="337" y="1405" on="1"/>
        <pt x="183" y="1280" on="0"/>
        <pt x="103" y="1251" on="1"/>
      </contour>
    </TTGlyph>
    <TTGlyph name="acute.cap" xMin="77" yMin="1613" xMax="477" yMax="2000">
      <contour>
        <pt x="77" y="1658" on="1"/>
        <pt x="353" y="2000" on="1"/>
        <pt x="477" y="1862" on="1"/>
        <pt x="442" y="1788" on="0"/>
        <pt x="320" y="1709" on="1"/>
        <pt x="224" y="1647" on="0"/>
        <pt x="130" y="1613" on="1"/>
      </contour>
    </TTGlyph>
    <TTGlyph name="adieresis" xMin="83" yMin="-20" xMax="1092" yMax="1651">
      <component glyphName="a" x="0" y="0" flags="0x1204"/>
      <component glyphName="dieresis" x="343" y="0" flags="0x1004"/>
    </TTGlyph>
    <TTGlyph name="ae" xMin="84" yMin="-20" xMax="1620" yMax="1162">
      <contour>
        <pt x="1131" y="-20" on="1"/>
        <pt x="844" y="-20" on="0"/>
        <pt x="779" y="243" on="1"/>
        <pt x="688" y="68" on="0"/>
        <pt x="516" y="4" on="1"/>
        <pt x="452" y="-20" on="0"/>
        <pt x="373" y="-20" on="1"/>
        <pt x="84" y="-20" on="0"/>
        <pt x="84" y="391" on="1"/>
        <pt x="84" y="553" on="0"/>
        <pt x="160" y="728" on="1"/>
        <pt x="291" y="1024" on="0"/>
        <pt x="540" y="1126" on="1"/>
        <pt x="628" y="1162" on="0"/>
        <pt x="825" y="1162" on="0"/>
        <pt x="945" y="1122" on="1"/>
        <pt x="1059" y="1162" on="1"/>
        <pt x="1027" y="1039" on="1"/>
        <pt x="1169" y="1162" on="0"/>
        <pt x="1341" y="1162" on="1"/>
        <pt x="1479" y="1162" on="0"/>
        <pt x="1552" y="1088" on="1"/>
        <pt x="1620" y="1021" on="0"/>
        <pt x="1620" y="831" on="0"/>
        <pt x="1550" y="706" on="0"/>
        <pt x="1436" y="607" on="0"/>
        <pt x="1294" y="534" on="0"/>
        <pt x="1222" y="510" on="1"/>
        <pt x="1077" y="462" on="0"/>
        <pt x="970" y="460" on="1"/>
        <pt x="968" y="426" on="0"/>
        <pt x="968" y="364" on="0"/>
        <pt x="973" y="275" on="0"/>
        <pt x="992" y="227" on="1"/>
        <pt x="1035" y="119" on="0"/>
        <pt x="1155" y="119" on="1"/>
        <pt x="1351" y="119" on="0"/>
        <pt x="1515" y="265" on="1"/>
        <pt x="1561" y="182" on="1"/>
        <pt x="1509" y="111" on="0"/>
        <pt x="1400" y="52" on="1"/>
        <pt x="1269" y="-20" on="0"/>
      </contour>
      <contour>
        <pt x="1294" y="1046" on="1"/>
        <pt x="1122" y="1046" on="0"/>
        <pt x="1022" y="768" on="1"/>
        <pt x="987" y="670" on="0"/>
        <pt x="975" y="570" on="1"/>
        <pt x="1120" y="577" on="0"/>
        <pt x="1254" y="659" on="1"/>
        <pt x="1415" y="757" on="0"/>
        <pt x="1415" y="1046" on="0"/>
      </contour>
      <contour>
        <pt x="284" y="404" on="1"/>
        <pt x="284" y="122" on="0"/>
        <pt x="420" y="122" on="1"/>
        <pt x="538" y="122" on="0"/>
        <pt x="638" y="223" on="1"/>
        <pt x="711" y="298" on="0"/>
        <pt x="761" y="410" on="1"/>
        <pt x="761" y="430" on="1"/>
        <pt x="767" y="709" on="0"/>
        <pt x="920" y="920" on="1"/>
        <pt x="968" y="988" on="0"/>
        <pt x="1027" y="1039" on="1"/>
        <pt x="997" y="922" on="1"/>
        <pt x="774" y="563" on="1"/>
        <pt x="845" y="998" on="1"/>
        <pt x="793" y="1041" on="0"/>
        <pt x="628" y="1041" on="0"/>
        <pt x="511" y="980" on="0"/>
        <pt x="419" y="879" on="0"/>
        <pt x="351" y="748" on="0"/>
        <pt x="328" y="677" on="1"/>
        <pt x="284" y="537" on="0"/>
      </contour>
    </TTGlyph>
    <TTGlyph name="aeacute" xMin="84" yMin="-20" xMax="1620" yMax="1743">
      <component glyphName="ae" x="0" y="0" flags="0x1204"/>
      <component glyphName="acute" x="748" y="0" flags="0x1004"/>
    </TTGlyph>
    <TTGlyph name="afii61352" xMin="28" yMin="0" xMax="2438" yMax="1533">
      <contour>
        <pt x="1575" y="811" on="0"/>
        <pt x="1575" y="1157" on="0"/>
        <pt x="1690" y="1366" on="0"/>
        <pt x="1758" y="1423" on="1"/>
        <pt x="1891" y="1533" on="0"/>
        <pt x="2060" y="1533" on="1"/>
        <pt x="2255" y="1533" on="0"/>
        <pt x="2356" y="1402" on="1"/>
        <pt x="2438" y="1295" on="0"/>
        <pt x="2438" y="1124" on="1"/>
        <pt x="2438" y="953" on="0"/>
        <pt x="2323" y="741" on="0"/>
        <pt x="2254" y="683" on="1"/>
        <pt x="2122" y="571" on="0"/>
        <pt x="1954" y="571" on="1"/>
        <pt x="1760" y="571" on="0"/>
        <pt x="1658" y="704" on="1"/>
      </contour>
      <contour>
        <pt x="34" y="85" on="1"/>
        <pt x="180" y="113" on="1"/>
        <pt x="328" y="1401" on="1"/>
        <pt x="172" y="1424" on="1"/>
        <pt x="180" y="1522" on="1"/>
        <pt x="586" y="1522" on="1"/>
        <pt x="996" y="493" on="1"/>
        <pt x="1097" y="205" on="1"/>
        <pt x="1225" y="1401" on="1"/>
        <pt x="1068" y="1424" on="1"/>
        <pt x="1076" y="1522" on="1"/>
        <pt x="1554" y="1522" on="1"/>
        <pt x="1546" y="1424" on="1"/>
        <pt x="1385" y="1401" on="1"/>
        <pt x="1233" y="0" on="1"/>
        <pt x="998" y="0" on="1"/>
        <pt x="602" y="999" on="1"/>
        <pt x="472" y="1294" on="1"/>
        <pt x="348" y="114" on="1"/>
        <pt x="525" y="85" on="1"/>
        <pt x="519" y="0" on="1"/>
        <pt x="28" y="0" on="1"/>
      </contour>
      <contour>
        <pt x="2044" y="1430" on="1"/>
        <pt x="1806" y="1430" on="0"/>
        <pt x="1776" y="1069" on="1"/>
        <pt x="1772" y="1029" on="0"/>
        <pt x="1772" y="948" on="0"/>
        <pt x="1780" y="891" on="1"/>
        <pt x="1797" y="761" on="0"/>
        <pt x="1878" y="702" on="1"/>
        <pt x="1918" y="674" on="0"/>
        <pt x="1969" y="674" on="1"/>
        <pt x="2206" y="674" on="0"/>
        <pt x="2236" y="1037" on="1"/>
        <pt x="2240" y="1077" on="0"/>
        <pt x="2240" y="1158" on="0"/>
        <pt x="2232" y="1215" on="1"/>
        <pt x="2215" y="1346" on="0"/>
        <pt x="2134" y="1402" on="1"/>
        <pt x="2095" y="1430" on="0"/>
      </contour>
      <contour>
        <pt x="1529" y="148" on="1"/>
        <pt x="2302" y="148" on="1"/>
        <pt x="2290" y="0" on="1"/>
        <pt x="1517" y="0" on="1"/>
      </contour>
    </TTGlyph>
    <TTGlyph name="agrave" xMin="83" yMin="-20" xMax="1066" yMax="1743">
      <component glyphName="a" x="0" y="0" flags="0x1204"/>
      <component glyphName="grave" x="286" y="0" flags="0x1004"/>
    </TTGlyph>
    <TTGlyph name="amacron" xMin="83" yMin="-20" xMax="1066" yMax="1574">
      <component glyphName="a" x="0" y="0" flags="0x1204"/>
      <component glyphName="macron" x="409" y="0" flags="0x1004"/>
    </TTGlyph>
    <TTGlyph name="ampersand" xMin="49" yMin="-20" xMax="1540" yMax="1549">
      <contour>
        <pt x="944" y="63" on="1"/>
        <pt x="778" y="-17" on="0"/>
        <pt x="564" y="-17" on="1"/>
        <pt x="353" y="-17" on="0"/>
        <pt x="211" y="74" on="1"/>
        <pt x="49" y="177" on="0"/>
        <pt x="49" y="368" on="1"/>
        <pt x="49" y="566" on="0"/>
        <pt x="266" y="703" on="1"/>
        <pt x="330" y="743" on="0"/>
        <pt x="399" y="780" on="1"/>
        <pt x="310" y="988" on="0"/>
        <pt x="310" y="1151" on="1"/>
        <pt x="310" y="1329" on="0"/>
        <pt x="442" y="1440" on="1"/>
        <pt x="570" y="1549" on="0"/>
        <pt x="763" y="1549" on="1"/>
        <pt x="935" y="1549" on="0"/>
        <pt x="1020" y="1460" on="1"/>
        <pt x="1090" y="1388" on="0"/>
        <pt x="1090" y="1270" on="1"/>
        <pt x="1090" y="1112" on="0"/>
        <pt x="933" y="985" on="1"/>
        <pt x="848" y="916" on="0"/>
        <pt x="755" y="865" on="1"/>
        <pt x="604" y="781" on="1"/>
        <pt x="796" y="440" on="0"/>
        <pt x="1020" y="244" on="1"/>
        <pt x="1084" y="340" on="0"/>
        <pt x="1084" y="542" on="1"/>
        <pt x="1084" y="620" on="0"/>
        <pt x="1061" y="684" on="1"/>
        <pt x="1021" y="685" on="1"/>
        <pt x="948" y="685" on="0"/>
        <pt x="872" y="647" on="1"/>
        <pt x="872" y="781" on="1"/>
        <pt x="921" y="830" on="0"/>
        <pt x="1027" y="830" on="1"/>
        <pt x="1055" y="830" on="0"/>
        <pt x="1084" y="826" on="1"/>
        <pt x="1145" y="818" on="1"/>
        <pt x="1224" y="806" on="0"/>
        <pt x="1314" y="806" on="0"/>
        <pt x="1377" y="822" on="0"/>
        <pt x="1401" y="841" on="1"/>
        <pt x="1451" y="880" on="0"/>
        <pt x="1464" y="968" on="1"/>
        <pt x="1540" y="968" on="1"/>
        <pt x="1536" y="654" on="0"/>
        <pt x="1315" y="654" on="1"/>
        <pt x="1287" y="654" on="0"/>
        <pt x="1259" y="658" on="1"/>
        <pt x="1265" y="626" on="0"/>
        <pt x="1265" y="586" on="1"/>
        <pt x="1265" y="334" on="0"/>
        <pt x="1104" y="175" on="1"/>
        <pt x="1148" y="142" on="0"/>
        <pt x="1195" y="119" on="1"/>
        <pt x="1283" y="86" on="0"/>
        <pt x="1371" y="84" on="1"/>
        <pt x="1360" y="-1" on="1"/>
        <pt x="1276" y="-20" on="0"/>
        <pt x="1183" y="-20" on="1"/>
        <pt x="1051" y="-20" on="0"/>
      </contour>
      <contour>
        <pt x="894" y="1249" on="1"/>
        <pt x="894" y="1446" on="0"/>
        <pt x="737" y="1446" on="1"/>
        <pt x="624" y="1446" on="0"/>
        <pt x="556" y="1368" on="1"/>
        <pt x="490" y="1293" on="0"/>
        <pt x="490" y="1177" on="1"/>
        <pt x="490" y="1016" on="0"/>
        <pt x="561" y="863" on="1"/>
        <pt x="718" y="945" on="0"/>
        <pt x="840" y="1067" on="0"/>
        <pt x="894" y="1178" on="0"/>
      </contour>
      <contour>
        <pt x="282" y="508" on="0"/>
        <pt x="253" y="422" on="0"/>
        <pt x="253" y="299" on="0"/>
        <pt x="308" y="193" on="0"/>
        <pt x="354" y="159" on="1"/>
        <pt x="442" y="93" on="0"/>
        <pt x="582" y="93" on="1"/>
        <pt x="759" y="93" on="0"/>
        <pt x="867" y="131" on="1"/>
        <pt x="668" y="315" on="0"/>
        <pt x="532" y="543" on="1"/>
        <pt x="449" y="683" on="1"/>
        <pt x="354" y="613" on="0"/>
      </contour>
    </TTGlyph>
    <TTGlyph name="aogonek" xMin="83" yMin="-416" xMax="1066" yMax="1163">
      <contour>
        <pt x="718" y="136" on="1"/>
        <pt x="588" y="-20" on="0"/>
        <pt x="413" y="-20" on="1"/>
        <pt x="251" y="-20" on="0"/>
        <pt x="164" y="102" on="1"/>
        <pt x="83" y="216" on="0"/>
        <pt x="83" y="412" on="1"/>
        <pt x="83" y="573" on="0"/>
        <pt x="160" y="744" on="1"/>
        <pt x="288" y="1030" on="0"/>
        <pt x="540" y="1128" on="1"/>
        <pt x="628" y="1163" on="0"/>
        <pt x="824" y="1163" on="0"/>
        <pt x="929" y="1128" on="1"/>
        <pt x="1048" y="1162" on="1"/>
        <pt x="917" y="187" on="1"/>
        <pt x="912" y="146" on="0"/>
        <pt x="935" y="111" on="0"/>
        <pt x="978" y="111" on="0"/>
        <pt x="1035" y="157" on="1"/>
        <pt x="1066" y="104" on="1"/>
        <pt x="1049" y="73" on="0"/>
        <pt x="992" y="33" on="1"/>
        <pt x="915" y="-30" on="1"/>
        <pt x="794" y="-131" on="0"/>
        <pt x="791" y="-201" on="1"/>
        <pt x="786" y="-264" on="0"/>
        <pt x="826" y="-282" on="1"/>
        <pt x="835" y="-287" on="0"/>
        <pt x="844" y="-287" on="1"/>
        <pt x="899" y="-287" on="0"/>
        <pt x="974" y="-228" on="1"/>
        <pt x="1000" y="-322" on="1"/>
        <pt x="889" y="-416" on="0"/>
        <pt x="750" y="-416" on="1"/>
        <pt x="675" y="-416" on="0"/>
        <pt x="632" y="-372" on="1"/>
        <pt x="595" y="-333" on="0"/>
        <pt x="597" y="-291" on="1"/>
        <pt x="601" y="-202" on="0"/>
        <pt x="640" y="-153" on="1"/>
        <pt x="697" y="-79" on="0"/>
        <pt x="805" y="-17" on="1"/>
        <pt x="716" y="-1" on="0"/>
        <pt x="716" y="102" on="1"/>
        <pt x="716" y="108" on="0"/>
        <pt x="716" y="115" on="1"/>
      </contour>
      <contour>
        <pt x="832" y="1008" on="1"/>
        <pt x="785" y="1041" on="0"/>
        <pt x="629" y="1041" on="0"/>
        <pt x="512" y="985" on="0"/>
        <pt x="420" y="891" on="0"/>
        <pt x="353" y="768" on="0"/>
        <pt x="331" y="701" on="1"/>
        <pt x="288" y="570" on="0"/>
        <pt x="288" y="363" on="0"/>
        <pt x="310" y="246" on="0"/>
        <pt x="331" y="206" on="1"/>
        <pt x="374" y="122" on="0"/>
        <pt x="450" y="122" on="1"/>
        <pt x="578" y="122" on="0"/>
        <pt x="688" y="236" on="1"/>
        <pt x="719" y="268" on="0"/>
        <pt x="740" y="298" on="1"/>
      </contour>
    </TTGlyph>
    <TTGlyph name="approxequal" xMin="46" yMin="286" xMax="1023" yMax="1069">
      <component glyphName="asciitilde" x="-106" y="-434" flags="0x1004"/>
      <component glyphName="asciitilde" x="-56" y="11" flags="0x1004"/>
    </TTGlyph>
    <TTGlyph name="aring" xMin="83" yMin="-20" xMax="1081" yMax="1786">
      <component glyphName="a" x="0" y="0" flags="0x1204"/>
      <component glyphName="ring" x="367" y="0" flags="0x1004"/>
    </TTGlyph>
    <TTGlyph name="asciicircum" xMin="177" yMin="510" xMax="1142" yMax="1531">
      <contour>
        <pt x="688" y="1531" on="1"/>
        <pt x="885" y="1531" on="1"/>
        <pt x="1142" y="510" on="1"/>
        <pt x="977" y="510" on="1"/>
        <pt x="762" y="1302" on="1"/>
        <pt x="342" y="510" on="1"/>
        <pt x="177" y="510" on="1"/>
      </contour>
    </TTGlyph>
    <TTGlyph name="asciitilde" xMin="152" yMin="720" xMax="1079" yMax="1058">
      <contour>
        <pt x="425" y="892" on="1"/>
        <pt x="300" y="892" on="0"/>
        <pt x="223" y="775" on="1"/>
        <pt x="152" y="848" on="1"/>
        <pt x="179" y="928" on="0"/>
        <pt x="264" y="989" on="1"/>
        <pt x="359" y="1058" on="0"/>
        <pt x="464" y="1058" on="1"/>
        <pt x="548" y="1058" on="0"/>
        <pt x="650" y="972" on="1"/>
        <pt x="701" y="930" on="1"/>
        <pt x="758" y="886" on="0"/>
        <pt x="806" y="886" on="1"/>
        <pt x="931" y="886" on="0"/>
        <pt x="1008" y="1003" on="1"/>
        <pt x="1079" y="930" on="1"/>
        <pt x="1057" y="847" on="0"/>
        <pt x="968" y="784" on="1"/>
        <pt x="878" y="720" on="0"/>
        <pt x="767" y="720" on="1"/>
        <pt x="681" y="720" on="0"/>
        <pt x="582" y="806" on="1"/>
        <pt x="517" y="862" on="0"/>
        <pt x="454" y="892" on="0"/>
      </contour>
    </TTGlyph>
    <TTGlyph name="asterisk" xMin="278" yMin="647" xMax="1278" yMax="1653">
      <contour>
        <pt x="278" y="982" on="1"/>
        <pt x="601" y="1112" on="1"/>
        <pt x="715" y="1150" on="1"/>
        <pt x="609" y="1188" on="1"/>
        <pt x="312" y="1318" on="1"/>
        <pt x="427" y="1484" on="1"/>
        <pt x="672" y="1281" on="1"/>
        <pt x="752" y="1205" on="1"/>
        <pt x="741" y="1319" on="1"/>
        <pt x="734" y="1653" on="1"/>
        <pt x="926" y="1652" on="1"/>
        <pt x="849" y="1319" on="1"/>
        <pt x="815" y="1205" on="1"/>
        <pt x="911" y="1281" on="1"/>
        <pt x="1201" y="1485" on="1"/>
        <pt x="1278" y="1318" on="1"/>
        <pt x="955" y="1188" on="1"/>
        <pt x="841" y="1149" on="1"/>
        <pt x="947" y="1112" on="1"/>
        <pt x="1244" y="982" on="1"/>
        <pt x="1129" y="816" on="1"/>
        <pt x="884" y="1019" on="1"/>
        <pt x="803" y="1097" on="1"/>
        <pt x="814" y="981" on="1"/>
        <pt x="821" y="647" on="1"/>
        <pt x="629" y="648" on="1"/>
        <pt x="706" y="981" on="1"/>
        <pt x="740" y="1097" on="1"/>
        <pt x="645" y="1019" on="1"/>
        <pt x="355" y="815" on="1"/>
      </contour>
    </TTGlyph>
    <TTGlyph name="at" xMin="120" yMin="-428" xMax="1868" yMax="1545">
      <contour>
        <pt x="1291" y="-312" on="1"/>
        <pt x="1135" y="-428" on="0"/>
        <pt x="875" y="-428" on="1"/>
        <pt x="327" y="-428" on="0"/>
        <pt x="172" y="-3" on="1"/>
        <pt x="120" y="140" on="0"/>
        <pt x="120" y="515" on="0"/>
        <pt x="198" y="835" on="0"/>
        <pt x="339" y="1104" on="0"/>
        <pt x="537" y="1318" on="0"/>
        <pt x="657" y="1392" on="1"/>
        <pt x="905" y="1545" on="0"/>
        <pt x="1199" y="1545" on="1"/>
        <pt x="1505" y="1545" on="0"/>
        <pt x="1685" y="1377" on="1"/>
        <pt x="1868" y="1206" on="0"/>
        <pt x="1868" y="909" on="1"/>
        <pt x="1868" y="646" on="0"/>
        <pt x="1768" y="430" on="1"/>
        <pt x="1680" y="240" on="0"/>
        <pt x="1533" y="127" on="1"/>
        <pt x="1394" y="21" on="0"/>
        <pt x="1256" y="21" on="1"/>
        <pt x="1172" y="21" on="0"/>
        <pt x="1168" y="142" on="1"/>
        <pt x="1166" y="180" on="0"/>
        <pt x="1166" y="220" on="1"/>
        <pt x="1166" y="306" on="0"/>
        <pt x="1194" y="427" on="1"/>
        <pt x="1073" y="143" on="0"/>
        <pt x="920" y="42" on="1"/>
        <pt x="865" y="7" on="0"/>
        <pt x="759" y="7" on="0"/>
        <pt x="708" y="32" on="1"/>
        <pt x="600" y="86" on="0"/>
        <pt x="554" y="242" on="1"/>
        <pt x="532" y="317" on="0"/>
        <pt x="532" y="425" on="0"/>
        <pt x="533" y="507" on="0"/>
        <pt x="563" y="661" on="0"/>
        <pt x="622" y="807" on="0"/>
        <pt x="709" y="937" on="0"/>
        <pt x="768" y="986" on="1"/>
        <pt x="897" y="1092" on="0"/>
        <pt x="1072" y="1092" on="1"/>
        <pt x="1156" y="1092" on="0"/>
        <pt x="1271" y="1053" on="0"/>
        <pt x="1292" y="1038" on="1"/>
        <pt x="1457" y="1068" on="1"/>
        <pt x="1412" y="897" on="0"/>
        <pt x="1384" y="686" on="1"/>
        <pt x="1343" y="385" on="0"/>
        <pt x="1343" y="313" on="1"/>
        <pt x="1349" y="193" on="1"/>
        <pt x="1349" y="165" on="0"/>
        <pt x="1363" y="165" on="1"/>
        <pt x="1445" y="165" on="0"/>
        <pt x="1529" y="268" on="1"/>
        <pt x="1655" y="423" on="0"/>
        <pt x="1700" y="677" on="1"/>
        <pt x="1715" y="758" on="0"/>
        <pt x="1715" y="949" on="0"/>
        <pt x="1668" y="1119" on="0"/>
        <pt x="1584" y="1247" on="0"/>
        <pt x="1470" y="1335" on="0"/>
        <pt x="1403" y="1362" on="1"/>
        <pt x="1278" y="1414" on="0"/>
        <pt x="976" y="1414" on="0"/>
        <pt x="746" y="1335" on="0"/>
        <pt x="560" y="1195" on="0"/>
        <pt x="417" y="1005" on="0"/>
        <pt x="369" y="893" on="1"/>
        <pt x="272" y="667" on="0"/>
        <pt x="272" y="217" on="0"/>
        <pt x="360" y="-49" on="0"/>
        <pt x="442" y="-132" on="1"/>
        <pt x="598" y="-291" on="0"/>
        <pt x="900" y="-291" on="1"/>
        <pt x="1042" y="-291" on="0"/>
        <pt x="1192" y="-250" on="1"/>
        <pt x="1234" y="-239" on="0"/>
        <pt x="1260" y="-227" on="1"/>
      </contour>
      <contour>
        <pt x="710" y="447" on="1"/>
        <pt x="710" y="170" on="0"/>
        <pt x="846" y="170" on="1"/>
        <pt x="910" y="170" on="0"/>
        <pt x="1002" y="300" on="1"/>
        <pt x="1135" y="487" on="0"/>
        <pt x="1210" y="743" on="1"/>
        <pt x="1233" y="819" on="0"/>
        <pt x="1241" y="879" on="1"/>
        <pt x="1205" y="943" on="0"/>
        <pt x="1104" y="962" on="1"/>
        <pt x="1077" y="967" on="0"/>
        <pt x="986" y="967" on="0"/>
        <pt x="881" y="922" on="0"/>
        <pt x="804" y="845" on="0"/>
        <pt x="753" y="742" on="0"/>
        <pt x="738" y="684" on="1"/>
        <pt x="710" y="576" on="0"/>
      </contour>
    </TTGlyph>
    <TTGlyph name="atilde" xMin="83" yMin="-20" xMax="1096" yMax="1650">
      <component glyphName="a" x="0" y="0" flags="0x1204"/>
      <component glyphName="tilde" x="330" y="0" flags="0x1004"/>
    </TTGlyph>
    <TTGlyph name="b" xMin="125" yMin="-20" xMax="1100" yMax="1650">
      <contour>
        <pt x="455" y="-20" on="1"/>
        <pt x="347" y="-20" on="0"/>
        <pt x="223" y="25" on="1"/>
        <pt x="125" y="-20" on="1"/>
        <pt x="323" y="1484" on="1"/>
        <pt x="228" y="1527" on="1"/>
        <pt x="249" y="1611" on="1"/>
        <pt x="489" y="1650" on="1"/>
        <pt x="540" y="1623" on="1"/>
        <pt x="456" y="998" on="1"/>
        <pt x="543" y="1110" on="0"/>
        <pt x="666" y="1149" on="1"/>
        <pt x="710" y="1163" on="0"/>
        <pt x="847" y="1163" on="0"/>
        <pt x="975" y="1098" on="0"/>
        <pt x="1017" y="1040" on="1"/>
        <pt x="1100" y="925" on="0"/>
        <pt x="1100" y="730" on="1"/>
        <pt x="1100" y="474" on="0"/>
        <pt x="932" y="240" on="1"/>
        <pt x="746" y="-20" on="0"/>
      </contour>
      <contour>
        <pt x="341" y="143" on="1"/>
        <pt x="394" y="101" on="0"/>
        <pt x="563" y="101" on="0"/>
        <pt x="677" y="158" on="0"/>
        <pt x="766" y="255" on="0"/>
        <pt x="831" y="380" on="0"/>
        <pt x="852" y="448" on="1"/>
        <pt x="895" y="584" on="0"/>
        <pt x="895" y="863" on="0"/>
        <pt x="805" y="1020" on="0"/>
        <pt x="727" y="1020" on="1"/>
        <pt x="643" y="1020" on="0"/>
        <pt x="554" y="955" on="1"/>
        <pt x="480" y="901" on="0"/>
        <pt x="433" y="829" on="1"/>
      </contour>
    </TTGlyph>
    <TTGlyph name="backslash" xMin="126" yMin="-362" xMax="876" yMax="1597">
      <contour>
        <pt x="126" y="1597" on="1"/>
        <pt x="299" y="1597" on="1"/>
        <pt x="876" y="-362" on="1"/>
        <pt x="702" y="-362" on="1"/>
      </contour>
    </TTGlyph>
    <TTGlyph name="bar" xMin="360" yMin="-186" xMax="533" yMax="1780">
      <contour>
        <pt x="360" y="1780" on="1"/>
        <pt x="533" y="1780" on="1"/>
        <pt x="533" y="-186" on="1"/>
        <pt x="360" y="-186" on="1"/>
      </contour>
    </TTGlyph>
    <TTGlyph name="braceleft" xMin="154" yMin="-190" xMax="1001" yMax="1735">
      <contour>
        <pt x="1001" y="1688" on="1"/>
        <pt x="988" y="1606" on="0"/>
        <pt x="988" y="1601" on="1"/>
        <pt x="712" y="1601" on="1"/>
        <pt x="616" y="970" on="1"/>
        <pt x="604" y="886" on="0"/>
        <pt x="484" y="828" on="1"/>
        <pt x="460" y="816" on="0"/>
        <pt x="433" y="804" on="1"/>
        <pt x="373" y="776" on="1"/>
        <pt x="479" y="722" on="0"/>
        <pt x="508" y="692" on="1"/>
        <pt x="565" y="633" on="0"/>
        <pt x="556" y="575" on="1"/>
        <pt x="461" y="-55" on="1"/>
        <pt x="736" y="-55" on="1"/>
        <pt x="734" y="-61" on="0"/>
        <pt x="731" y="-90" on="0"/>
        <pt x="726" y="-123" on="0"/>
        <pt x="724" y="-143" on="1"/>
        <pt x="602" y="-179" on="0"/>
        <pt x="490" y="-190" on="0"/>
        <pt x="402" y="-190" on="0"/>
        <pt x="338" y="-176" on="0"/>
        <pt x="318" y="-160" on="1"/>
        <pt x="281" y="-129" on="0"/>
        <pt x="281" y="-47" on="1"/>
        <pt x="281" y="-42" on="0"/>
        <pt x="285" y="-12" on="1"/>
        <pt x="326" y="277" on="1"/>
        <pt x="345" y="412" on="0"/>
        <pt x="371" y="579" on="1"/>
        <pt x="371" y="635" on="0"/>
        <pt x="243" y="686" on="1"/>
        <pt x="199" y="703" on="0"/>
        <pt x="154" y="714" on="1"/>
        <pt x="172" y="838" on="1"/>
        <pt x="417" y="898" on="0"/>
        <pt x="429" y="966" on="1"/>
        <pt x="506" y="1483" on="1"/>
        <pt x="530" y="1634" on="0"/>
        <pt x="576" y="1684" on="1"/>
        <pt x="624" y="1735" on="0"/>
        <pt x="741" y="1735" on="1"/>
        <pt x="809" y="1735" on="0"/>
      </contour>
    </TTGlyph>
    <TTGlyph name="braceright" xMin="56" yMin="-189" xMax="904" yMax="1736">
      <component glyphName="braceleft" x="1058" y="1546" scale="-0.99997" flags="0x1004"/>
    </TTGlyph>
    <TTGlyph name="bracketleft" xMin="180" yMin="-190" xMax="871" yMax="1735">
      <contour>
        <pt x="180" y="-54" on="1"/>
        <pt x="180" y="133" on="0"/>
        <pt x="248" y="613" on="0"/>
        <pt x="288" y="867" on="0"/>
        <pt x="308" y="994" on="1"/>
        <pt x="347" y="1245" on="1"/>
        <pt x="366" y="1369" on="0"/>
        <pt x="390" y="1555" on="0"/>
        <pt x="420" y="1652" on="0"/>
        <pt x="446" y="1681" on="1"/>
        <pt x="494" y="1735" on="0"/>
        <pt x="611" y="1735" on="1"/>
        <pt x="679" y="1735" on="0"/>
        <pt x="871" y="1688" on="1"/>
        <pt x="858" y="1601" on="1"/>
        <pt x="583" y="1601" on="1"/>
        <pt x="360" y="-55" on="1"/>
        <pt x="426" y="-55" on="0"/>
        <pt x="569" y="-57" on="0"/>
        <pt x="635" y="-57" on="1"/>
        <pt x="629" y="-101" on="0"/>
        <pt x="625" y="-143" on="1"/>
        <pt x="560" y="-162" on="1"/>
        <pt x="454" y="-190" on="0"/>
        <pt x="305" y="-190" on="0"/>
        <pt x="239" y="-176" on="0"/>
        <pt x="218" y="-160" on="1"/>
        <pt x="180" y="-129" on="0"/>
      </contour>
    </TTGlyph>
    <TTGlyph name="bracketright" xMin="33" yMin="-179" xMax="725" yMax="1746">
      <component glyphName="bracketleft" x="905" y="1556" scale="-0.99997" flags="0x1004"/>
    </TTGlyph>
    <TTGlyph name="breve" xMin="59" yMin="1300" xMax="677" yMax="1651">
      <contour>
        <pt x="522" y="1356" on="0"/>
        <pt x="411" y="1300" on="0"/>
        <pt x="278" y="1300" on="0"/>
        <pt x="170" y="1359" on="0"/>
        <pt x="134" y="1406" on="1"/>
        <pt x="59" y="1503" on="0"/>
        <pt x="59" y="1632" on="1"/>
        <pt x="59" y="1642" on="1"/>
        <pt x="59" y="1646" on="0"/>
        <pt x="60" y="1651" on="1"/>
        <pt x="165" y="1651" on="1"/>
        <pt x="166" y="1644" on="0"/>
        <pt x="167" y="1628" on="0"/>
        <pt x="175" y="1594" on="0"/>
        <pt x="198" y="1534" on="0"/>
        <pt x="220" y="1508" on="1"/>
        <pt x="270" y="1447" on="0"/>
        <pt x="408" y="1447" on="0"/>
        <pt x="485" y="1494" on="0"/>
        <pt x="510" y="1526" on="1"/>
        <pt x="542" y="1567" on="0"/>
        <pt x="575" y="1651" on="1"/>
        <pt x="677" y="1651" on="1"/>
        <pt x="677" y="1582" on="0"/>
        <pt x="609" y="1446" on="0"/>
      </contour>
    </TTGlyph>
    <TTGlyph name="breve.cap" xMin="59" yMin="1628" xMax="677" yMax="1979">
      <contour>
        <pt x="522" y="1684" on="0"/>
        <pt x="411" y="1628" on="0"/>
        <pt x="278" y="1628" on="0"/>
        <pt x="170" y="1687" on="0"/>
        <pt x="134" y="1734" on="1"/>
        <pt x="59" y="1831" on="0"/>
        <pt x="59" y="1960" on="1"/>
        <pt x="59" y="1970" on="1"/>
        <pt x="59" y="1974" on="0"/>
        <pt x="60" y="1979" on="1"/>
        <pt x="165" y="1979" on="1"/>
        <pt x="166" y="1972" on="0"/>
        <pt x="167" y="1956" on="0"/>
        <pt x="175" y="1922" on="0"/>
        <pt x="198" y="1862" on="0"/>
        <pt x="220" y="1836" on="1"/>
        <pt x="270" y="1775" on="0"/>
        <pt x="408" y="1775" on="0"/>
        <pt x="485" y="1822" on="0"/>
        <pt x="510" y="1854" on="1"/>
        <pt x="542" y="1895" on="0"/>
        <pt x="575" y="1979" on="1"/>
        <pt x="677" y="1979" on="1"/>
        <pt x="677" y="1910" on="0"/>
        <pt x="609" y="1774" on="0"/>
      </contour>
    </TTGlyph>
    <TTGlyph name="brokenbar" xMin="360" yMin="-186" xMax="533" yMax="1780">
      <contour>
        <pt x="360" y="1780" on="1"/>
        <pt x="533" y="1780" on="1"/>
        <pt x="533" y="886" on="1"/>
        <pt x="360" y="886" on="1"/>
      </contour>
      <contour>
        <pt x="360" y="708" on="1"/>
        <pt x="533" y="708" on="1"/>
        <pt x="533" y="-186" on="1"/>
        <pt x="360" y="-186" on="1"/>
      </contour>
    </TTGlyph>
    <TTGlyph name="bullet" xMin="233" yMin="507" xMax="660" yMax="939">
      <contour>
        <pt x="550" y="554" on="0"/>
        <pt x="459" y="507" on="0"/>
        <pt x="371" y="507" on="0"/>
        <pt x="307" y="535" on="0"/>
        <pt x="284" y="559" on="1"/>
        <pt x="233" y="611" on="0"/>
        <pt x="233" y="728" on="0"/>
        <pt x="274" y="819" on="0"/>
        <pt x="309" y="856" on="1"/>
        <pt x="388" y="939" on="0"/>
        <pt x="484" y="939" on="1"/>
        <pt x="559" y="939" on="0"/>
        <pt x="610" y="890" on="1"/>
        <pt x="660" y="841" on="0"/>
        <pt x="660" y="722" on="0"/>
        <pt x="619" y="629" on="0"/>
      </contour>
    </TTGlyph>
    <TTGlyph name="c" xMin="77" yMin="-20" xMax="886" yMax="1163">
      <contour>
        <pt x="828" y="921" on="1"/>
        <pt x="719" y="1016" on="0"/>
        <pt x="545" y="1016" on="0"/>
        <pt x="422" y="943" on="0"/>
        <pt x="378" y="872" on="1"/>
        <pt x="286" y="725" on="0"/>
        <pt x="286" y="460" on="1"/>
        <pt x="286" y="203" on="0"/>
        <pt x="406" y="139" on="1"/>
        <pt x="444" y="119" on="0"/>
        <pt x="527" y="119" on="0"/>
        <pt x="589" y="132" on="0"/>
        <pt x="620" y="146" on="1"/>
        <pt x="676" y="171" on="0"/>
        <pt x="759" y="232" on="1"/>
        <pt x="798" y="151" on="1"/>
        <pt x="708" y="45" on="0"/>
        <pt x="564" y="-1" on="1"/>
        <pt x="506" y="-20" on="0"/>
        <pt x="350" y="-20" on="0"/>
        <pt x="217" y="41" on="0"/>
        <pt x="171" y="99" on="1"/>
        <pt x="77" y="218" on="0"/>
        <pt x="77" y="430" on="1"/>
        <pt x="77" y="688" on="0"/>
        <pt x="228" y="912" on="1"/>
        <pt x="331" y="1066" on="0"/>
        <pt x="489" y="1130" on="1"/>
        <pt x="570" y="1163" on="0"/>
        <pt x="666" y="1163" on="1"/>
        <pt x="794" y="1163" on="0"/>
        <pt x="886" y="1115" on="1"/>
      </contour>
    </TTGlyph>
    <TTGlyph name="cacute" xMin="84" yMin="-20" xMax="1001" yMax="1743">
      <component glyphName="c" x="7" y="0" flags="0x1004"/>
      <component glyphName="acute" x="492" y="0" flags="0x1004"/>
    </TTGlyph>
    <TTGlyph name="caron" xMin="70" yMin="1255" xMax="764" yMax="1650">
      <contour>
        <pt x="70" y="1592" on="1"/>
        <pt x="137" y="1650" on="1"/>
        <pt x="385" y="1406" on="1"/>
        <pt x="420" y="1436" on="0"/>
        <pt x="461" y="1467" on="1"/>
        <pt x="626" y="1590" on="1"/>
        <pt x="667" y="1621" on="0"/>
        <pt x="702" y="1650" on="1"/>
        <pt x="764" y="1593" on="1"/>
        <pt x="469" y="1255" on="1"/>
        <pt x="293" y="1255" on="1"/>
      </contour>
    </TTGlyph>
    <TTGlyph name="caron.cap" xMin="70" yMin="1614" xMax="762" yMax="2000">
      <contour>
        <pt x="70" y="1942" on="1"/>
        <pt x="135" y="2000" on="1"/>
        <pt x="383" y="1765" on="1"/>
        <pt x="700" y="2000" on="1"/>
        <pt x="762" y="1943" on="1"/>
        <pt x="467" y="1614" on="1"/>
        <pt x="292" y="1614" on="1"/>
      </contour>
    </TTGlyph>
    <TTGlyph name="caronvertical" xMin="197" yMin="1045" xMax="426" yMax="1680">
      <contour>
        <pt x="393" y="1680" on="1"/>
        <pt x="426" y="1645" on="0"/>
        <pt x="426" y="1532" on="1"/>
        <pt x="426" y="1309" on="0"/>
        <pt x="313" y="1118" on="1"/>
        <pt x="288" y="1075" on="0"/>
        <pt x="263" y="1045" on="1"/>
        <pt x="203" y="1075" on="1"/>
        <pt x="197" y="1100" on="1"/>
        <pt x="265" y="1386" on="0"/>
        <pt x="243" y="1508" on="1"/>
        <pt x="232" y="1568" on="0"/>
        <pt x="217" y="1592" on="1"/>
        <pt x="236" y="1634" on="1"/>
      </contour>
    </TTGlyph>
    <TTGlyph name="ccaron" xMin="84" yMin="-20" xMax="1029" yMax="1650">
      <component glyphName="c" x="7" y="0" flags="0x1004"/>
      <component glyphName="caron" x="265" y="0" flags="0x1004"/>
    </TTGlyph>
    <TTGlyph name="ccedilla" xMin="84" yMin="-464" xMax="893" yMax="1163">
      <contour>
        <pt x="532" y="-11" on="1"/>
        <pt x="543" y="-48" on="0"/>
        <pt x="543" y="-143" on="0"/>
        <pt x="530" y="-269" on="0"/>
        <pt x="486" y="-378" on="0"/>
        <pt x="452" y="-409" on="1"/>
        <pt x="390" y="-464" on="0"/>
        <pt x="271" y="-464" on="1"/>
        <pt x="170" y="-464" on="0"/>
        <pt x="133" y="-436" on="1"/>
        <pt x="168" y="-305" on="1"/>
        <pt x="194" y="-319" on="0"/>
        <pt x="270" y="-319" on="0"/>
        <pt x="326" y="-298" on="0"/>
        <pt x="348" y="-274" on="1"/>
        <pt x="421" y="-199" on="0"/>
        <pt x="411" y="-19" on="1"/>
        <pt x="174" y="-1" on="0"/>
        <pt x="106" y="248" on="1"/>
        <pt x="84" y="329" on="0"/>
        <pt x="84" y="507" on="0"/>
        <pt x="118" y="675" on="0"/>
        <pt x="185" y="838" on="0"/>
        <pt x="284" y="985" on="0"/>
        <pt x="350" y="1041" on="1"/>
        <pt x="492" y="1163" on="0"/>
        <pt x="673" y="1163" on="1"/>
        <pt x="801" y="1163" on="0"/>
        <pt x="893" y="1115" on="1"/>
        <pt x="835" y="921" on="1"/>
        <pt x="726" y="1016" on="0"/>
        <pt x="552" y="1016" on="0"/>
        <pt x="429" y="943" on="0"/>
        <pt x="385" y="872" on="1"/>
        <pt x="293" y="725" on="0"/>
        <pt x="293" y="460" on="1"/>
        <pt x="293" y="203" on="0"/>
        <pt x="414" y="139" on="1"/>
        <pt x="451" y="119" on="0"/>
        <pt x="534" y="119" on="0"/>
        <pt x="596" y="132" on="0"/>
        <pt x="627" y="146" on="1"/>
        <pt x="683" y="171" on="0"/>
        <pt x="766" y="232" on="1"/>
        <pt x="805" y="151" on="1"/>
        <pt x="739" y="72" on="0"/>
        <pt x="628" y="20" on="1"/>
        <pt x="584" y="-1" on="0"/>
      </contour>
    </TTGlyph>
    <TTGlyph name="ccircumflex" xMin="84" yMin="-20" xMax="982" yMax="1650">
      <component glyphName="c" x="7" y="0" flags="0x1004"/>
      <component glyphName="circumflex" x="237" y="0" flags="0x1004"/>
    </TTGlyph>
    <TTGlyph name="cdotaccent" xMin="84" yMin="-20" xMax="893" yMax="1651">
      <component glyphName="c" x="7" y="0" flags="0x1004"/>
      <component glyphName="dotaccent" x="486" y="0" flags="0x1004"/>
    </TTGlyph>
    <TTGlyph name="cedilla" xMin="4" yMin="-464" xMax="415" yMax="34">
      <contour>
        <pt x="242" y="-251" on="0"/>
        <pt x="273" y="-175" on="0"/>
        <pt x="283" y="-77" on="0"/>
        <pt x="283" y="-10" on="0"/>
        <pt x="275" y="30" on="1"/>
        <pt x="332" y="34" on="1"/>
        <pt x="385" y="30" on="1"/>
        <pt x="415" y="-14" on="0"/>
        <pt x="415" y="-110" on="1"/>
        <pt x="415" y="-235" on="0"/>
        <pt x="357" y="-378" on="0"/>
        <pt x="322" y="-409" on="1"/>
        <pt x="261" y="-464" on="0"/>
        <pt x="142" y="-464" on="1"/>
        <pt x="41" y="-464" on="0"/>
        <pt x="4" y="-436" on="1"/>
        <pt x="39" y="-305" on="1"/>
        <pt x="65" y="-319" on="0"/>
        <pt x="141" y="-319" on="0"/>
        <pt x="197" y="-298" on="0"/>
      </contour>
    </TTGlyph>
    <TTGlyph name="cent" xMin="135" yMin="-215" xMax="944" yMax="1358">
      <contour>
        <pt x="886" y="921" on="1"/>
        <pt x="777" y="1016" on="0"/>
        <pt x="603" y="1016" on="0"/>
        <pt x="480" y="943" on="0"/>
        <pt x="436" y="872" on="1"/>
        <pt x="344" y="725" on="0"/>
        <pt x="344" y="460" on="1"/>
        <pt x="344" y="203" on="0"/>
        <pt x="464" y="139" on="1"/>
        <pt x="502" y="119" on="0"/>
        <pt x="585" y="119" on="0"/>
        <pt x="647" y="132" on="0"/>
        <pt x="678" y="146" on="1"/>
        <pt x="734" y="171" on="0"/>
        <pt x="817" y="232" on="1"/>
        <pt x="856" y="151" on="1"/>
        <pt x="725" y="5" on="0"/>
        <pt x="552" y="-16" on="1"/>
        <pt x="515" y="-215" on="1"/>
        <pt x="365" y="-215" on="1"/>
        <pt x="403" y="-10" on="1"/>
        <pt x="208" y="36" on="0"/>
        <pt x="153" y="264" on="1"/>
        <pt x="135" y="339" on="0"/>
        <pt x="135" y="498" on="0"/>
        <pt x="162" y="648" on="0"/>
        <pt x="215" y="795" on="0"/>
        <pt x="295" y="933" on="0"/>
        <pt x="348" y="990" on="1"/>
        <pt x="461" y="1113" on="0"/>
        <pt x="607" y="1149" on="1"/>
        <pt x="659" y="1358" on="1"/>
        <pt x="809" y="1358" on="1"/>
        <pt x="759" y="1161" on="1"/>
        <pt x="870" y="1152" on="0"/>
        <pt x="944" y="1115" on="1"/>
      </contour>
    </TTGlyph>
    <TTGlyph name="circumflex" xMin="50" yMin="1218" xMax="745" yMax="1650">
      <contour>
        <pt x="50" y="1276" on="1"/>
        <pt x="377" y="1650" on="1"/>
        <pt x="555" y="1650" on="1"/>
        <pt x="745" y="1276" on="1"/>
        <pt x="671" y="1218" on="1"/>
        <pt x="440" y="1492" on="1"/>
        <pt x="107" y="1219" on="1"/>
      </contour>
    </TTGlyph>
    <TTGlyph name="circumflex.cap" xMin="50" yMin="1613" xMax="744" yMax="2000">
      <contour>
        <pt x="50" y="1672" on="1"/>
        <pt x="355" y="2000" on="1"/>
        <pt x="532" y="2000" on="1"/>
        <pt x="744" y="1672" on="1"/>
        <pt x="676" y="1613" on="1"/>
        <pt x="435" y="1842" on="1"/>
        <pt x="111" y="1614" on="1"/>
      </contour>
    </TTGlyph>
    <TTGlyph name="colon" xMin="66" yMin="-22" xMax="440" yMax="1059">
      <component glyphName="period" x="73" y="809" flags="0x1204"/>
      <component glyphName="period" x="-19" y="0" flags="0x1004"/>
    </TTGlyph>
    <TTGlyph name="comma" xMin="-38" yMin="-501" xMax="378" yMax="265">
      <contour>
        <pt x="72" y="132" on="1"/>
        <pt x="186" y="265" on="1"/>
        <pt x="378" y="218" on="0"/>
        <pt x="378" y="-4" on="1"/>
        <pt x="378" y="-169" on="0"/>
        <pt x="272" y="-305" on="1"/>
        <pt x="170" y="-438" on="0"/>
        <pt x="5" y="-501" on="1"/>
        <pt x="-38" y="-432" on="1"/>
        <pt x="-35" y="-411" on="1"/>
        <pt x="46" y="-375" on="0"/>
        <pt x="112" y="-278" on="1"/>
        <pt x="176" y="-182" on="0"/>
        <pt x="176" y="-88" on="1"/>
        <pt x="176" y="-21" on="0"/>
        <pt x="152" y="16" on="1"/>
        <pt x="108" y="80" on="0"/>
        <pt x="65" y="78" on="1"/>
      </contour>
    </TTGlyph>
    <TTGlyph name="commaaccent" xMin="16" yMin="-560" xMax="289" yMax="-51">
      <contour>
        <pt x="155" y="-51" on="1"/>
        <pt x="220" y="-64" on="0"/>
        <pt x="258" y="-132" on="1"/>
        <pt x="288" y="-185" on="0"/>
        <pt x="288" y="-249" on="1"/>
        <pt x="288" y="-367" on="0"/>
        <pt x="196" y="-468" on="1"/>
        <pt x="125" y="-544" on="0"/>
        <pt x="56" y="-560" on="1"/>
        <pt x="16" y="-520" on="1"/>
        <pt x="19" y="-494" on="1"/>
        <pt x="57" y="-465" on="0"/>
        <pt x="92" y="-397" on="0"/>
        <pt x="99" y="-325" on="0"/>
        <pt x="89" y="-287" on="0"/>
        <pt x="79" y="-270" on="1"/>
        <pt x="56" y="-231" on="0"/>
        <pt x="25" y="-225" on="1"/>
        <pt x="31" y="-171" on="1"/>
      </contour>
    </TTGlyph>
    <TTGlyph name="copyright" xMin="178" yMin="52" xMax="1689" yMax="1559">
      <contour>
        <pt x="178" y="806" on="1"/>
        <pt x="178" y="910" on="0"/>
        <pt x="232" y="1103" on="0"/>
        <pt x="331" y="1271" on="0"/>
        <pt x="468" y="1408" on="0"/>
        <pt x="552" y="1457" on="1"/>
        <pt x="727" y="1559" on="0"/>
        <pt x="933" y="1559" on="1"/>
        <pt x="1246" y="1559" on="0"/>
        <pt x="1467" y="1340" on="1"/>
        <pt x="1608" y="1200" on="0"/>
        <pt x="1662" y="1006" on="1"/>
        <pt x="1689" y="910" on="0"/>
        <pt x="1689" y="701" on="0"/>
        <pt x="1635" y="508" on="0"/>
        <pt x="1536" y="341" on="0"/>
        <pt x="1398" y="203" on="0"/>
        <pt x="1314" y="154" on="1"/>
        <pt x="1136" y="52" on="0"/>
        <pt x="933" y="52" on="1"/>
        <pt x="730" y="52" on="0"/>
        <pt x="552" y="154" on="1"/>
        <pt x="384" y="251" on="0"/>
        <pt x="282" y="424" on="1"/>
        <pt x="178" y="599" on="0"/>
      </contour>
      <contour>
        <pt x="297" y="806" on="1"/>
        <pt x="297" y="537" on="0"/>
        <pt x="482" y="348" on="1"/>
        <pt x="667" y="158" on="0"/>
        <pt x="933" y="158" on="1"/>
        <pt x="1200" y="158" on="0"/>
        <pt x="1386" y="348" on="1"/>
        <pt x="1503" y="468" on="0"/>
        <pt x="1548" y="634" on="1"/>
        <pt x="1570" y="717" on="0"/>
        <pt x="1570" y="806" on="1"/>
        <pt x="1570" y="1073" on="0"/>
        <pt x="1386" y="1264" on="1"/>
        <pt x="1270" y="1383" on="0"/>
        <pt x="1104" y="1430" on="1"/>
        <pt x="1022" y="1454" on="0"/>
        <pt x="933" y="1454" on="1"/>
        <pt x="760" y="1454" on="0"/>
        <pt x="610" y="1365" on="1"/>
        <pt x="468" y="1281" on="0"/>
        <pt x="383" y="1132" on="1"/>
        <pt x="297" y="981" on="0"/>
      </contour>
      <contour>
        <pt x="1185" y="525" on="1"/>
        <pt x="1213" y="458" on="1"/>
        <pt x="1145" y="399" on="0"/>
        <pt x="1008" y="374" on="1"/>
        <pt x="965" y="366" on="0"/>
        <pt x="830" y="366" on="0"/>
        <pt x="690" y="435" on="0"/>
        <pt x="642" y="494" on="1"/>
        <pt x="542" y="617" on="0"/>
        <pt x="542" y="802" on="1"/>
        <pt x="542" y="805" on="0"/>
        <pt x="542" y="808" on="1"/>
        <pt x="542" y="991" on="0"/>
        <pt x="654" y="1114" on="1"/>
        <pt x="774" y="1247" on="0"/>
        <pt x="969" y="1247" on="1"/>
        <pt x="1132" y="1247" on="0"/>
        <pt x="1203" y="1209" on="1"/>
        <pt x="1203" y="1004" on="1"/>
        <pt x="1129" y="1004" on="1"/>
        <pt x="1075" y="1124" on="1"/>
        <pt x="1032" y="1163" on="0"/>
        <pt x="928" y="1163" on="1"/>
        <pt x="831" y="1163" on="0"/>
        <pt x="768" y="1090" on="1"/>
        <pt x="696" y="1007" on="0"/>
        <pt x="696" y="861" on="1"/>
        <pt x="696" y="857" on="0"/>
        <pt x="696" y="853" on="1"/>
        <pt x="696" y="666" on="0"/>
        <pt x="784" y="558" on="1"/>
        <pt x="860" y="465" on="0"/>
        <pt x="1072" y="465" on="0"/>
      </contour>
    </TTGlyph>
    <TTGlyph name="currency" xMin="229" yMin="130" xMax="1341" yMax="1249">
      <contour>
        <pt x="917" y="252" on="0"/>
        <pt x="647" y="252" on="0"/>
        <pt x="540" y="324" on="1"/>
        <pt x="346" y="130" on="1"/>
        <pt x="232" y="243" on="1"/>
        <pt x="424" y="435" on="1"/>
        <pt x="342" y="549" on="0"/>
        <pt x="342" y="828" on="0"/>
        <pt x="422" y="942" on="1"/>
        <pt x="229" y="1135" on="1"/>
        <pt x="342" y="1249" on="1"/>
        <pt x="536" y="1053" on="1"/>
        <pt x="650" y="1128" on="0"/>
        <pt x="923" y="1128" on="0"/>
        <pt x="1038" y="1047" on="1"/>
        <pt x="1228" y="1236" on="1"/>
        <pt x="1341" y="1122" on="1"/>
        <pt x="1150" y="931" on="1"/>
        <pt x="1222" y="821" on="0"/>
        <pt x="1222" y="555" on="0"/>
        <pt x="1145" y="442" on="1"/>
        <pt x="1339" y="248" on="1"/>
        <pt x="1225" y="135" on="1"/>
        <pt x="1031" y="328" on="1"/>
      </contour>
      <contour>
        <pt x="490" y="690" on="1"/>
        <pt x="490" y="564" on="0"/>
        <pt x="576" y="474" on="1"/>
        <pt x="661" y="385" on="0"/>
        <pt x="782" y="385" on="1"/>
        <pt x="903" y="385" on="0"/>
        <pt x="988" y="474" on="1"/>
        <pt x="1074" y="564" on="0"/>
        <pt x="1074" y="690" on="1"/>
        <pt x="1074" y="816" on="0"/>
        <pt x="988" y="906" on="1"/>
        <pt x="903" y="995" on="0"/>
        <pt x="782" y="995" on="1"/>
        <pt x="661" y="995" on="0"/>
        <pt x="576" y="906" on="1"/>
        <pt x="490" y="816" on="0"/>
      </contour>
    </TTGlyph>
    <TTGlyph name="d" xMin="83" yMin="-20" xMax="1135" yMax="1650">
      <contour>
        <pt x="844" y="-20" on="1"/>
        <pt x="724" y="-20" on="0"/>
        <pt x="724" y="103" on="1"/>
        <pt x="724" y="109" on="0"/>
        <pt x="724" y="115" on="1"/>
        <pt x="724" y="142" on="1"/>
        <pt x="636" y="33" on="0"/>
        <pt x="510" y="-6" on="1"/>
        <pt x="464" y="-20" on="0"/>
        <pt x="329" y="-20" on="0"/>
        <pt x="205" y="45" on="0"/>
        <pt x="164" y="102" on="1"/>
        <pt x="83" y="216" on="0"/>
        <pt x="83" y="412" on="1"/>
        <pt x="83" y="573" on="0"/>
        <pt x="160" y="744" on="1"/>
        <pt x="288" y="1030" on="0"/>
        <pt x="540" y="1128" on="1"/>
        <pt x="628" y="1163" on="0"/>
        <pt x="792" y="1163" on="0"/>
        <pt x="869" y="1145" on="1"/>
        <pt x="920" y="1482" on="1"/>
        <pt x="797" y="1525" on="1"/>
        <pt x="818" y="1608" on="1"/>
        <pt x="1082" y="1650" on="1"/>
        <pt x="1135" y="1623" on="1"/>
        <pt x="927" y="187" on="1"/>
        <pt x="916" y="111" on="0"/>
        <pt x="978" y="111" on="0"/>
        <pt x="1035" y="157" on="1"/>
        <pt x="1066" y="105" on="1"/>
        <pt x="1021" y="38" on="0"/>
        <pt x="924" y="-4" on="1"/>
        <pt x="886" y="-20" on="0"/>
      </contour>
      <contour>
        <pt x="846" y="997" on="1"/>
        <pt x="795" y="1041" on="0"/>
        <pt x="629" y="1041" on="0"/>
        <pt x="512" y="984" on="0"/>
        <pt x="420" y="887" on="0"/>
        <pt x="353" y="762" on="0"/>
        <pt x="331" y="694" on="1"/>
        <pt x="288" y="560" on="0"/>
        <pt x="288" y="279" on="0"/>
        <pt x="373" y="122" on="0"/>
        <pt x="446" y="122" on="1"/>
        <pt x="570" y="122" on="0"/>
        <pt x="686" y="238" on="1"/>
        <pt x="718" y="270" on="0"/>
        <pt x="740" y="300" on="1"/>
      </contour>
    </TTGlyph>
    <TTGlyph name="dagger" xMin="136" yMin="151" xMax="856" yMax="1646">
      <contour>
        <pt x="380" y="1008" on="1"/>
        <pt x="406" y="1127" on="1"/>
        <pt x="136" y="1127" on="1"/>
        <pt x="158" y="1277" on="1"/>
        <pt x="449" y="1277" on="1"/>
        <pt x="451" y="1325" on="0"/>
        <pt x="451" y="1421" on="0"/>
        <pt x="454" y="1469" on="1"/>
        <pt x="475" y="1646" on="1"/>
        <pt x="665" y="1646" on="1"/>
        <pt x="635" y="1469" on="1"/>
        <pt x="574" y="1277" on="1"/>
        <pt x="856" y="1277" on="1"/>
        <pt x="835" y="1127" on="1"/>
        <pt x="575" y="1127" on="1"/>
        <pt x="569" y="1008" on="1"/>
        <pt x="398" y="151" on="1"/>
        <pt x="281" y="151" on="1"/>
      </contour>
    </TTGlyph>
    <TTGlyph name="daggerdbl" xMin="136" yMin="-51" xMax="850" yMax="1646">
      <contour>
        <pt x="590" y="1127" on="1"/>
        <pt x="583" y="1059" on="0"/>
        <pt x="583" y="993" on="0"/>
        <pt x="583" y="981" on="1"/>
        <pt x="521" y="779" on="1"/>
        <pt x="756" y="779" on="1"/>
        <pt x="735" y="629" on="1"/>
        <pt x="521" y="629" on="1"/>
        <pt x="523" y="576" on="0"/>
        <pt x="514" y="510" on="1"/>
        <pt x="407" y="-51" on="1"/>
        <pt x="289" y="-51" on="1"/>
        <pt x="325" y="510" on="1"/>
        <pt x="351" y="629" on="1"/>
        <pt x="136" y="629" on="1"/>
        <pt x="160" y="779" on="1"/>
        <pt x="385" y="779" on="1"/>
        <pt x="384" y="981" on="1"/>
        <pt x="430" y="1127" on="1"/>
        <pt x="179" y="1127" on="1"/>
        <pt x="203" y="1277" on="1"/>
        <pt x="475" y="1277" on="1"/>
        <pt x="471" y="1469" on="1"/>
        <pt x="490" y="1646" on="1"/>
        <pt x="681" y="1646" on="1"/>
        <pt x="653" y="1469" on="1"/>
        <pt x="600" y="1277" on="1"/>
        <pt x="850" y="1277" on="1"/>
        <pt x="828" y="1127" on="1"/>
      </contour>
    </TTGlyph>
    <TTGlyph name="dcaron" xMin="83" yMin="-20" xMax="1461" yMax="1651">
      <component glyphName="caronvertical" x="1035" y="-29" flags="0x1004"/>
      <component glyphName="d" x="0" y="0" flags="0x1004"/>
    </TTGlyph>
    <TTGlyph name="dcroat" xMin="83" yMin="-20" xMax="1235" yMax="1650">
      <contour>
        <pt x="844" y="-20" on="1"/>
        <pt x="724" y="-20" on="0"/>
        <pt x="724" y="103" on="1"/>
        <pt x="724" y="109" on="0"/>
        <pt x="724" y="115" on="1"/>
        <pt x="724" y="142" on="1"/>
        <pt x="636" y="33" on="0"/>
        <pt x="510" y="-6" on="1"/>
        <pt x="464" y="-20" on="0"/>
        <pt x="329" y="-20" on="0"/>
        <pt x="205" y="45" on="0"/>
        <pt x="164" y="102" on="1"/>
        <pt x="83" y="216" on="0"/>
        <pt x="83" y="412" on="1"/>
        <pt x="83" y="573" on="0"/>
        <pt x="160" y="744" on="1"/>
        <pt x="288" y="1030" on="0"/>
        <pt x="540" y="1128" on="1"/>
        <pt x="628" y="1163" on="0"/>
        <pt x="792" y="1163" on="0"/>
        <pt x="869" y="1145" on="1"/>
        <pt x="886" y="1262" on="1"/>
        <pt x="637" y="1262" on="1"/>
        <pt x="653" y="1392" on="1"/>
        <pt x="906" y="1392" on="1"/>
        <pt x="920" y="1482" on="1"/>
        <pt x="797" y="1525" on="1"/>
        <pt x="818" y="1608" on="1"/>
        <pt x="1082" y="1650" on="1"/>
        <pt x="1135" y="1623" on="1"/>
        <pt x="1101" y="1392" on="1"/>
        <pt x="1235" y="1392" on="1"/>
        <pt x="1219" y="1262" on="1"/>
        <pt x="1082" y="1262" on="1"/>
        <pt x="927" y="187" on="1"/>
        <pt x="916" y="111" on="0"/>
        <pt x="978" y="111" on="0"/>
        <pt x="1035" y="157" on="1"/>
        <pt x="1066" y="105" on="1"/>
        <pt x="1021" y="38" on="0"/>
        <pt x="924" y="-4" on="1"/>
        <pt x="886" y="-20" on="0"/>
      </contour>
      <contour>
        <pt x="846" y="997" on="1"/>
        <pt x="795" y="1041" on="0"/>
        <pt x="629" y="1041" on="0"/>
        <pt x="512" y="984" on="0"/>
        <pt x="420" y="887" on="0"/>
        <pt x="353" y="762" on="0"/>
        <pt x="331" y="694" on="1"/>
        <pt x="288" y="560" on="0"/>
        <pt x="288" y="279" on="0"/>
        <pt x="373" y="122" on="0"/>
        <pt x="446" y="122" on="1"/>
        <pt x="570" y="122" on="0"/>
        <pt x="686" y="238" on="1"/>
        <pt x="718" y="270" on="0"/>
        <pt x="740" y="300" on="1"/>
      </contour>
    </TTGlyph>
    <TTGlyph name="degree" xMin="203" yMin="955" xMax="865" yMax="1600">
      <contour>
        <pt x="524" y="955" on="1"/>
        <pt x="454" y="955" on="0"/>
        <pt x="395" y="980" on="1"/>
        <pt x="274" y="1033" on="0"/>
        <pt x="226" y="1153" on="1"/>
        <pt x="204" y="1210" on="0"/>
        <pt x="204" y="1242" on="1"/>
        <pt x="204" y="1345" on="0"/>
        <pt x="257" y="1464" on="0"/>
        <pt x="302" y="1508" on="1"/>
        <pt x="398" y="1600" on="0"/>
        <pt x="542" y="1600" on="1"/>
        <pt x="679" y="1600" on="0"/>
        <pt x="774" y="1506" on="1"/>
        <pt x="864" y="1415" on="0"/>
        <pt x="864" y="1283" on="1"/>
        <pt x="864" y="1141" on="0"/>
        <pt x="764" y="1047" on="1"/>
        <pt x="667" y="955" on="0"/>
      </contour>
      <contour>
        <pt x="531" y="1076" on="1"/>
        <pt x="572" y="1076" on="0"/>
        <pt x="642" y="1106" on="0"/>
        <pt x="668" y="1133" on="1"/>
        <pt x="724" y="1191" on="0"/>
        <pt x="724" y="1283" on="1"/>
        <pt x="724" y="1363" on="0"/>
        <pt x="671" y="1420" on="1"/>
        <pt x="616" y="1479" on="0"/>
        <pt x="537" y="1479" on="1"/>
        <pt x="453" y="1479" on="0"/>
        <pt x="400" y="1422" on="1"/>
        <pt x="344" y="1363" on="0"/>
        <pt x="344" y="1272" on="1"/>
        <pt x="344" y="1192" on="0"/>
        <pt x="396" y="1136" on="1"/>
        <pt x="452" y="1076" on="0"/>
      </contour>
    </TTGlyph>
    <TTGlyph name="dieresis" xMin="60" yMin="1388" xMax="749" yMax="1651">
      <contour>
        <pt x="513" y="1424" on="1"/>
        <pt x="456" y="1482" on="0"/>
        <pt x="494" y="1562" on="1"/>
        <pt x="521" y="1616" on="0"/>
        <pt x="573" y="1640" on="1"/>
        <pt x="599" y="1651" on="0"/>
        <pt x="654" y="1651" on="0"/>
        <pt x="678" y="1642" on="1"/>
        <pt x="748" y="1613" on="0"/>
        <pt x="748" y="1541" on="1"/>
        <pt x="748" y="1478" on="0"/>
        <pt x="701" y="1432" on="1"/>
        <pt x="655" y="1388" on="0"/>
        <pt x="614" y="1388" on="1"/>
        <pt x="547" y="1388" on="0"/>
      </contour>
      <contour>
        <pt x="130" y="1398" on="1"/>
        <pt x="61" y="1428" on="0"/>
        <pt x="61" y="1503" on="1"/>
        <pt x="61" y="1562" on="0"/>
        <pt x="107" y="1608" on="1"/>
        <pt x="150" y="1651" on="0"/>
        <pt x="234" y="1651" on="0"/>
        <pt x="258" y="1642" on="1"/>
        <pt x="328" y="1613" on="0"/>
        <pt x="328" y="1541" on="1"/>
        <pt x="328" y="1478" on="0"/>
        <pt x="281" y="1432" on="1"/>
        <pt x="235" y="1388" on="0"/>
        <pt x="152" y="1388" on="0"/>
      </contour>
    </TTGlyph>
    <TTGlyph name="dieresis.cap" xMin="57" yMin="1696" xMax="743" yMax="1959">
      <contour>
        <pt x="475" y="1765" on="0"/>
        <pt x="475" y="1844" on="0"/>
        <pt x="503" y="1896" on="0"/>
        <pt x="524" y="1916" on="1"/>
        <pt x="569" y="1959" on="0"/>
        <pt x="649" y="1959" on="0"/>
        <pt x="672" y="1950" on="1"/>
        <pt x="742" y="1921" on="0"/>
        <pt x="742" y="1848" on="1"/>
        <pt x="742" y="1786" on="0"/>
        <pt x="695" y="1740" on="1"/>
        <pt x="649" y="1696" on="0"/>
        <pt x="608" y="1696" on="1"/>
        <pt x="544" y="1696" on="0"/>
      </contour>
      <contour>
        <pt x="66" y="1770" on="1"/>
        <pt x="58" y="1789" on="0"/>
        <pt x="58" y="1812" on="0"/>
        <pt x="59" y="1844" on="0"/>
        <pt x="86" y="1896" on="0"/>
        <pt x="106" y="1916" on="1"/>
        <pt x="151" y="1959" on="0"/>
        <pt x="230" y="1959" on="0"/>
        <pt x="253" y="1950" on="1"/>
        <pt x="323" y="1921" on="0"/>
        <pt x="323" y="1848" on="1"/>
        <pt x="323" y="1787" on="0"/>
        <pt x="275" y="1740" on="1"/>
        <pt x="229" y="1696" on="0"/>
        <pt x="188" y="1696" on="1"/>
        <pt x="95" y="1696" on="0"/>
      </contour>
    </TTGlyph>
    <TTGlyph name="divide" xMin="274" yMin="252" xMax="1161" yMax="1298">
      <contour>
        <pt x="832" y="1047" on="0"/>
        <pt x="773" y="1026" on="0"/>
        <pt x="719" y="1026" on="0"/>
        <pt x="672" y="1043" on="0"/>
        <pt x="654" y="1059" on="1"/>
        <pt x="617" y="1093" on="0"/>
        <pt x="626" y="1182" on="0"/>
        <pt x="661" y="1236" on="0"/>
        <pt x="686" y="1256" on="1"/>
        <pt x="738" y="1298" on="0"/>
        <pt x="833" y="1298" on="0"/>
        <pt x="882" y="1278" on="0"/>
        <pt x="896" y="1261" on="1"/>
        <pt x="925" y="1227" on="0"/>
        <pt x="915" y="1140" on="0"/>
        <pt x="881" y="1086" on="0"/>
      </contour>
      <contour>
        <pt x="292" y="853" on="1"/>
        <pt x="1161" y="853" on="1"/>
        <pt x="1143" y="696" on="1"/>
        <pt x="274" y="696" on="1"/>
      </contour>
      <contour>
        <pt x="575" y="269" on="0"/>
        <pt x="541" y="301" on="0"/>
        <pt x="526" y="342" on="0"/>
        <pt x="526" y="400" on="0"/>
        <pt x="565" y="462" on="0"/>
        <pt x="590" y="482" on="1"/>
        <pt x="643" y="524" on="0"/>
        <pt x="737" y="524" on="0"/>
        <pt x="761" y="514" on="1"/>
        <pt x="823" y="488" on="0"/>
        <pt x="823" y="416" on="1"/>
        <pt x="823" y="343" on="0"/>
        <pt x="761" y="292" on="1"/>
        <pt x="711" y="252" on="0"/>
        <pt x="622" y="252" on="0"/>
      </contour>
    </TTGlyph>
    <TTGlyph name="dollar" xMin="109" yMin="-230" xMax="1115" yMax="1729">
      <contour>
        <pt x="853" y="1544" on="1"/>
        <pt x="1025" y="1527" on="0"/>
        <pt x="1115" y="1465" on="1"/>
        <pt x="1068" y="1220" on="1"/>
        <pt x="952" y="1220" on="1"/>
        <pt x="916" y="1384" on="1"/>
        <pt x="864" y="1423" on="0"/>
        <pt x="761" y="1438" on="1"/>
        <pt x="730" y="1443" on="0"/>
        <pt x="663" y="1443" on="0"/>
        <pt x="573" y="1417" on="0"/>
        <pt x="534" y="1388" on="1"/>
        <pt x="434" y="1312" on="0"/>
        <pt x="434" y="1173" on="1"/>
        <pt x="434" y="1031" on="0"/>
        <pt x="602" y="916" on="1"/>
        <pt x="653" y="882" on="0"/>
        <pt x="710" y="846" on="1"/>
        <pt x="828" y="770" on="1"/>
        <pt x="1044" y="626" on="0"/>
        <pt x="1044" y="429" on="1"/>
        <pt x="1044" y="242" on="0"/>
        <pt x="913" y="120" on="1"/>
        <pt x="791" y="6" on="0"/>
        <pt x="598" y="-17" on="1"/>
        <pt x="563" y="-230" on="1"/>
        <pt x="383" y="-230" on="1"/>
        <pt x="417" y="-19" on="1"/>
        <pt x="257" y="-4" on="0"/>
        <pt x="153" y="40" on="1"/>
        <pt x="124" y="53" on="0"/>
        <pt x="109" y="65" on="1"/>
        <pt x="154" y="343" on="1"/>
        <pt x="280" y="343" on="1"/>
        <pt x="302" y="159" on="1"/>
        <pt x="394" y="82" on="0"/>
        <pt x="550" y="82" on="1"/>
        <pt x="661" y="82" on="0"/>
        <pt x="747" y="146" on="1"/>
        <pt x="858" y="227" on="0"/>
        <pt x="858" y="364" on="1"/>
        <pt x="858" y="505" on="0"/>
        <pt x="696" y="614" on="1"/>
        <pt x="472" y="762" on="1"/>
        <pt x="253" y="910" on="0"/>
        <pt x="253" y="1121" on="1"/>
        <pt x="253" y="1296" on="0"/>
        <pt x="376" y="1414" on="1"/>
        <pt x="493" y="1525" on="0"/>
        <pt x="673" y="1546" on="1"/>
        <pt x="703" y="1729" on="1"/>
        <pt x="884" y="1729" on="1"/>
      </contour>
    </TTGlyph>
    <TTGlyph name="dotaccent" xMin="60" yMin="1388" xMax="328" yMax="1651">
      <contour>
        <pt x="178" y="1388" on="1"/>
        <pt x="152" y="1388" on="0"/>
        <pt x="130" y="1398" on="1"/>
        <pt x="61" y="1428" on="0"/>
        <pt x="61" y="1503" on="1"/>
        <pt x="61" y="1563" on="0"/>
        <pt x="110" y="1608" on="1"/>
        <pt x="156" y="1651" on="0"/>
        <pt x="234" y="1651" on="0"/>
        <pt x="257" y="1642" on="1"/>
        <pt x="327" y="1613" on="0"/>
        <pt x="327" y="1541" on="1"/>
        <pt x="327" y="1480" on="0"/>
        <pt x="280" y="1432" on="1"/>
        <pt x="235" y="1388" on="0"/>
      </contour>
    </TTGlyph>
    <TTGlyph name="dotaccent.cap" xMin="60" yMin="1691" xMax="329" yMax="1954">
      <contour>
        <pt x="130" y="1700" on="1"/>
        <pt x="61" y="1731" on="0"/>
        <pt x="61" y="1805" on="1"/>
        <pt x="61" y="1864" on="0"/>
        <pt x="110" y="1911" on="1"/>
        <pt x="155" y="1954" on="0"/>
        <pt x="233" y="1954" on="0"/>
        <pt x="256" y="1944" on="1"/>
        <pt x="328" y="1916" on="0"/>
        <pt x="328" y="1843" on="1"/>
        <pt x="328" y="1782" on="0"/>
        <pt x="280" y="1736" on="1"/>
        <pt x="234" y="1691" on="0"/>
        <pt x="152" y="1691" on="0"/>
      </contour>
    </TTGlyph>
    <TTGlyph name="dotlessi" xMin="140" yMin="-20" xMax="531" yMax="1163">
      <contour>
        <pt x="286" y="-20" on="1"/>
        <pt x="162" y="-20" on="0"/>
        <pt x="162" y="94" on="1"/>
        <pt x="162" y="162" on="0"/>
        <pt x="195" y="368" on="1"/>
        <pt x="288" y="980" on="1"/>
        <pt x="140" y="1031" on="1"/>
        <pt x="158" y="1112" on="1"/>
        <pt x="460" y="1163" on="1"/>
        <pt x="509" y="1139" on="1"/>
        <pt x="370" y="187" on="1"/>
        <pt x="367" y="168" on="0"/>
        <pt x="367" y="154" on="1"/>
        <pt x="367" y="111" on="0"/>
        <pt x="392" y="111" on="1"/>
        <pt x="429" y="111" on="0"/>
        <pt x="499" y="178" on="1"/>
        <pt x="531" y="125" on="1"/>
        <pt x="481" y="47" on="0"/>
        <pt x="372" y="-2" on="1"/>
        <pt x="331" y="-20" on="0"/>
      </contour>
    </TTGlyph>
    <TTGlyph name="dotlessj" xMin="-209" yMin="-518" xMax="507" yMax="1163">
      <contour>
        <pt x="-174" y="-400" on="1"/>
        <pt x="-146" y="-412" on="0"/>
        <pt x="-31" y="-412" on="0"/>
        <pt x="71" y="-331" on="0"/>
        <pt x="105" y="-264" on="1"/>
        <pt x="164" y="-147" on="0"/>
        <pt x="188" y="65" on="1"/>
        <pt x="286" y="980" on="1"/>
        <pt x="130" y="1031" on="1"/>
        <pt x="148" y="1112" on="1"/>
        <pt x="459" y="1163" on="1"/>
        <pt x="507" y="1139" on="1"/>
        <pt x="377" y="0" on="1"/>
        <pt x="348" y="-248" on="0"/>
        <pt x="224" y="-386" on="1"/>
        <pt x="107" y="-518" on="0"/>
        <pt x="-69" y="-518" on="1"/>
        <pt x="-174" y="-518" on="0"/>
        <pt x="-209" y="-481" on="1"/>
      </contour>
    </TTGlyph>
    <TTGlyph name="e" xMin="85" yMin="-20" xMax="960" yMax="1163">
      <contour>
        <pt x="510" y="119" on="1"/>
        <pt x="693" y="119" on="0"/>
        <pt x="850" y="265" on="1"/>
        <pt x="896" y="182" on="1"/>
        <pt x="846" y="110" on="0"/>
        <pt x="742" y="52" on="1"/>
        <pt x="617" y="-20" on="0"/>
        <pt x="380" y="-20" on="0"/>
        <pt x="304" y="18" on="1"/>
        <pt x="154" y="92" on="0"/>
        <pt x="106" y="263" on="1"/>
        <pt x="86" y="337" on="0"/>
        <pt x="86" y="423" on="0"/>
        <pt x="89" y="524" on="0"/>
        <pt x="132" y="706" on="0"/>
        <pt x="208" y="869" on="0"/>
        <pt x="313" y="1007" on="0"/>
        <pt x="378" y="1057" on="1"/>
        <pt x="516" y="1163" on="0"/>
        <pt x="676" y="1163" on="1"/>
        <pt x="884" y="1163" on="0"/>
        <pt x="942" y="1012" on="1"/>
        <pt x="960" y="966" on="0"/>
        <pt x="960" y="836" on="0"/>
        <pt x="888" y="709" on="0"/>
        <pt x="772" y="609" on="0"/>
        <pt x="626" y="536" on="0"/>
        <pt x="552" y="512" on="1"/>
        <pt x="403" y="462" on="0"/>
        <pt x="295" y="460" on="1"/>
        <pt x="293" y="439" on="0"/>
        <pt x="293" y="403" on="0"/>
        <pt x="295" y="353" on="0"/>
        <pt x="313" y="277" on="0"/>
        <pt x="345" y="206" on="0"/>
        <pt x="370" y="179" on="1"/>
        <pt x="426" y="119" on="0"/>
      </contour>
      <contour>
        <pt x="300" y="570" on="1"/>
        <pt x="446" y="577" on="0"/>
        <pt x="588" y="660" on="1"/>
        <pt x="689" y="718" on="0"/>
        <pt x="732" y="802" on="1"/>
        <pt x="755" y="845" on="0"/>
        <pt x="755" y="975" on="0"/>
        <pt x="685" y="1046" on="0"/>
        <pt x="578" y="1046" on="0"/>
        <pt x="492" y="999" on="0"/>
        <pt x="423" y="921" on="0"/>
        <pt x="368" y="821" on="0"/>
        <pt x="348" y="768" on="1"/>
        <pt x="312" y="668" on="0"/>
      </contour>
    </TTGlyph>
    <TTGlyph name="eacute" xMin="85" yMin="-20" xMax="994" yMax="1743">
      <component glyphName="e" x="0" y="0" flags="0x1204"/>
      <component glyphName="acute" x="485" y="0" flags="0x1004"/>
    </TTGlyph>
    <TTGlyph name="ebreve" xMin="85" yMin="-20" xMax="976" yMax="1651">
      <component glyphName="e" x="0" y="0" flags="0x1204"/>
      <component glyphName="breve" x="299" y="0" flags="0x1004"/>
    </TTGlyph>
    <TTGlyph name="ecaron" xMin="85" yMin="-20" xMax="1022" yMax="1650">
      <component glyphName="e" x="0" y="0" flags="0x1204"/>
      <component glyphName="caron" x="258" y="0" flags="0x1004"/>
    </TTGlyph>
    <TTGlyph name="ecircumflex" xMin="85" yMin="-20" xMax="975" yMax="1650">
      <component glyphName="e" x="0" y="0" flags="0x1204"/>
      <component glyphName="circumflex" x="230" y="0" flags="0x1004"/>
    </TTGlyph>
    <TTGlyph name="edieresis" xMin="85" yMin="-20" xMax="1013" yMax="1651">
      <component glyphName="e" x="0" y="0" flags="0x1204"/>
      <component glyphName="dieresis" x="264" y="0" flags="0x1004"/>
    </TTGlyph>
    <TTGlyph name="edotaccent" xMin="85" yMin="-20" xMax="960" yMax="1651">
      <component glyphName="e" x="0" y="0" flags="0x1204"/>
      <component glyphName="dotaccent" x="479" y="0" flags="0x1004"/>
    </TTGlyph>
    <TTGlyph name="egrave" xMin="85" yMin="-20" xMax="960" yMax="1743">
      <component glyphName="e" x="0" y="0" flags="0x1204"/>
      <component glyphName="grave" x="207" y="0" flags="0x1004"/>
    </TTGlyph>
    <TTGlyph name="eight" xMin="123" yMin="-20" xMax="1138" yMax="1550">
      <contour>
        <pt x="801" y="797" on="1"/>
        <pt x="1071" y="610" on="0"/>
        <pt x="1071" y="388" on="1"/>
        <pt x="1071" y="199" on="0"/>
        <pt x="911" y="84" on="1"/>
        <pt x="765" y="-20" on="0"/>
        <pt x="555" y="-20" on="1"/>
        <pt x="382" y="-20" on="0"/>
        <pt x="262" y="64" on="1"/>
        <pt x="123" y="161" on="0"/>
        <pt x="123" y="333" on="1"/>
        <pt x="123" y="608" on="0"/>
        <pt x="500" y="807" on="1"/>
        <pt x="298" y="970" on="0"/>
        <pt x="298" y="1158" on="1"/>
        <pt x="298" y="1347" on="0"/>
        <pt x="431" y="1452" on="1"/>
        <pt x="555" y="1550" on="0"/>
        <pt x="764" y="1550" on="1"/>
        <pt x="929" y="1550" on="0"/>
        <pt x="1032" y="1464" on="1"/>
        <pt x="1138" y="1377" on="0"/>
        <pt x="1138" y="1227" on="1"/>
        <pt x="1138" y="987" on="0"/>
      </contour>
      <contour>
        <pt x="708" y="863" on="1"/>
        <pt x="872" y="937" on="0"/>
        <pt x="924" y="1100" on="1"/>
        <pt x="941" y="1153" on="0"/>
        <pt x="941" y="1273" on="0"/>
        <pt x="910" y="1363" on="0"/>
        <pt x="883" y="1392" on="1"/>
        <pt x="829" y="1451" on="0"/>
        <pt x="742" y="1451" on="1"/>
        <pt x="636" y="1451" on="0"/>
        <pt x="562" y="1374" on="1"/>
        <pt x="488" y="1296" on="0"/>
        <pt x="488" y="1184" on="1"/>
        <pt x="488" y="1048" on="0"/>
        <pt x="622" y="931" on="1"/>
        <pt x="662" y="896" on="0"/>
      </contour>
      <contour>
        <pt x="356" y="486" on="1"/>
        <pt x="336" y="429" on="0"/>
        <pt x="335" y="305" on="0"/>
        <pt x="369" y="201" on="0"/>
        <pt x="402" y="164" on="1"/>
        <pt x="470" y="86" on="0"/>
        <pt x="585" y="86" on="1"/>
        <pt x="706" y="86" on="0"/>
        <pt x="786" y="162" on="1"/>
        <pt x="868" y="240" on="0"/>
        <pt x="868" y="360" on="1"/>
        <pt x="868" y="557" on="0"/>
        <pt x="586" y="744" on="1"/>
        <pt x="418" y="662" on="0"/>
      </contour>
    </TTGlyph>
    <TTGlyph name="ellipsis" xMin="85" yMin="-23" xMax="1419" yMax="250">
      <contour>
        <pt x="1149" y="27" on="0"/>
        <pt x="1135" y="74" on="0"/>
        <pt x="1143" y="134" on="0"/>
        <pt x="1172" y="188" on="0"/>
        <pt x="1194" y="208" on="1"/>
        <pt x="1242" y="250" on="0"/>
        <pt x="1333" y="250" on="0"/>
        <pt x="1358" y="240" on="1"/>
        <pt x="1418" y="215" on="0"/>
        <pt x="1418" y="143" on="1"/>
        <pt x="1418" y="68" on="0"/>
        <pt x="1358" y="18" on="1"/>
        <pt x="1310" y="-22" on="0"/>
        <pt x="1222" y="-22" on="0"/>
        <pt x="1179" y="-5" on="0"/>
      </contour>
      <contour>
        <pt x="623" y="27" on="0"/>
        <pt x="609" y="74" on="0"/>
        <pt x="617" y="134" on="0"/>
        <pt x="646" y="188" on="0"/>
        <pt x="668" y="208" on="1"/>
        <pt x="716" y="250" on="0"/>
        <pt x="807" y="250" on="0"/>
        <pt x="832" y="240" on="1"/>
        <pt x="892" y="215" on="0"/>
        <pt x="892" y="143" on="1"/>
        <pt x="892" y="68" on="0"/>
        <pt x="832" y="18" on="1"/>
        <pt x="784" y="-22" on="0"/>
        <pt x="696" y="-22" on="0"/>
        <pt x="653" y="-5" on="0"/>
      </contour>
      <contour>
        <pt x="127" y="-5" on="0"/>
        <pt x="97" y="27" on="0"/>
        <pt x="86" y="65" on="0"/>
        <pt x="86" y="124" on="0"/>
        <pt x="120" y="188" on="0"/>
        <pt x="142" y="208" on="1"/>
        <pt x="190" y="250" on="0"/>
        <pt x="281" y="250" on="0"/>
        <pt x="306" y="240" on="1"/>
        <pt x="366" y="215" on="0"/>
        <pt x="366" y="143" on="1"/>
        <pt x="366" y="68" on="0"/>
        <pt x="306" y="18" on="1"/>
        <pt x="258" y="-22" on="0"/>
        <pt x="170" y="-22" on="0"/>
      </contour>
    </TTGlyph>
    <TTGlyph name="emacron" xMin="85" yMin="-20" xMax="960" yMax="1574">
      <component glyphName="e" x="0" y="0" flags="0x1204"/>
      <component glyphName="macron" x="330" y="0" flags="0x1004"/>
    </TTGlyph>
    <TTGlyph name="emdash" xMin="232" yMin="694" xMax="1852" yMax="851">
      <contour>
        <pt x="261" y="851" on="1"/>
        <pt x="1852" y="851" on="1"/>
        <pt x="1822" y="694" on="1"/>
        <pt x="232" y="694" on="1"/>
      </contour>
    </TTGlyph>
    <TTGlyph name="endash" xMin="232" yMin="694" xMax="1359" yMax="851">
      <contour>
        <pt x="262" y="851" on="1"/>
        <pt x="1359" y="851" on="1"/>
        <pt x="1329" y="694" on="1"/>
        <pt x="232" y="694" on="1"/>
      </contour>
    </TTGlyph>
    <TTGlyph name="eng" xMin="135" yMin="-518" xMax="1090" yMax="1162">
      <contour>
        <pt x="426" y="-400" on="1"/>
        <pt x="454" y="-412" on="0"/>
        <pt x="569" y="-412" on="0"/>
        <pt x="669" y="-330" on="0"/>
        <pt x="704" y="-263" on="1"/>
        <pt x="773" y="-128" on="0"/>
        <pt x="824" y="234" on="1"/>
        <pt x="845" y="382" on="1"/>
        <pt x="889" y="708" on="0"/>
        <pt x="889" y="907" on="0"/>
        <pt x="874" y="966" on="0"/>
        <pt x="859" y="982" on="1"/>
        <pt x="836" y="1005" on="0"/>
        <pt x="737" y="1005" on="0"/>
        <pt x="648" y="967" on="0"/>
        <pt x="603" y="933" on="1"/>
        <pt x="508" y="861" on="0"/>
        <pt x="432" y="755" on="1"/>
        <pt x="330" y="0" on="1"/>
        <pt x="135" y="0" on="1"/>
        <pt x="263" y="943" on="1"/>
        <pt x="271" y="941" on="1"/>
        <pt x="164" y="1005" on="1"/>
        <pt x="182" y="1094" on="1"/>
        <pt x="424" y="1146" on="1"/>
        <pt x="472" y="1122" on="1"/>
        <pt x="455" y="926" on="1"/>
        <pt x="588" y="1089" on="0"/>
        <pt x="752" y="1144" on="1"/>
        <pt x="807" y="1162" on="0"/>
        <pt x="863" y="1162" on="1"/>
        <pt x="1089" y="1162" on="0"/>
        <pt x="1089" y="888" on="1"/>
        <pt x="1089" y="650" on="0"/>
        <pt x="1019" y="211" on="1"/>
        <pt x="1001" y="99" on="0"/>
        <pt x="981" y="0" on="1"/>
        <pt x="877" y="-518" on="0"/>
        <pt x="531" y="-518" on="1"/>
        <pt x="426" y="-518" on="0"/>
        <pt x="391" y="-481" on="1"/>
      </contour>
    </TTGlyph>
    <TTGlyph name="eogonek" xMin="85" yMin="-416" xMax="960" yMax="1163">
      <contour>
        <pt x="610" y="-3" on="1"/>
        <pt x="548" y="-20" on="0"/>
        <pt x="380" y="-20" on="0"/>
        <pt x="304" y="18" on="1"/>
        <pt x="154" y="92" on="0"/>
        <pt x="106" y="263" on="1"/>
        <pt x="86" y="337" on="0"/>
        <pt x="86" y="423" on="0"/>
        <pt x="89" y="524" on="0"/>
        <pt x="132" y="706" on="0"/>
        <pt x="208" y="869" on="0"/>
        <pt x="313" y="1007" on="0"/>
        <pt x="378" y="1057" on="1"/>
        <pt x="516" y="1163" on="0"/>
        <pt x="676" y="1163" on="1"/>
        <pt x="884" y="1163" on="0"/>
        <pt x="942" y="1012" on="1"/>
        <pt x="960" y="966" on="0"/>
        <pt x="960" y="836" on="0"/>
        <pt x="888" y="709" on="0"/>
        <pt x="772" y="609" on="0"/>
        <pt x="626" y="536" on="0"/>
        <pt x="552" y="512" on="1"/>
        <pt x="403" y="462" on="0"/>
        <pt x="295" y="460" on="1"/>
        <pt x="293" y="439" on="0"/>
        <pt x="293" y="403" on="0"/>
        <pt x="295" y="353" on="0"/>
        <pt x="313" y="277" on="0"/>
        <pt x="345" y="206" on="0"/>
        <pt x="370" y="179" on="1"/>
        <pt x="426" y="119" on="0"/>
        <pt x="510" y="119" on="1"/>
        <pt x="693" y="119" on="0"/>
        <pt x="850" y="265" on="1"/>
        <pt x="896" y="182" on="1"/>
        <pt x="858" y="132" on="0"/>
        <pt x="799" y="88" on="1"/>
        <pt x="656" y="-34" on="0"/>
        <pt x="594" y="-142" on="1"/>
        <pt x="549" y="-218" on="0"/>
        <pt x="589" y="-268" on="1"/>
        <pt x="604" y="-287" on="0"/>
        <pt x="625" y="-287" on="1"/>
        <pt x="680" y="-287" on="0"/>
        <pt x="755" y="-228" on="1"/>
        <pt x="781" y="-322" on="1"/>
        <pt x="670" y="-416" on="0"/>
        <pt x="531" y="-416" on="1"/>
        <pt x="456" y="-416" on="0"/>
        <pt x="413" y="-372" on="1"/>
        <pt x="376" y="-333" on="0"/>
        <pt x="378" y="-291" on="1"/>
        <pt x="382" y="-202" on="0"/>
        <pt x="442" y="-126" on="0"/>
        <pt x="490" y="-80" on="0"/>
        <pt x="538" y="-45" on="0"/>
        <pt x="586" y="-17" on="0"/>
      </contour>
      <contour>
        <pt x="300" y="570" on="1"/>
        <pt x="446" y="577" on="0"/>
        <pt x="588" y="660" on="1"/>
        <pt x="689" y="718" on="0"/>
        <pt x="732" y="802" on="1"/>
        <pt x="755" y="845" on="0"/>
        <pt x="755" y="975" on="0"/>
        <pt x="685" y="1046" on="0"/>
        <pt x="578" y="1046" on="0"/>
        <pt x="492" y="999" on="0"/>
        <pt x="423" y="921" on="0"/>
        <pt x="368" y="821" on="0"/>
        <pt x="348" y="768" on="1"/>
        <pt x="312" y="668" on="0"/>
      </contour>
    </TTGlyph>
    <TTGlyph name="equal" xMin="80" yMin="339" xMax="983" yMax="1005">
      <contour>
        <pt x="168" y="1005" on="1"/>
        <pt x="983" y="1005" on="1"/>
        <pt x="965" y="848" on="1"/>
        <pt x="150" y="848" on="1"/>
      </contour>
      <contour>
        <pt x="98" y="496" on="1"/>
        <pt x="913" y="496" on="1"/>
        <pt x="895" y="339" on="1"/>
        <pt x="80" y="339" on="1"/>
      </contour>
    </TTGlyph>
    <TTGlyph name="estimated" xMin="115" yMin="-16" xMax="1280" yMax="1357">
      <contour>
        <pt x="1280" y="832" on="1"/>
        <pt x="1280" y="683" on="0"/>
        <pt x="1269" y="631" on="1"/>
        <pt x="375" y="631" on="1"/>
        <pt x="375" y="280" on="1"/>
        <pt x="486" y="101" on="0"/>
        <pt x="760" y="101" on="1"/>
        <pt x="933" y="101" on="0"/>
        <pt x="1121" y="195" on="1"/>
        <pt x="1160" y="82" on="1"/>
        <pt x="1065" y="14" on="0"/>
        <pt x="850" y="-10" on="1"/>
        <pt x="790" y="-16" on="0"/>
        <pt x="738" y="-16" on="1"/>
        <pt x="446" y="-16" on="0"/>
        <pt x="280" y="166" on="1"/>
        <pt x="115" y="347" on="0"/>
        <pt x="115" y="671" on="1"/>
        <pt x="115" y="976" on="0"/>
        <pt x="271" y="1158" on="1"/>
        <pt x="441" y="1356" on="0"/>
        <pt x="753" y="1356" on="1"/>
        <pt x="968" y="1356" on="0"/>
        <pt x="1115" y="1219" on="1"/>
        <pt x="1272" y="1073" on="0"/>
      </contour>
      <contour>
        <pt x="1036" y="1109" on="1"/>
        <pt x="943" y="1238" on="0"/>
        <pt x="488" y="1238" on="0"/>
        <pt x="375" y="1053" on="1"/>
        <pt x="375" y="768" on="1"/>
        <pt x="1036" y="768" on="1"/>
      </contour>
    </TTGlyph>
    <TTGlyph name="eth" xMin="86" yMin="-20" xMax="1085" yMax="1771">
      <contour>
        <pt x="782" y="1513" on="1"/>
        <pt x="1085" y="1246" on="0"/>
        <pt x="1085" y="822" on="1"/>
        <pt x="1085" y="461" on="0"/>
        <pt x="931" y="228" on="1"/>
        <pt x="767" y="-20" on="0"/>
        <pt x="482" y="-20" on="1"/>
        <pt x="293" y="-20" on="0"/>
        <pt x="183" y="121" on="1"/>
        <pt x="86" y="246" on="0"/>
        <pt x="86" y="423" on="1"/>
        <pt x="86" y="733" on="0"/>
        <pt x="258" y="927" on="1"/>
        <pt x="421" y="1110" on="0"/>
        <pt x="642" y="1110" on="1"/>
        <pt x="761" y="1110" on="0"/>
        <pt x="838" y="1048" on="1"/>
        <pt x="866" y="1026" on="0"/>
        <pt x="885" y="995" on="1"/>
        <pt x="847" y="1151" on="0"/>
        <pt x="819" y="1211" on="1"/>
        <pt x="769" y="1319" on="0"/>
        <pt x="681" y="1399" on="1"/>
        <pt x="531" y="1231" on="1"/>
        <pt x="431" y="1319" on="1"/>
        <pt x="583" y="1482" on="1"/>
        <pt x="435" y="1593" on="0"/>
        <pt x="341" y="1615" on="1"/>
        <pt x="384" y="1734" on="1"/>
        <pt x="502" y="1706" on="0"/>
        <pt x="681" y="1589" on="1"/>
        <pt x="757" y="1675" on="0"/>
        <pt x="783" y="1707" on="1"/>
        <pt x="783" y="1707" on="0"/>
        <pt x="835" y="1771" on="1"/>
        <pt x="932" y="1680" on="1"/>
      </contour>
      <contour>
        <pt x="297" y="411" on="1"/>
        <pt x="297" y="274" on="0"/>
        <pt x="350" y="184" on="1"/>
        <pt x="407" y="88" on="0"/>
        <pt x="507" y="88" on="1"/>
        <pt x="632" y="88" on="0"/>
        <pt x="730" y="224" on="1"/>
        <pt x="852" y="393" on="0"/>
        <pt x="873" y="728" on="1"/>
        <pt x="873" y="731" on="0"/>
        <pt x="873" y="749" on="0"/>
        <pt x="864" y="798" on="0"/>
        <pt x="841" y="858" on="0"/>
        <pt x="804" y="919" on="0"/>
        <pt x="778" y="943" on="1"/>
        <pt x="717" y="998" on="0"/>
        <pt x="576" y="998" on="0"/>
        <pt x="479" y="948" on="0"/>
        <pt x="404" y="861" on="0"/>
        <pt x="349" y="745" on="0"/>
        <pt x="332" y="680" on="1"/>
        <pt x="297" y="552" on="0"/>
      </contour>
    </TTGlyph>
    <TTGlyph name="exclam" xMin="136" yMin="-22" xMax="636" yMax="1778">
      <contour>
        <pt x="391" y="1778" on="1"/>
        <pt x="636" y="1778" on="1"/>
        <pt x="393" y="488" on="1"/>
        <pt x="255" y="488" on="1"/>
      </contour>
      <contour>
        <pt x="178" y="-5" on="0"/>
        <pt x="148" y="27" on="0"/>
        <pt x="137" y="65" on="0"/>
        <pt x="137" y="124" on="0"/>
        <pt x="171" y="188" on="0"/>
        <pt x="193" y="208" on="1"/>
        <pt x="241" y="250" on="0"/>
        <pt x="332" y="250" on="0"/>
        <pt x="356" y="240" on="1"/>
        <pt x="417" y="215" on="0"/>
        <pt x="417" y="143" on="1"/>
        <pt x="417" y="68" on="0"/>
        <pt x="357" y="18" on="1"/>
        <pt x="309" y="-22" on="0"/>
        <pt x="221" y="-22" on="0"/>
      </contour>
    </TTGlyph>
    <TTGlyph name="exclamdbl" xMin="136" yMin="-22" xMax="1252" yMax="1778">
      <component glyphName="exclam" x="0" y="0" flags="0x1004"/>
      <component glyphName="exclam" x="616" y="0" flags="0x1004"/>
    </TTGlyph>
    <TTGlyph name="exclamdown" xMin="82" yMin="-434" xMax="583" yMax="1366">
      <component glyphName="exclam" x="719" y="1344" scale="-0.99997" flags="0x1004"/>
    </TTGlyph>
    <TTGlyph name="f" xMin="-207" yMin="-514" xMax="882" yMax="1670">
      <contour>
        <pt x="268" y="1012" on="1"/>
        <pt x="129" y="1012" on="1"/>
        <pt x="144" y="1087" on="1"/>
        <pt x="293" y="1149" on="1"/>
        <pt x="305" y="1220" on="1"/>
        <pt x="334" y="1403" on="0"/>
        <pt x="460" y="1538" on="1"/>
        <pt x="584" y="1670" on="0"/>
        <pt x="724" y="1670" on="1"/>
        <pt x="824" y="1670" on="0"/>
        <pt x="882" y="1644" on="1"/>
        <pt x="823" y="1476" on="1"/>
        <pt x="800" y="1492" on="1"/>
        <pt x="750" y="1524" on="0"/>
        <pt x="642" y="1524" on="0"/>
        <pt x="582" y="1482" on="0"/>
        <pt x="560" y="1445" on="1"/>
        <pt x="517" y="1375" on="0"/>
        <pt x="500" y="1243" on="1"/>
        <pt x="489" y="1155" on="1"/>
        <pt x="724" y="1155" on="1"/>
        <pt x="708" y="1012" on="1"/>
        <pt x="471" y="1012" on="1"/>
        <pt x="337" y="-59" on="1"/>
        <pt x="311" y="-261" on="0"/>
        <pt x="206" y="-386" on="1"/>
        <pt x="100" y="-513" on="0"/>
        <pt x="-64" y="-513" on="1"/>
        <pt x="-156" y="-513" on="0"/>
        <pt x="-207" y="-500" on="1"/>
        <pt x="-154" y="-332" on="1"/>
        <pt x="-59" y="-370" on="0"/>
        <pt x="11" y="-370" on="1"/>
        <pt x="97" y="-370" on="0"/>
        <pt x="130" y="-127" on="1"/>
      </contour>
    </TTGlyph>
    <TTGlyph name="f_f" xMin="-205" yMin="-514" xMax="1589" yMax="1670">
      <component glyphName="f" x="2" y="0" flags="0x1004"/>
      <component glyphName="f" x="707" y="0" flags="0x1004"/>
    </TTGlyph>
    <TTGlyph name="f_f_i" xMin="-205" yMin="-514" xMax="1994" yMax="1670">
      <component glyphName="f" x="2" y="0" flags="0x1004"/>
      <component glyphName="f" x="707" y="0" flags="0x1004"/>
      <component glyphName="dotaccent" x="1666" y="0" flags="0x1004"/>
      <component glyphName="dotlessi" x="1410" y="0" flags="0x1004"/>
    </TTGlyph>
    <TTGlyph name="f_f_l" xMin="-205" yMin="-514" xMax="1950" yMax="1670">
      <component glyphName="f" x="2" y="0" flags="0x1004"/>
      <component glyphName="f" x="707" y="0" flags="0x1004"/>
      <component glyphName="l" x="1410" y="0" flags="0x1004"/>
    </TTGlyph>
    <TTGlyph name="f_i" xMin="-205" yMin="-514" xMax="1289" yMax="1670">
      <component glyphName="f" x="2" y="0" flags="0x1004"/>
      <component glyphName="dotaccent" x="961" y="0" flags="0x1004"/>
      <component glyphName="dotlessi" x="705" y="0" flags="0x1004"/>
    </TTGlyph>
    <TTGlyph name="f_l" xMin="-205" yMin="-514" xMax="1245" yMax="1670">
      <component glyphName="f" x="2" y="0" flags="0x1004"/>
      <component glyphName="l" x="705" y="0" flags="0x1004"/>
    </TTGlyph>
    <TTGlyph name="ffi_dflt" xMin="-205" yMin="-514" xMax="1994" yMax="1670">
      <component glyphName="f" x="2" y="0" flags="0x1004"/>
      <component glyphName="f" x="707" y="0" flags="0x1004"/>
      <component glyphName="dotaccent" x="1666" y="0" flags="0x1004"/>
      <component glyphName="dotlessi" x="1410" y="0" flags="0x1004"/>
    </TTGlyph>
    <TTGlyph name="fi_trk" xMin="-205" yMin="-514" xMax="1289" yMax="1670">
      <component glyphName="f" x="2" y="0" flags="0x1004"/>
      <component glyphName="dotaccent" x="961" y="0" flags="0x1004"/>
      <component glyphName="dotlessi" x="705" y="0" flags="0x1004"/>
    </TTGlyph>
    <TTGlyph name="five" xMin="46" yMin="-346" xMax="1051" yMax="1162">
      <contour>
        <pt x="59" y="-239" on="1"/>
        <pt x="94" y="-245" on="0"/>
        <pt x="250" y="-245" on="0"/>
        <pt x="462" y="-185" on="0"/>
        <pt x="544" y="-130" on="1"/>
        <pt x="726" y="-10" on="0"/>
        <pt x="726" y="170" on="1"/>
        <pt x="726" y="393" on="0"/>
        <pt x="569" y="446" on="1"/>
        <pt x="521" y="463" on="0"/>
        <pt x="360" y="463" on="0"/>
        <pt x="201" y="410" on="1"/>
        <pt x="153" y="448" on="1"/>
        <pt x="324" y="1146" on="1"/>
        <pt x="861" y="1146" on="1"/>
        <pt x="883" y="1162" on="1"/>
        <pt x="1051" y="1162" on="1"/>
        <pt x="993" y="977" on="1"/>
        <pt x="457" y="977" on="1"/>
        <pt x="341" y="551" on="1"/>
        <pt x="445" y="580" on="0"/>
        <pt x="650" y="580" on="0"/>
        <pt x="798" y="530" on="0"/>
        <pt x="850" y="480" on="1"/>
        <pt x="957" y="377" on="0"/>
        <pt x="957" y="188" on="1"/>
        <pt x="957" y="46" on="0"/>
        <pt x="836" y="-81" on="1"/>
        <pt x="722" y="-200" on="0"/>
        <pt x="540" y="-273" on="1"/>
        <pt x="360" y="-346" on="0"/>
        <pt x="176" y="-346" on="1"/>
        <pt x="97" y="-346" on="0"/>
        <pt x="46" y="-329" on="1"/>
      </contour>
    </TTGlyph>
    <TTGlyph name="florin" xMin="195" yMin="-356" xMax="1018" yMax="1690">
      <contour>
        <pt x="791" y="1674" on="1"/>
        <pt x="839" y="1690" on="0"/>
        <pt x="984" y="1690" on="0"/>
        <pt x="1018" y="1673" on="1"/>
        <pt x="1007" y="1503" on="1"/>
        <pt x="993" y="1511" on="0"/>
        <pt x="899" y="1534" on="0"/>
        <pt x="789" y="1534" on="0"/>
        <pt x="718" y="1520" on="0"/>
        <pt x="690" y="1494" on="1"/>
        <pt x="630" y="1440" on="0"/>
        <pt x="617" y="1285" on="1"/>
        <pt x="600" y="1140" on="1"/>
        <pt x="908" y="1140" on="1"/>
        <pt x="897" y="1005" on="1"/>
        <pt x="589" y="1005" on="1"/>
        <pt x="417" y="-356" on="1"/>
        <pt x="239" y="-356" on="1"/>
        <pt x="411" y="1005" on="1"/>
        <pt x="195" y="1005" on="1"/>
        <pt x="201" y="1081" on="1"/>
        <pt x="421" y="1140" on="1"/>
        <pt x="429" y="1203" on="1"/>
        <pt x="446" y="1413" on="0"/>
        <pt x="602" y="1558" on="1"/>
        <pt x="691" y="1642" on="0"/>
      </contour>
    </TTGlyph>
    <TTGlyph name="four" xMin="26" yMin="-375" xMax="1136" yMax="1256">
      <contour>
        <pt x="26" y="94" on="1"/>
        <pt x="26" y="94" on="0"/>
        <pt x="202" y="366" on="1"/>
        <pt x="372" y="642" on="1"/>
        <pt x="544" y="934" on="1"/>
        <pt x="728" y="1256" on="1"/>
        <pt x="835" y="1256" on="1"/>
        <pt x="917" y="1167" on="1"/>
        <pt x="300" y="219" on="1"/>
        <pt x="221" y="120" on="1"/>
        <pt x="697" y="148" on="1"/>
        <pt x="755" y="591" on="1"/>
        <pt x="948" y="649" on="1"/>
        <pt x="885" y="159" on="1"/>
        <pt x="1136" y="174" on="1"/>
        <pt x="1115" y="0" on="1"/>
        <pt x="865" y="0" on="1"/>
        <pt x="818" y="-375" on="1"/>
        <pt x="629" y="-375" on="1"/>
        <pt x="678" y="0" on="1"/>
        <pt x="62" y="0" on="1"/>
      </contour>
    </TTGlyph>
    <TTGlyph name="foursuperior" xMin="132" yMin="471" xMax="1146" yMax="1761">
      <contour>
        <pt x="661" y="814" on="1"/>
        <pt x="169" y="814" on="1"/>
        <pt x="132" y="909" on="1"/>
        <pt x="738" y="1760" on="1"/>
        <pt x="826" y="1761" on="1"/>
        <pt x="919" y="1657" on="1"/>
        <pt x="401" y="1014" on="1"/>
        <pt x="322" y="922" on="1"/>
        <pt x="680" y="951" on="1"/>
        <pt x="718" y="1223" on="1"/>
        <pt x="920" y="1246" on="1"/>
        <pt x="882" y="967" on="1"/>
        <pt x="1146" y="989" on="1"/>
        <pt x="1126" y="814" on="1"/>
        <pt x="862" y="814" on="1"/>
        <pt x="816" y="471" on="1"/>
        <pt x="613" y="471" on="1"/>
      </contour>
    </TTGlyph>
    <TTGlyph name="fraction" xMin="92" yMin="0" xMax="932" yMax="1530">
      <contour>
        <pt x="773" y="1530" on="1"/>
        <pt x="932" y="1530" on="1"/>
        <pt x="251" y="0" on="1"/>
        <pt x="92" y="0" on="1"/>
      </contour>
    </TTGlyph>
    <TTGlyph name="g" xMin="83" yMin="-508" xMax="1068" yMax="1163">
      <contour>
        <pt x="540" y="1128" on="1"/>
        <pt x="628" y="1163" on="0"/>
        <pt x="838" y="1163" on="0"/>
        <pt x="948" y="1121" on="1"/>
        <pt x="1068" y="1163" on="1"/>
        <pt x="875" y="-77" on="1"/>
        <pt x="842" y="-296" on="0"/>
        <pt x="662" y="-411" on="1"/>
        <pt x="511" y="-508" on="0"/>
        <pt x="338" y="-508" on="1"/>
        <pt x="206" y="-508" on="0"/>
        <pt x="119" y="-473" on="1"/>
        <pt x="169" y="-288" on="1"/>
        <pt x="299" y="-350" on="0"/>
        <pt x="436" y="-350" on="1"/>
        <pt x="563" y="-350" on="0"/>
        <pt x="608" y="-310" on="1"/>
        <pt x="651" y="-271" on="0"/>
        <pt x="671" y="-145" on="1"/>
        <pt x="716" y="133" on="1"/>
        <pt x="630" y="30" on="0"/>
        <pt x="506" y="-7" on="1"/>
        <pt x="462" y="-20" on="0"/>
        <pt x="329" y="-20" on="0"/>
        <pt x="205" y="45" on="0"/>
        <pt x="164" y="102" on="1"/>
        <pt x="83" y="216" on="0"/>
        <pt x="83" y="412" on="1"/>
        <pt x="83" y="573" on="0"/>
        <pt x="160" y="744" on="1"/>
        <pt x="288" y="1030" on="0"/>
      </contour>
      <contour>
        <pt x="843" y="1000" on="1"/>
        <pt x="791" y="1041" on="0"/>
        <pt x="629" y="1041" on="0"/>
        <pt x="512" y="984" on="0"/>
        <pt x="420" y="887" on="0"/>
        <pt x="353" y="762" on="0"/>
        <pt x="331" y="694" on="1"/>
        <pt x="288" y="560" on="0"/>
        <pt x="288" y="279" on="0"/>
        <pt x="373" y="122" on="0"/>
        <pt x="446" y="122" on="1"/>
        <pt x="570" y="122" on="0"/>
        <pt x="688" y="240" on="1"/>
        <pt x="720" y="272" on="0"/>
        <pt x="742" y="302" on="1"/>
      </contour>
    </TTGlyph>
    <TTGlyph name="gbreve" xMin="83" yMin="-508" xMax="1068" yMax="1651">
      <component glyphName="g" x="0" y="0" flags="0x1204"/>
      <component glyphName="breve" x="365" y="0" flags="0x1004"/>
    </TTGlyph>
    <TTGlyph name="gcircumflex" xMin="83" yMin="-508" xMax="1068" yMax="1650">
      <component glyphName="g" x="0" y="0" flags="0x1204"/>
      <component glyphName="circumflex" x="296" y="0" flags="0x1004"/>
    </TTGlyph>
    <TTGlyph name="gcommaaccent" xMin="83" yMin="-508" xMax="1068" yMax="1805">
      <contour>
        <pt x="701" y="1296" on="1"/>
        <pt x="636" y="1309" on="0"/>
        <pt x="598" y="1377" on="1"/>
        <pt x="568" y="1430" on="0"/>
        <pt x="568" y="1494" on="1"/>
        <pt x="568" y="1612" on="0"/>
        <pt x="660" y="1712" on="1"/>
        <pt x="731" y="1789" on="0"/>
        <pt x="800" y="1805" on="1"/>
        <pt x="840" y="1765" on="1"/>
        <pt x="837" y="1739" on="1"/>
        <pt x="799" y="1710" on="0"/>
        <pt x="764" y="1642" on="0"/>
        <pt x="757" y="1570" on="0"/>
        <pt x="767" y="1532" on="0"/>
        <pt x="777" y="1515" on="1"/>
        <pt x="800" y="1476" on="0"/>
        <pt x="831" y="1470" on="1"/>
        <pt x="825" y="1416" on="1"/>
      </contour>
      <contour>
        <pt x="540" y="1128" on="1"/>
        <pt x="628" y="1163" on="0"/>
        <pt x="838" y="1163" on="0"/>
        <pt x="948" y="1121" on="1"/>
        <pt x="1068" y="1163" on="1"/>
        <pt x="875" y="-77" on="1"/>
        <pt x="842" y="-296" on="0"/>
        <pt x="662" y="-411" on="1"/>
        <pt x="511" y="-508" on="0"/>
        <pt x="338" y="-508" on="1"/>
        <pt x="206" y="-508" on="0"/>
        <pt x="119" y="-473" on="1"/>
        <pt x="169" y="-288" on="1"/>
        <pt x="299" y="-350" on="0"/>
        <pt x="436" y="-350" on="1"/>
        <pt x="563" y="-350" on="0"/>
        <pt x="608" y="-310" on="1"/>
        <pt x="651" y="-271" on="0"/>
        <pt x="671" y="-145" on="1"/>
        <pt x="716" y="133" on="1"/>
        <pt x="630" y="30" on="0"/>
        <pt x="506" y="-7" on="1"/>
        <pt x="462" y="-20" on="0"/>
        <pt x="329" y="-20" on="0"/>
        <pt x="205" y="45" on="0"/>
        <pt x="164" y="102" on="1"/>
        <pt x="83" y="216" on="0"/>
        <pt x="83" y="412" on="1"/>
        <pt x="83" y="573" on="0"/>
        <pt x="160" y="744" on="1"/>
        <pt x="288" y="1030" on="0"/>
      </contour>
      <contour>
        <pt x="843" y="1000" on="1"/>
        <pt x="791" y="1041" on="0"/>
        <pt x="629" y="1041" on="0"/>
        <pt x="512" y="984" on="0"/>
        <pt x="420" y="887" on="0"/>
        <pt x="353" y="762" on="0"/>
        <pt x="331" y="694" on="1"/>
        <pt x="288" y="560" on="0"/>
        <pt x="288" y="279" on="0"/>
        <pt x="373" y="122" on="0"/>
        <pt x="446" y="122" on="1"/>
        <pt x="570" y="122" on="0"/>
        <pt x="688" y="240" on="1"/>
        <pt x="720" y="272" on="0"/>
        <pt x="742" y="302" on="1"/>
      </contour>
    </TTGlyph>
    <TTGlyph name="gdotaccent" xMin="83" yMin="-508" xMax="1068" yMax="1651">
      <component glyphName="g" x="0" y="0" flags="0x1204"/>
      <component glyphName="dotaccent" x="545" y="0" flags="0x1004"/>
    </TTGlyph>
    <TTGlyph name="germandbls" xMin="73" yMin="-16" xMax="1091" yMax="1585">
      <contour>
        <pt x="202" y="927" on="1"/>
        <pt x="279" y="1532" on="0"/>
        <pt x="663" y="1578" on="1"/>
        <pt x="721" y="1585" on="0"/>
        <pt x="843" y="1585" on="0"/>
        <pt x="959" y="1548" on="0"/>
        <pt x="1001" y="1512" on="1"/>
        <pt x="1091" y="1433" on="0"/>
        <pt x="1091" y="1293" on="1"/>
        <pt x="1091" y="1134" on="0"/>
        <pt x="962" y="1018" on="1"/>
        <pt x="900" y="962" on="1"/>
        <pt x="833" y="898" on="0"/>
        <pt x="833" y="803" on="0"/>
        <pt x="894" y="704" on="0"/>
        <pt x="957" y="626" on="1"/>
        <pt x="998" y="563" on="1"/>
        <pt x="1070" y="450" on="0"/>
        <pt x="1070" y="328" on="1"/>
        <pt x="1070" y="188" on="0"/>
        <pt x="941" y="85" on="1"/>
        <pt x="814" y="-16" on="0"/>
        <pt x="645" y="-16" on="1"/>
        <pt x="518" y="-16" on="0"/>
        <pt x="424" y="31" on="1"/>
        <pt x="450" y="218" on="1"/>
        <pt x="503" y="156" on="0"/>
        <pt x="610" y="126" on="1"/>
        <pt x="645" y="116" on="0"/>
        <pt x="715" y="116" on="0"/>
        <pt x="783" y="130" on="0"/>
        <pt x="808" y="150" on="1"/>
        <pt x="864" y="192" on="0"/>
        <pt x="864" y="298" on="1"/>
        <pt x="864" y="398" on="0"/>
        <pt x="786" y="523" on="1"/>
        <pt x="652" y="681" on="0"/>
        <pt x="652" y="793" on="1"/>
        <pt x="652" y="856" on="0"/>
        <pt x="696" y="930" on="0"/>
        <pt x="715" y="952" on="1"/>
        <pt x="756" y="999" on="1"/>
        <pt x="889" y="1134" on="0"/>
        <pt x="889" y="1287" on="1"/>
        <pt x="889" y="1409" on="0"/>
        <pt x="794" y="1450" on="1"/>
        <pt x="761" y="1464" on="0"/>
        <pt x="658" y="1464" on="0"/>
        <pt x="556" y="1400" on="0"/>
        <pt x="514" y="1329" on="1"/>
        <pt x="429" y="1185" on="0"/>
        <pt x="388" y="867" on="1"/>
        <pt x="267" y="0" on="1"/>
        <pt x="73" y="0" on="1"/>
      </contour>
    </TTGlyph>
    <TTGlyph name="grave" xMin="50" yMin="1251" xMax="491" yMax="1743">
      <contour>
        <pt x="436" y="1251" on="1"/>
        <pt x="325" y="1298" on="0"/>
        <pt x="160" y="1450" on="1"/>
        <pt x="80" y="1523" on="0"/>
        <pt x="50" y="1576" on="1"/>
        <pt x="203" y="1743" on="1"/>
        <pt x="491" y="1311" on="1"/>
      </contour>
    </TTGlyph>
    <TTGlyph name="grave.cap" xMin="50" yMin="1613" xMax="446" yMax="2000">
      <contour>
        <pt x="390" y="1613" on="1"/>
        <pt x="302" y="1645" on="0"/>
        <pt x="226" y="1694" on="1"/>
        <pt x="81" y="1789" on="0"/>
        <pt x="50" y="1862" on="1"/>
        <pt x="183" y="2000" on="1"/>
        <pt x="446" y="1658" on="1"/>
      </contour>
    </TTGlyph>
    <TTGlyph name="greater" xMin="249" yMin="178" xMax="1275" yMax="1327">
      <component glyphName="less" x="1470" y="1503" scale="-0.99997" flags="0x1004"/>
    </TTGlyph>
    <TTGlyph name="greaterequal" xMin="141" yMin="-2" xMax="1212" yMax="1204">
      <contour>
        <pt x="221" y="428" on="1"/>
        <pt x="956" y="726" on="1"/>
        <pt x="299" y="1021" on="1"/>
        <pt x="323" y="1204" on="1"/>
        <pt x="1212" y="767" on="1"/>
        <pt x="1202" y="689" on="1"/>
        <pt x="197" y="246" on="1"/>
      </contour>
      <contour>
        <pt x="161" y="148" on="1"/>
        <pt x="1109" y="148" on="1"/>
        <pt x="1089" y="-2" on="1"/>
        <pt x="141" y="-2" on="1"/>
      </contour>
    </TTGlyph>
    <TTGlyph name="guillemotleft" xMin="224" yMin="152" xMax="1651" yMax="1086">
      <component glyphName="guilsinglleft" x="-18" y="0" flags="0x1004"/>
      <component glyphName="guilsinglleft" x="657" y="0" flags="0x1004"/>
    </TTGlyph>
    <TTGlyph name="guillemotright" xMin="130" yMin="151" xMax="1559" yMax="1086">
      <component glyphName="guilsinglleft" x="1125" y="1238" scale="-0.99997" flags="0x1004"/>
      <component glyphName="guilsinglleft" x="1801" y="1238" scale="-0.99997" flags="0x1004"/>
    </TTGlyph>
    <TTGlyph name="guilsinglleft" xMin="242" yMin="152" xMax="994" yMax="1086">
      <contour>
        <pt x="264" y="690" on="1"/>
        <pt x="956" y="1086" on="1"/>
        <pt x="994" y="971" on="1"/>
        <pt x="484" y="615" on="1"/>
        <pt x="898" y="264" on="1"/>
        <pt x="828" y="152" on="1"/>
        <pt x="242" y="530" on="1"/>
      </contour>
    </TTGlyph>
    <TTGlyph name="guilsinglright" xMin="126" yMin="151" xMax="879" yMax="1086">
      <component glyphName="guilsinglleft" x="1121" y="1238" scale="-0.99997" flags="0x1004"/>
    </TTGlyph>
    <TTGlyph name="h" xMin="119" yMin="-20" xMax="1135" yMax="1650">
      <contour>
        <pt x="890" y="-20" on="1"/>
        <pt x="760" y="-20" on="0"/>
        <pt x="767" y="111" on="1"/>
        <pt x="772" y="197" on="0"/>
        <pt x="809" y="401" on="0"/>
        <pt x="824" y="487" on="0"/>
        <pt x="844" y="590" on="0"/>
        <pt x="852" y="644" on="1"/>
        <pt x="872" y="766" on="0"/>
        <pt x="872" y="904" on="0"/>
        <pt x="854" y="966" on="0"/>
        <pt x="838" y="982" on="1"/>
        <pt x="814" y="1005" on="0"/>
        <pt x="719" y="1005" on="0"/>
        <pt x="629" y="966" on="0"/>
        <pt x="584" y="932" on="1"/>
        <pt x="487" y="859" on="0"/>
        <pt x="413" y="750" on="1"/>
        <pt x="313" y="0" on="1"/>
        <pt x="119" y="0" on="1"/>
        <pt x="312" y="1482" on="1"/>
        <pt x="194" y="1525" on="1"/>
        <pt x="211" y="1608" on="1"/>
        <pt x="477" y="1650" on="1"/>
        <pt x="529" y="1623" on="1"/>
        <pt x="434" y="911" on="1"/>
        <pt x="566" y="1088" on="0"/>
        <pt x="730" y="1144" on="1"/>
        <pt x="787" y="1163" on="0"/>
        <pt x="898" y="1163" on="0"/>
        <pt x="981" y="1132" on="0"/>
        <pt x="1010" y="1096" on="1"/>
        <pt x="1072" y="1022" on="0"/>
        <pt x="1072" y="861" on="1"/>
        <pt x="1072" y="772" on="0"/>
        <pt x="1050" y="659" on="1"/>
        <pt x="1021" y="505" on="1"/>
        <pt x="995" y="346" on="1"/>
        <pt x="968" y="176" on="0"/>
        <pt x="983" y="110" on="0"/>
        <pt x="997" y="110" on="1"/>
        <pt x="1032" y="110" on="0"/>
        <pt x="1104" y="166" on="1"/>
        <pt x="1135" y="114" on="1"/>
        <pt x="1114" y="79" on="0"/>
        <pt x="1066" y="46" on="1"/>
        <pt x="969" y="-20" on="0"/>
      </contour>
    </TTGlyph>
    <TTGlyph name="hbar" xMin="119" yMin="-20" xMax="1135" yMax="1650">
      <contour>
        <pt x="890" y="-20" on="1"/>
        <pt x="760" y="-20" on="0"/>
        <pt x="767" y="111" on="1"/>
        <pt x="772" y="197" on="0"/>
        <pt x="809" y="401" on="0"/>
        <pt x="824" y="487" on="0"/>
        <pt x="844" y="590" on="0"/>
        <pt x="852" y="644" on="1"/>
        <pt x="872" y="766" on="0"/>
        <pt x="872" y="904" on="0"/>
        <pt x="854" y="966" on="0"/>
        <pt x="838" y="982" on="1"/>
        <pt x="814" y="1005" on="0"/>
        <pt x="719" y="1005" on="0"/>
        <pt x="629" y="966" on="0"/>
        <pt x="584" y="932" on="1"/>
        <pt x="487" y="859" on="0"/>
        <pt x="413" y="750" on="1"/>
        <pt x="313" y="0" on="1"/>
        <pt x="119" y="0" on="1"/>
        <pt x="283" y="1262" on="1"/>
        <pt x="126" y="1262" on="1"/>
        <pt x="142" y="1392" on="1"/>
        <pt x="300" y="1392" on="1"/>
        <pt x="312" y="1482" on="1"/>
        <pt x="194" y="1525" on="1"/>
        <pt x="211" y="1608" on="1"/>
        <pt x="477" y="1650" on="1"/>
        <pt x="529" y="1623" on="1"/>
        <pt x="498" y="1392" on="1"/>
        <pt x="724" y="1392" on="1"/>
        <pt x="708" y="1262" on="1"/>
        <pt x="481" y="1262" on="1"/>
        <pt x="434" y="911" on="1"/>
        <pt x="566" y="1088" on="0"/>
        <pt x="730" y="1144" on="1"/>
        <pt x="787" y="1163" on="0"/>
        <pt x="898" y="1163" on="0"/>
        <pt x="981" y="1132" on="0"/>
        <pt x="1010" y="1096" on="1"/>
        <pt x="1072" y="1022" on="0"/>
        <pt x="1072" y="861" on="1"/>
        <pt x="1072" y="772" on="0"/>
        <pt x="1050" y="659" on="1"/>
        <pt x="1021" y="505" on="1"/>
        <pt x="995" y="346" on="1"/>
        <pt x="968" y="176" on="0"/>
        <pt x="983" y="110" on="0"/>
        <pt x="997" y="110" on="1"/>
        <pt x="1032" y="110" on="0"/>
        <pt x="1104" y="166" on="1"/>
        <pt x="1135" y="114" on="1"/>
        <pt x="1114" y="79" on="0"/>
        <pt x="1066" y="46" on="1"/>
        <pt x="969" y="-20" on="0"/>
      </contour>
    </TTGlyph>
    <TTGlyph name="hcircumflex" xMin="119" yMin="-20" xMax="1135" yMax="1796">
      <contour>
        <pt x="890" y="-20" on="1"/>
        <pt x="760" y="-20" on="0"/>
        <pt x="767" y="111" on="1"/>
        <pt x="772" y="197" on="0"/>
        <pt x="809" y="401" on="0"/>
        <pt x="824" y="487" on="0"/>
        <pt x="844" y="590" on="0"/>
        <pt x="852" y="644" on="1"/>
        <pt x="872" y="766" on="0"/>
        <pt x="872" y="904" on="0"/>
        <pt x="854" y="966" on="0"/>
        <pt x="838" y="982" on="1"/>
        <pt x="814" y="1005" on="0"/>
        <pt x="719" y="1005" on="0"/>
        <pt x="629" y="966" on="0"/>
        <pt x="584" y="932" on="1"/>
        <pt x="487" y="859" on="0"/>
        <pt x="413" y="750" on="1"/>
        <pt x="313" y="0" on="1"/>
        <pt x="119" y="0" on="1"/>
        <pt x="312" y="1482" on="1"/>
        <pt x="194" y="1525" on="1"/>
        <pt x="211" y="1608" on="1"/>
        <pt x="477" y="1650" on="1"/>
        <pt x="529" y="1623" on="1"/>
        <pt x="521" y="1566" on="1"/>
        <pt x="735" y="1796" on="1"/>
        <pt x="912" y="1796" on="1"/>
        <pt x="1124" y="1468" on="1"/>
        <pt x="1056" y="1409" on="1"/>
        <pt x="815" y="1638" on="1"/>
        <pt x="501" y="1417" on="1"/>
        <pt x="434" y="911" on="1"/>
        <pt x="566" y="1088" on="0"/>
        <pt x="730" y="1144" on="1"/>
        <pt x="787" y="1163" on="0"/>
        <pt x="898" y="1163" on="0"/>
        <pt x="981" y="1132" on="0"/>
        <pt x="1010" y="1096" on="1"/>
        <pt x="1072" y="1022" on="0"/>
        <pt x="1072" y="861" on="1"/>
        <pt x="1072" y="772" on="0"/>
        <pt x="1050" y="659" on="1"/>
        <pt x="1021" y="505" on="1"/>
        <pt x="995" y="346" on="1"/>
        <pt x="968" y="176" on="0"/>
        <pt x="983" y="110" on="0"/>
        <pt x="997" y="110" on="1"/>
        <pt x="1032" y="110" on="0"/>
        <pt x="1104" y="166" on="1"/>
        <pt x="1135" y="114" on="1"/>
        <pt x="1114" y="79" on="0"/>
        <pt x="1066" y="46" on="1"/>
        <pt x="969" y="-20" on="0"/>
      </contour>
    </TTGlyph>
    <TTGlyph name="hungarumlaut" xMin="50" yMin="1252" xMax="867" yMax="1712">
      <contour>
        <pt x="475" y="1296" on="1"/>
        <pt x="722" y="1712" on="1"/>
        <pt x="867" y="1594" on="1"/>
        <pt x="845" y="1514" on="0"/>
        <pt x="734" y="1398" on="1"/>
        <pt x="620" y="1279" on="0"/>
        <pt x="540" y="1252" on="1"/>
      </contour>
      <contour>
        <pt x="50" y="1296" on="1"/>
        <pt x="287" y="1712" on="1"/>
        <pt x="432" y="1595" on="1"/>
        <pt x="407" y="1510" on="0"/>
        <pt x="302" y="1399" on="1"/>
        <pt x="202" y="1293" on="0"/>
        <pt x="114" y="1252" on="1"/>
      </contour>
    </TTGlyph>
    <TTGlyph name="hungarumlaut.cap" xMin="60" yMin="1580" xMax="922" yMax="2000">
      <contour>
        <pt x="475" y="1625" on="1"/>
        <pt x="787" y="2000" on="1"/>
        <pt x="922" y="1881" on="1"/>
        <pt x="871" y="1795" on="0"/>
        <pt x="746" y="1701" on="1"/>
        <pt x="623" y="1609" on="0"/>
        <pt x="529" y="1580" on="1"/>
      </contour>
      <contour>
        <pt x="60" y="1625" on="1"/>
        <pt x="372" y="2000" on="1"/>
        <pt x="505" y="1882" on="1"/>
        <pt x="471" y="1802" on="0"/>
        <pt x="333" y="1702" on="1"/>
        <pt x="210" y="1611" on="0"/>
        <pt x="114" y="1580" on="1"/>
      </contour>
    </TTGlyph>
    <TTGlyph name="hyphen" xMin="232" yMin="693" xMax="1087" yMax="851">
      <contour>
        <pt x="250" y="851" on="1"/>
        <pt x="1087" y="851" on="1"/>
        <pt x="1069" y="693" on="1"/>
        <pt x="232" y="693" on="1"/>
      </contour>
    </TTGlyph>
    <TTGlyph name="i" xMin="140" yMin="-20" xMax="584" yMax="1651">
      <component glyphName="dotaccent" x="256" y="0" flags="0x1004"/>
      <component glyphName="dotlessi" x="0" y="0" flags="0x1004"/>
    </TTGlyph>
    <TTGlyph name="i.cy" xMin="140" yMin="-20" xMax="584" yMax="1651">
      <component glyphName="dotaccent" x="256" y="0" flags="0x1004"/>
      <component glyphName="dotlessi" x="0" y="0" flags="0x1004"/>
    </TTGlyph>
    <TTGlyph name="i.dot" xMin="140" yMin="-20" xMax="584" yMax="1651">
      <component glyphName="dotaccent" x="256" y="0" flags="0x1004"/>
      <component glyphName="dotlessi" x="0" y="0" flags="0x1004"/>
    </TTGlyph>
    <TTGlyph name="i.uc" xMin="30" yMin="0" xMax="710" yMax="1954">
      <component glyphName="dotaccent.cap" x="300" y="0" flags="0x1004"/>
      <component glyphName="I" x="0" y="0" flags="0x1004"/>
    </TTGlyph>
    <TTGlyph name="iacute" xMin="140" yMin="-20" xMax="785" yMax="1743">
      <component glyphName="dotlessi" x="0" y="0" flags="0x1204"/>
      <component glyphName="acute" x="276" y="0" flags="0x1004"/>
    </TTGlyph>
    <TTGlyph name="ibreve" xMin="140" yMin="-20" xMax="767" yMax="1651">
      <component glyphName="dotlessi" x="0" y="0" flags="0x1204"/>
      <component glyphName="breve" x="90" y="0" flags="0x1004"/>
    </TTGlyph>
    <TTGlyph name="icircumflex" xMin="71" yMin="-20" xMax="766" yMax="1650">
      <component glyphName="dotlessi" x="0" y="0" flags="0x1204"/>
      <component glyphName="circumflex" x="21" y="0" flags="0x1004"/>
    </TTGlyph>
    <TTGlyph name="idieresis" xMin="115" yMin="-20" xMax="804" yMax="1651">
      <component glyphName="dotlessi" x="0" y="0" flags="0x1204"/>
      <component glyphName="dieresis" x="55" y="0" flags="0x1004"/>
    </TTGlyph>
    <TTGlyph name="igrave" xMin="49" yMin="-20" xMax="531" yMax="1743">
      <component glyphName="dotlessi" x="0" y="0" flags="0x1204"/>
      <component glyphName="grave" x="-1" y="0" flags="0x1004"/>
    </TTGlyph>
    <TTGlyph name="ij" xMin="140" yMin="-518" xMax="1225" yMax="1651">
      <component glyphName="dotaccent" x="256" y="0" flags="0x1004"/>
      <component glyphName="dotlessi" x="0" y="0" flags="0x1004"/>
      <component glyphName="dotlessj" x="641" y="0" flags="0x1004"/>
      <component glyphName="dotaccent" x="897" y="0" flags="0x1004"/>
    </TTGlyph>
    <TTGlyph name="imacron" xMin="140" yMin="-20" xMax="675" yMax="1574">
      <component glyphName="dotlessi" x="0" y="0" flags="0x1204"/>
      <component glyphName="macron" x="121" y="0" flags="0x1004"/>
    </TTGlyph>
    <TTGlyph name="infinity" xMin="172" yMin="239" xMax="1712" yMax="995">
      <contour>
        <pt x="925" y="496" on="1"/>
        <pt x="763" y="240" on="0"/>
        <pt x="546" y="240" on="1"/>
        <pt x="372" y="240" on="0"/>
        <pt x="268" y="350" on="1"/>
        <pt x="172" y="450" on="0"/>
        <pt x="172" y="597" on="1"/>
        <pt x="172" y="767" on="0"/>
        <pt x="287" y="880" on="1"/>
        <pt x="403" y="994" on="0"/>
        <pt x="573" y="994" on="1"/>
        <pt x="735" y="994" on="0"/>
        <pt x="880" y="831" on="1"/>
        <pt x="960" y="737" on="1"/>
        <pt x="1071" y="907" on="0"/>
        <pt x="1232" y="971" on="1"/>
        <pt x="1291" y="994" on="0"/>
        <pt x="1445" y="994" on="0"/>
        <pt x="1582" y="935" on="0"/>
        <pt x="1626" y="884" on="1"/>
        <pt x="1712" y="786" on="0"/>
        <pt x="1712" y="637" on="1"/>
        <pt x="1712" y="465" on="0"/>
        <pt x="1604" y="354" on="1"/>
        <pt x="1494" y="240" on="0"/>
        <pt x="1311" y="240" on="1"/>
        <pt x="1149" y="240" on="0"/>
        <pt x="1005" y="402" on="1"/>
      </contour>
      <contour>
        <pt x="442" y="404" on="0"/>
        <pt x="528" y="357" on="0"/>
        <pt x="621" y="357" on="0"/>
        <pt x="696" y="395" on="0"/>
        <pt x="766" y="458" on="0"/>
        <pt x="798" y="498" on="1"/>
        <pt x="860" y="579" on="1"/>
        <pt x="794" y="674" on="1"/>
        <pt x="662" y="872" on="0"/>
        <pt x="542" y="872" on="1"/>
        <pt x="449" y="872" on="0"/>
        <pt x="395" y="798" on="1"/>
        <pt x="348" y="733" on="0"/>
        <pt x="348" y="581" on="0"/>
        <pt x="381" y="482" on="0"/>
      </contour>
      <contour>
        <pt x="1026" y="653" on="1"/>
        <pt x="1095" y="555" on="1"/>
        <pt x="1237" y="352" on="0"/>
        <pt x="1362" y="352" on="1"/>
        <pt x="1455" y="352" on="0"/>
        <pt x="1499" y="429" on="1"/>
        <pt x="1536" y="494" on="0"/>
        <pt x="1536" y="651" on="0"/>
        <pt x="1509" y="747" on="0"/>
        <pt x="1482" y="784" on="1"/>
        <pt x="1423" y="867" on="0"/>
        <pt x="1324" y="867" on="1"/>
        <pt x="1192" y="867" on="0"/>
      </contour>
    </TTGlyph>
    <TTGlyph name="integral" xMin="41" yMin="-518" xMax="1004" yMax="1700">
      <contour>
        <pt x="168" y="-280" on="1"/>
        <pt x="196" y="-352" on="0"/>
        <pt x="281" y="-386" on="1"/>
        <pt x="309" y="-398" on="0"/>
        <pt x="408" y="-398" on="0"/>
        <pt x="492" y="-358" on="0"/>
        <pt x="514" y="-317" on="1"/>
        <pt x="553" y="-247" on="0"/>
        <pt x="553" y="37" on="0"/>
        <pt x="519" y="245" on="0"/>
        <pt x="467" y="456" on="0"/>
        <pt x="407" y="667" on="0"/>
        <pt x="381" y="772" on="1"/>
        <pt x="321" y="1014" on="0"/>
        <pt x="321" y="1290" on="0"/>
        <pt x="378" y="1477" on="0"/>
        <pt x="432" y="1548" on="1"/>
        <pt x="547" y="1700" on="0"/>
        <pt x="734" y="1700" on="1"/>
        <pt x="864" y="1700" on="0"/>
        <pt x="948" y="1630" on="1"/>
        <pt x="983" y="1601" on="0"/>
        <pt x="1004" y="1553" on="1"/>
        <pt x="876" y="1462" on="1"/>
        <pt x="871" y="1499" on="0"/>
        <pt x="836" y="1527" on="1"/>
        <pt x="768" y="1580" on="0"/>
        <pt x="636" y="1580" on="0"/>
        <pt x="553" y="1540" on="0"/>
        <pt x="530" y="1499" on="1"/>
        <pt x="492" y="1429" on="0"/>
        <pt x="492" y="1145" on="0"/>
        <pt x="526" y="937" on="0"/>
        <pt x="578" y="727" on="0"/>
        <pt x="638" y="516" on="0"/>
        <pt x="664" y="411" on="1"/>
        <pt x="724" y="169" on="0"/>
        <pt x="724" y="-108" on="0"/>
        <pt x="667" y="-295" on="0"/>
        <pt x="613" y="-366" on="1"/>
        <pt x="496" y="-518" on="0"/>
        <pt x="310" y="-518" on="1"/>
        <pt x="181" y="-518" on="0"/>
        <pt x="97" y="-448" on="1"/>
        <pt x="62" y="-419" on="0"/>
        <pt x="41" y="-371" on="1"/>
      </contour>
    </TTGlyph>
</ttFont>
